<svg version="1.2" xmlns="http://www.w3.org/2000/svg" viewBox="0 0 192 205" width="192" height="205">
	<style>
		.s0 { fill: #1a1a1a } 
		.s1 { fill: #ffffff } 
		.s2 { fill: #91c1d6 } 
		.s3 { fill: #d7e9f1 } 
	</style>
	<g id="Background">
		<path id="Path 0" class="s0" d="m84.5 5.31c-2.2 0.7-6.03 2.44-8.5 3.85-2.47 1.42-6.71 5-9.4 7.96-2.7 2.96-5.91 7.63-7.13 10.38-1.22 2.75-2.5 5.79-2.85 6.75-0.56 1.57-1.67 1.68-10.87 1.11-9.07-0.56-10.83-0.39-15.25 1.48-3.21 1.36-7.39 4.54-11.66 8.89-4.14 4.21-7.72 9.04-9.47 12.77-2.17 4.62-2.9 7.84-3.18 14-0.32 6.78 0.02 8.99 2.2 14.5 1.56 3.97 4.49 8.64 7.5 12l4.94 5.5c-3.55 4.65-6.1 8.9-7.96 12.44-2.68 5.12-3.45 7.88-3.75 13.5-0.29 5.44 0.15 8.67 1.93 14.06 1.91 5.8 3.34 8.05 8.38 13.13 4.56 4.6 7.56 6.67 12.07 8.33 5.11 1.88 7.41 2.13 15.5 1.73 5.23-0.27 10.62-0.79 12-1.16 2.37-0.65 2.63-0.3 4.92 6.64 2.12 6.42 3.3 8.21 9.5 14.39 5.4 5.39 8.5 7.6 13.08 9.34 3.3 1.26 8.47 2.53 11.5 2.83 3.98 0.4 7.43-0.02 12.5-1.53 6.13-1.83 7.85-2.93 13.89-8.9 4.33-4.27 7.77-8.75 9.25-12.05 1.3-2.89 2.36-5.93 2.36-6.75 0-1.27 1.34-1.4 8.75-0.83 8.03 0.61 9.32 0.44 15.75-2.07 5.19-2.03 8.5-4.21 12.79-8.42 3.19-3.12 6.86-7.48 8.16-9.68 1.29-2.2 3.12-6.93 4.05-10.5 0.93-3.57 1.51-8.53 1.29-11-0.23-2.47-1.78-7.42-3.46-11-1.68-3.58-4.91-8.64-7.19-11.25l-4.14-4.75c5.58-5.04 8.61-9.41 10.35-12.98 2.55-5.24 3.22-8 3.52-14.5 0.25-5.56-0.16-9.86-1.36-14.02-0.94-3.3-2.74-8.03-4-10.5-1.25-2.48-4.24-6.33-6.64-8.57-2.99-2.78-6.58-4.81-11.37-6.41-4.32-1.44-9.49-2.36-13.5-2.4-3.57-0.04-8.53 0.33-11 0.81l-4.5 0.87c-4.99-10.48-7.86-14.31-11.5-17.62-3.03-2.75-8.42-6.39-12-8.08-5.16-2.44-8.04-3.12-14-3.32-4.13-0.13-9.3 0.33-11.5 1.03z"/>
		<path id="Path 1" class="s1" d="m86.5 12.9c-1.65 0.38-5.03 1.84-7.5 3.25-2.47 1.42-5.93 4.32-7.67 6.46-1.74 2.14-4.09 5.91-5.22 8.39-1.12 2.48-2.39 7.32-2.82 10.76-0.44 3.44-0.79 6.27-0.79 6.28 0 0-2.25-0.97-5-2.16-3.31-1.44-7.88-2.34-13.5-2.66-7.17-0.41-9.13-0.17-12.5 1.53-2.2 1.11-5.91 4.09-8.25 6.63-2.34 2.54-5.37 6.98-6.74 9.87-1.97 4.16-2.49 6.81-2.48 12.75 0.01 5.45 0.58 8.73 2.09 12 1.14 2.47 3.71 6.47 5.72 8.87 2.01 2.41 5.61 5.34 8 6.5l4.35 2.13c-5.6 3.88-8.31 6.58-9.63 8.5-1.33 1.92-3.58 5.75-5.01 8.5-2.02 3.9-2.59 6.44-2.59 11.5 0.01 3.57 0.7 8.53 1.53 11 0.83 2.47 2.97 6.27 4.76 8.43 1.79 2.16 5.5 4.97 8.25 6.24 3.9 1.8 6.76 2.31 13 2.31 4.4 0.01 9.58-0.42 11.5-0.94 1.92-0.52 5.19-2.1 7.25-3.5 2.06-1.39 4.2-2.54 4.75-2.54 0.55 0 0.99 2.36 0.98 5.25-0.01 2.89 0.88 8.18 1.98 11.75 1.37 4.43 3.37 8.05 6.27 11.35 2.64 3 6.37 5.81 9.77 7.36 3.03 1.38 7.53 2.74 10 3.01 2.47 0.28 7.2-0.04 10.5-0.71 5.34-1.09 6.68-1.91 12.15-7.37 4.87-4.87 6.48-7.28 7.76-11.64 0.88-3.03 1.61-7.41 1.6-9.75-0.01-2.34 0.44-4.25 0.99-4.25 0.55 0 2.46 0.74 4.25 1.64 1.84 0.93 6.73 1.84 11.25 2.11 6.61 0.38 8.96 0.08 13.5-1.71 3.03-1.2 7.01-3.61 8.86-5.36 1.85-1.75 4.51-4.98 5.91-7.18 1.41-2.2 3.15-6.25 3.88-9 0.73-2.75 1.33-6.8 1.33-9 0-2.21-1.15-6.45-2.58-9.5-1.42-3.03-4-7.27-5.74-9.44-1.74-2.17-5.07-5.21-7.41-6.75l-4.25-2.81c5.81-3.73 8.87-6.09 10.55-7.66 1.67-1.56 4.34-5.54 5.92-8.84 2.66-5.57 2.83-6.65 2.4-15-0.36-7.04-1.07-10.31-3.22-15-1.52-3.3-3.97-7.14-5.46-8.54-1.48-1.4-4.94-3.29-7.69-4.2-2.75-0.91-7.03-1.95-9.5-2.31-2.47-0.36-7.2-0.11-10.5 0.55-3.3 0.66-7.35 2.04-9 3.07-1.65 1.03-3.45 1.89-4 1.92-0.55 0.03-1.61-2.77-2.35-6.22-0.75-3.45-2.37-8.29-3.61-10.77-1.24-2.48-4.01-5.93-6.15-7.67-2.14-1.74-6.48-4.33-9.64-5.75-4.19-1.88-7.31-2.55-11.5-2.48-3.16 0.06-7.1 0.42-8.75 0.8z"/>
		<path id="Path 2" class="s2" d="m91 19.94c-2.47 0.36-5.85 1.37-7.5 2.22-1.65 0.86-4.43 3.31-6.17 5.45-1.75 2.14-3.93 5.69-4.86 7.89-0.92 2.2-1.92 7.15-2.2 11-0.4 5.41-0.03 8.59 1.62 14l2.14 7c-4.27-3.88-5.74-5.27-6.02-5.61-0.28-0.33-3.43-2.61-7.01-5.08-3.93-2.7-8.58-4.94-11.75-5.64-2.89-0.64-6.6-1.17-8.25-1.17-1.65 0-4.24 0.62-5.75 1.38-1.51 0.76-4.44 3.23-6.5 5.5-2.06 2.27-4.65 6.15-5.75 8.62-1.1 2.47-2 6.3-2 8.5 0 2.2 0.59 5.46 1.31 7.25 0.71 1.79 2.85 5.2 4.75 7.59 2.21 2.8 5.58 5.38 9.44 7.24 3.3 1.58 9.15 3.65 13 4.58 6.33 1.54 6.76 1.79 4.5 2.69-1.38 0.54-6.1 2.64-10.5 4.65-4.4 2.02-9.35 5.05-11 6.74-1.65 1.69-4.24 5.47-5.75 8.41-1.51 2.94-2.75 6.92-2.76 8.85-0.01 1.93 0.5 5.07 1.13 7 0.64 1.93 2.33 5.05 3.77 6.94 1.43 1.89 4.41 4.25 6.61 5.23 2.31 1.03 6.43 1.8 9.75 1.81 3.16 0.01 7.44-0.69 9.5-1.56 2.06-0.87 5.55-2.97 7.75-4.67 2.2-1.7 4.45-3.58 5-4.18 0.55-0.59 3.25-2.93 6-5.19l5-4.11c-1.88 10.25-2.44 16.38-2.45 20.23-0.02 3.85 0.73 9.7 1.66 13 1.29 4.58 2.77 7.08 6.24 10.54 3.15 3.15 6.24 5.07 10.05 6.29 4.56 1.45 6.36 1.56 10.5 0.66 3.82-0.84 6.13-2.2 9.79-5.79 3.59-3.51 5.2-6.09 6.39-10.2 1.16-4.03 1.42-7.5 0.94-13-0.35-4.13-0.94-9.07-1.3-11l-0.65-3.5c6.23 5.43 10.69 8.44 13.94 10.21 3.88 2.12 7.93 3.43 11.89 3.84 4.81 0.5 6.89 0.23 10.5-1.39 2.47-1.1 5.85-3.5 7.5-5.33 1.66-1.83 3.73-4.46 4.6-5.83 0.88-1.38 2.16-4.75 2.84-7.5 1.13-4.53 1.05-5.47-0.91-10-1.19-2.75-3.71-6.91-5.6-9.25-2.27-2.82-5.54-5.22-9.68-7.12-3.44-1.58-9.4-3.68-13.25-4.67l-7-1.79c11.63-3.28 17.47-5.66 20.5-7.41 3.03-1.76 6.85-4.46 8.5-6 1.65-1.55 4.08-5.05 5.41-7.79 2-4.12 2.32-6 1.89-10.97-0.28-3.3-1.39-8.03-2.46-10.5-1.07-2.48-2.93-5.51-4.14-6.75-1.21-1.24-4.11-2.94-6.45-3.79-2.34-0.85-6.05-1.58-8.25-1.63-2.2-0.05-5.57 0.26-7.5 0.68-1.93 0.42-5.07 1.78-7 3.02-1.93 1.23-6.88 5.19-11 8.79-4.13 3.59-7.63 6.45-7.8 6.36-0.16-0.1 0.57-3.33 1.62-7.18 1.05-3.85 1.96-8.13 2.03-9.5 0.07-1.38-0.37-4.98-0.98-8-0.61-3.02-1.89-7.08-2.86-9-0.96-1.93-3.27-4.69-5.13-6.15-1.86-1.46-5.52-3.59-8.13-4.75-2.61-1.15-5.31-2.04-6-1.97-0.69 0.08-3.28 0.44-5.75 0.81z"/>
		<path id="Path 3" class="s3" d="m89.88 33.37c-1.21 0.62-3.14 2.93-4.29 5.13-1.63 3.11-2.08 5.78-2.05 12 0.03 6.95 0.72 10.03 5.27 23.5 2.87 8.53 5.22 16.51 5.21 17.75-0.01 1.24-0.58 2.42-1.27 2.63-0.69 0.2-2.72-0.13-4.52-0.75-1.8-0.62-7.6-5.18-12.9-10.13-5.29-4.95-12.37-11.06-15.72-13.58-3.36-2.52-7.68-5.34-9.61-6.27-1.92-0.93-4.74-1.68-6.25-1.67-1.51 0.01-4.21 0.61-6 1.34-2.09 0.85-3.88 2.64-5 5-1.16 2.44-1.54 4.77-1.12 6.93 0.35 1.79 1.52 4.38 2.61 5.75 1.09 1.38 3.39 3.36 5.12 4.41 1.73 1.05 5.39 2.74 8.14 3.76 2.75 1.02 10.63 3 17.5 4.4 6.88 1.39 14.86 3.18 17.75 3.98 2.89 0.8 5.25 1.9 5.25 2.45 0 0.55-0.56 2.12-1.25 3.5-0.73 1.46-2.91 3.1-5.25 3.94-2.2 0.8-8.95 2.66-15 4.14-6.05 1.47-14.6 4.42-19 6.53-4.4 2.12-9.12 5.03-10.5 6.45-1.89 1.97-2.5 3.67-2.5 6.99 0 3.35 0.6 5 2.5 6.93 1.38 1.39 4.08 2.79 6 3.11 2.29 0.38 5.4-0.12 9-1.45 3.57-1.31 8.48-4.57 14-9.28 4.68-4 11.99-10.77 16.25-15.06 4.26-4.29 8.54-7.81 9.5-7.82 0.96-0.01 2.32 0.56 3.02 1.25 0.69 0.7 1.26 1.95 1.26 2.77 0 0.83-1.09 4.2-2.42 7.5-1.34 3.3-3.37 10.95-4.52 17-1.15 6.05-2.09 14.04-2.09 17.75 0 3.71 0.59 8.21 1.31 10 0.72 1.79 2.86 4.49 4.75 6.01 3 2.41 3.82 2.63 6.44 1.73 1.65-0.57 4.03-1.58 5.29-2.26 1.26-0.68 2.99-3.03 3.85-5.23 1.15-2.97 1.39-5.81 0.92-11-0.35-3.85-0.9-8.12-1.22-9.5-0.33-1.37-2.4-8.57-4.61-16-2.21-7.42-4.17-14.96-4.37-16.75-0.24-2.19 0.14-3.49 1.17-4q1.52-0.76 4.6 2.25c1.69 1.65 4.77 5.47 6.83 8.5 2.07 3.03 7.31 8.81 11.65 12.86 4.34 4.04 10.14 8.65 12.89 10.24 2.75 1.58 6.35 2.88 8 2.89 1.65 0 4.35-0.83 6-1.84 1.65-1.01 4.46-3.26 6.25-5 2.59-2.51 3.14-3.71 2.69-5.9-0.31-1.51-1.37-4.32-2.35-6.25-1.26-2.46-3.55-4.42-7.69-6.59-3.25-1.69-6.8-3.33-7.9-3.64-1.1-0.31-9.43-2.87-18.5-5.68-9.07-2.81-16.83-5.67-17.23-6.35-0.41-0.68-0.76-2.14-0.77-3.24-0.03-1.62 1.06-2.26 5.73-3.37 3.17-0.75 8.58-1.99 12.02-2.75 3.44-0.76 9.29-2.11 13-3 3.71-0.89 9.39-2.81 12.62-4.25 4.96-2.22 6.16-3.29 7.75-6.88 1.03-2.34 1.88-5.37 1.88-6.75 0-1.37-0.84-4.19-1.88-6.25-1.03-2.06-3.05-4.31-4.5-5-1.44-0.69-3.86-1.24-5.37-1.22-1.51 0.02-4.83 1.26-7.38 2.75-2.54 1.5-7.72 5.22-11.5 8.29-3.78 3.06-10.69 9.93-15.37 15.26-4.67 5.33-8.95 9.69-9.5 9.69-0.55 0-1.79-0.91-2.75-2.01-0.96-1.11-1.75-2.57-1.75-3.26-0.01-0.69 0.66-3.72 1.48-6.75 0.82-3.03 2.4-9.44 3.51-14.25 1.1-4.81 2.46-11.9 3.01-15.75 0.65-4.52 0.66-8.33 0.04-10.75-0.53-2.06-2.21-4.99-3.75-6.51-1.53-1.52-4.46-3.16-6.5-3.63-2.45-0.57-4.47-0.48-5.91 0.26z"/>
	</g>
</svg>