<svg version="1.2" xmlns="http://www.w3.org/2000/svg" viewBox="0 0 398 475" width="398" height="475">
	<style>
		.s0 { fill: #1a1a1a } 
		.s1 { fill: #cdcdcd } 
		.s2 { fill: #4a6444 } 
		.s3 { fill: #ffffff } 
		.s4 { fill: #5b7855 } 
	</style>
	<g id="Background">
		<path id="Path 0" class="s0" d="m172.25 22.51c-1.79 1.37-3.92 3.73-4.73 5.24-0.81 1.51-3.53 5-6.03 7.75-2.51 2.75-6.32 8.6-8.48 13-2.16 4.4-4.8 11.83-5.88 16.5-1.07 4.67-2.64 11.87-3.47 16-0.84 4.12-1.82 9.3-2.18 11.5-0.36 2.2-2.64 10.41-5.07 18.25-3.75 12.1-5.85 16.77-13.94 31-5.24 9.21-10 18.55-10.58 20.75-0.58 2.2-1.08 7.37-1.11 11.5-0.06 6.38 0.34 8.25 2.68 12.5l2.75 5c-14.04 27.9-20.62 40.05-23.67 45-3.05 4.95-6.66 11.25-8.03 14-1.37 2.75-2.49 6.24-2.5 7.75-0.01 1.51 1.04 3.99 2.32 5.5 1.29 1.51 4.21 3.54 6.5 4.5 2.3 0.96 4.18 2.09 4.19 2.5 0.01 0.41-0.46 1.2-1.04 1.75-0.58 0.55-1.37 4.7-1.76 9.22-0.66 7.54-0.96 8.4-3.69 10.5-1.63 1.25-5.57 4.98-8.75 8.28-3.18 3.3-5.76 6.23-5.75 6.5 0.02 0.27-0.93 1.62-2.1 3-1.17 1.37-4.48 5.87-7.35 10-2.88 4.12-6.21 9.64-7.41 12.25-1.19 2.61-2.17 6.44-2.16 8.5 0 2.06 0.45 5.44 1 7.5 0.59 2.23 2.82 5.58 5.49 8.25l4.5 4.5c-4.33 6.59-6.69 10.06-8.04 11.97-1.35 1.91-3.09 4.16-3.86 5-0.78 0.84-3.46 4.23-5.97 7.53-2.51 3.3-5.06 6.45-5.66 7-0.61 0.55-3.21 3.7-5.78 7-2.57 3.3-7.66 9.82-11.31 14.5-3.64 4.68-7.02 9.51-7.5 10.75-0.49 1.24-0.88 3.94-0.89 6 0 2.06 0.67 4.76 1.5 6 0.83 1.24 3.42 3.21 5.76 4.37 3.05 1.52 5.95 2.09 10.25 2.01 3.3-0.07 9.38-0.83 13.5-1.7 4.13-0.87 8.4-2.07 9.5-2.66 1.1-0.59 3.13-1.42 4.5-1.83 2.14-0.64 2.73-0.3 4.09 2.41 0.89 1.77 3.19 3.92 5.25 4.9 2.01 0.96 5.01 1.75 6.66 1.75 2.18 0 3.01 0.48 3.03 1.75 0.02 0.96 0.92 3.21 2 5 1.08 1.79 3.43 3.98 5.22 4.88 2.45 1.23 4.6 1.46 8.75 0.95 3.03-0.37 7.3-1.47 9.5-2.44 2.2-0.98 6.7-3.6 10-5.83 3.3-2.24 6.9-5.05 8-6.25l2-2.18c1.59 5.2 3.44 7.53 5.5 8.92 2.91 1.97 4.26 2.27 8 1.74 2.47-0.35 6.3-1.71 8.5-3.03l4-2.4c2.71 4.57 4.74 6.65 6.25 7.57 1.51 0.93 4.78 1.7 7.25 1.71 3.5 0.01 5.61-0.75 9.5-3.41 2.75-1.88 6.05-4.56 7.33-5.95 1.94-2.1 2.47-2.28 3.14-1.03 0.44 0.82 2.09 2.99 3.67 4.81 1.57 1.83 4.43 3.78 6.36 4.34 2.63 0.78 4.22 0.7 6.37-0.31 1.57-0.74 3.94-2.8 5.25-4.59 1.31-1.79 2.38-3.93 2.38-4.75 0-1.03 1.33-0.42 4.25 1.93 2.34 1.89 5.94 4.14 8 5 2.06 0.87 5.32 1.57 7.25 1.57 2.23 0 4.5-0.86 6.25-2.35 1.51-1.29 3.09-3.76 3.5-5.5l0.75-3.15c5.04 3.75 9.43 6.48 13 8.48 3.57 2.01 8.98 4.35 12 5.21 3.84 1.1 7.91 1.41 13.5 1.06 6.93-0.44 8.24-0.82 9.79-2.88 1.1-1.45 1.78-4.03 1.75-6.62l-0.04-4.25c8.8 3.52 13.25 4.3 19 4.49 5.29 0.17 10.01 0.94 12.5 2.01 2.2 0.96 6.09 1.8 8.65 1.87 3.39 0.09 5.22-0.41 6.78-1.87 1.17-1.1 2.12-2.56 2.1-3.25-0.02-0.77 0.64-1.01 1.72-0.62 0.96 0.35 4 0.86 6.75 1.13 2.75 0.28 6.69-0.01 8.75-0.63 2.13-0.64 4.23-2.1 4.87-3.38 0.61-1.24 0.88-3.38 0.59-4.75-0.51-2.39-0.36-2.48 3.63-2.12 2.29 0.21 6.64-0.19 9.66-0.88 3.02-0.69 6.11-1.77 6.86-2.38 1.05-0.86 1.2-2.84 0.66-8.62-0.38-4.13-1.57-9.52-2.65-12-1.07-2.48-2.77-5.18-3.78-6-1-0.82-6.27-5.14-11.71-9.6-5.43-4.45-13.03-11.25-16.88-15.1-3.85-3.84-8.26-8.75-9.8-10.9-2.77-3.87-2.78-3.93-1.15-7.9 0.94-2.27 1.63-6.6 1.61-10-0.03-3.3-0.57-7.35-1.19-9-0.63-1.65-2.66-5.25-4.52-8-1.85-2.75-4.43-6.13-5.72-7.5-1.3-1.38-3.68-4.49-5.3-6.93-2.65-4.01-2.94-5.24-2.98-13-0.03-4.71-0.65-10.59-1.38-13.07-0.99-3.39-2.99-6.1-8.1-11-4.9-4.69-6.98-7.47-7.5-10-0.39-1.93-1.5-5.07-2.45-7-0.95-1.93-2.03-5.75-2.39-8.5-0.36-2.75-1.74-7.25-3.06-10-1.33-2.75-4.76-7.47-7.63-10.5-2.88-3.03-8.91-11.57-13.4-19-4.5-7.43-8.49-14.4-8.88-15.5-0.38-1.1-0.17-3.35 0.47-5 0.89-2.3 0.88-4.29-0.04-8.5-0.66-3.03-1.34-7.75-1.51-10.5-0.17-2.75-0.87-7.03-1.55-9.5-0.69-2.47-2.51-6.97-4.05-10-1.54-3.03-3.65-6.4-4.68-7.5-1.03-1.1-4.52-5.6-7.76-10-3.23-4.4-7.81-10.25-10.18-13l-4.31-5c0.11-15.54-0.15-16.53-4.47-25.25-2.52-5.09-4.58-9.47-4.58-9.75 0-0.28-1.39-3.54-3.09-7.25-2.09-4.57-3.38-9.41-4-15-0.5-4.54-2.31-12.19-4.03-17-1.71-4.81-4.37-11.45-5.9-14.75-1.84-3.95-4.45-7.42-7.64-10.13-2.66-2.28-6.64-4.64-8.84-5.25-2.2-0.61-5.8-1.11-8-1.1-2.72 0-5.04 0.8-7.25 2.49z"/>
		<path id="Path 1" class="s1" d="m135.71 142.75c-0.77 1.51-4.06 7.26-7.31 12.78-3.24 5.52-6.52 12.49-7.28 15.5-0.77 3.07-1.1 7.11-0.75 9.22 0.35 2.06 1.42 4.17 2.38 4.68 1.05 0.55 3.35 0.57 5.75 0.04 2.2-0.48 6.93-2.31 10.5-4.06 3.57-1.75 8.3-3.41 10.5-3.69 3.23-0.41 5.39 0.19 11.25 3.14 3.99 2 8.71 3.63 10.5 3.62 1.79-0.01 5.05-0.85 7.25-1.87 2.2-1.02 4.97-2.92 6.15-4.23 1.19-1.31 3.72-5.31 5.64-8.88 3.27-6.1 3.72-6.52 7.35-6.83 3.22-0.27 4.6 0.28 8.36 3.35 2.47 2.03 7.2 6.27 10.5 9.44 3.3 3.16 9.6 8.6 14 12.07 4.4 3.48 9.46 6.92 11.25 7.65 1.79 0.73 4.49 1.32 6 1.33 1.51 0 3.76-0.67 5-1.5 1.24-0.83 2.25-2.41 2.25-3.51 0-1.1-0.68-3.35-1.5-5-1.03-2.05-1.31-4.5-0.91-7.75 0.44-3.6 0.03-6.2-1.71-10.75-1.26-3.3-3.44-7.29-4.84-8.86l-2.54-2.87c-2.53 5.22-4.33 7.34-5.64 8.09-1.36 0.79-3.52 1.1-5.11 0.75-1.51-0.34-4.89-2.53-7.5-4.88-2.61-2.34-6.78-5.64-9.25-7.32-2.48-1.68-5.85-3.62-7.5-4.31-1.8-0.76-5.6-1.1-9.5-0.85-4.67 0.29-8.33 1.3-13 3.58-3.57 1.75-7.74 3.4-9.25 3.67-1.97 0.36-3.6-0.21-5.75-2-1.65-1.38-5.36-3.18-8.25-4.01-2.89-0.83-7.28-1.52-9.75-1.54-2.48-0.02-6.53-0.44-9-0.92-2.48-0.49-5.05-1.71-5.72-2.71-0.67-1-1.03-2.16-0.79-2.57 0.24-0.41 0.25-0.75 0.03-0.75-0.22 0-1.04 1.24-1.81 2.75zm52.79 164.05c-2.2 1.03-5.46 3.52-7.25 5.54-1.79 2.01-4.04 5.25-5 7.19-0.96 1.95-2.54 3.75-3.5 4-0.96 0.26-4.56-0.51-8-1.7-5.38-1.87-7.29-2.06-13.75-1.37-4.13 0.44-8.85 0.76-10.5 0.71-1.65-0.06-5.48-1.46-8.5-3.12-3.79-2.08-6.9-3.02-10-3.03-2.48-0.01-9.23 0.86-15 1.93-5.78 1.07-13.4 2.08-16.94 2.25-6.01 0.28-6.47 0.15-7-2.01-0.55-2.26-0.6-2.24-2.31 0.75-0.96 1.68-2.2 3.06-2.75 3.06-0.55 0-1 0.67-1 1.5 0 0.82-0.39 1.61-0.87 1.75-0.49 0.14-2.75 2.95-5.05 6.25-2.29 3.3-4.93 8.35-5.87 11.22l-1.71 5.21c3.87 3.92 6.01 5.29 7.25 5.57 1.24 0.27 4.39-0.22 7-1.11 2.61-0.89 8.12-3.2 12.25-5.14 4.12-1.94 10.2-4.36 13.5-5.38 3.3-1.02 8.36-1.86 11.25-1.86 2.95-0.01 8.53 1.08 12.75 2.49 4.12 1.37 8.18 2.5 9 2.5 0.82 0 3.64-1.42 6.25-3.16 2.96-1.96 6.45-3.32 9.25-3.6 3.88-0.39 5.7 0.18 13.25 4.15 4.81 2.54 9.65 4.61 10.75 4.61 1.24 0 3.29-1.8 5.4-4.75 1.87-2.61 5.58-9.67 8.25-15.68 3.02-6.8 5.7-11.42 7.1-12.25 1.63-0.96 3.14-1.06 5.5-0.37 1.79 0.52 3.93 1.69 4.75 2.59 0.82 0.9 3.75 5.99 6.5 11.3 3.49 6.75 5.6 9.75 7 9.96 1.1 0.17 2.85-0.51 3.89-1.5 1.04-0.99 2.55-3.38 3.36-5.3 0.81-1.93 2.44-4.8 3.61-6.39 1.92-2.59 2.55-2.82 6.14-2.27 2.2 0.34 5.69 1.75 7.75 3.14 2.06 1.38 5.5 5.11 7.65 8.27 2.14 3.16 5.41 7.17 7.25 8.9 1.84 1.73 5.15 4.33 7.35 5.78 2.2 1.45 5.24 2.62 6.75 2.6 1.91-0.02 3.9-1.27 6.5-4.09 3.12-3.38 4.21-3.97 6.5-3.5 2.04 0.41 3.36 1.79 5.11 5.31 1.3 2.61 3.89 6.06 5.75 7.65 1.87 1.6 4.85 3.51 6.64 4.25 1.79 0.74 5.61 1.46 8.5 1.59 2.99 0.13 6.7-0.4 8.61-1.25 1.85-0.82 4.29-3.07 5.41-4.99 1.41-2.41 1.89-4.59 1.56-7-0.3-2.15-2.62-6.38-6.04-11-3.05-4.13-6.28-8.06-7.17-8.75-1.34-1.04-1.7-0.95-2.08 0.5-0.25 0.96-1.49 2.34-2.75 3.05-1.71 0.98-2.99 1.04-5.04 0.25-1.51-0.58-3.76-2.1-5-3.38-1.24-1.28-4.95-3.52-8.25-4.97-3.3-1.46-7.01-2.66-8.25-2.67-1.24-0.02-4.05 0.87-6.25 1.97-2.2 1.1-5.46 1.99-7.25 1.98-2.66-0.03-4.53-1.28-10.25-6.91-4.19-4.11-9.01-7.75-12-9.06-2.75-1.2-7.25-2.41-10-2.7-4.22-0.43-6.28 0.05-13.25 3.09-5.34 2.33-9.04 3.39-10.5 2.99-1.24-0.33-4.84-1.91-8-3.5-3.16-1.59-7.66-3.13-10-3.42-2.97-0.38-5.45 0.03-8.25 1.33z"/>
		<path id="Path 2" class="s2" d="m200.6 328.72c-1.48 2.87-2.67 5.9-2.65 6.75 0.03 0.84-1.22 3.89-2.77 6.78-1.56 2.89-3.47 6.29-4.25 7.55-0.79 1.27-3.46 3.55-5.93 5.08-4.34 2.67-4.68 2.72-9.5 1.45-2.75-0.73-6.12-2.08-7.5-3-1.37-0.92-4.41-2.72-6.75-4-2.34-1.28-4.93-2.11-5.75-1.83-0.82 0.27-1.49 0.84-1.47 1.25 0.02 0.41-2.12 1.97-4.75 3.47-2.63 1.49-6.24 2.73-8.03 2.75-1.79 0.02-6.4-1.32-10.25-2.97-3.97-1.7-9.56-3.22-12.93-3.5-5.24-0.44-6.3-0.2-9.06 2-1.71 1.38-3.32 2.5-3.56 2.5-0.25 0-1.8 0.9-3.45 2-1.65 1.1-3 1.77-3 1.5 0-0.28-3.26 1.06-7.25 2.96-4.79 2.28-9.04 3.55-12.52 3.75-4.13 0.23-5.54 0.75-6.5 2.4-0.68 1.17-2.67 4.54-4.42 7.5-1.76 2.97-4.68 7.55-6.5 10.19-1.82 2.64-6.87 9.61-11.21 15.5-4.35 5.88-9.75 12.95-11.99 15.7-2.25 2.75-4.35 5.22-4.68 5.5-0.34 0.27-2.25 2.86-4.27 5.75-2.09 3-3.34 5.74-2.91 6.4 0.5 0.77 2.56 0.93 6.25 0.49 3.03-0.36 8.09-1.55 11.25-2.65 3.16-1.09 6.43-1.99 7.25-1.99 0.83 0 2.29-0.41 3.25-0.91 0.96-0.5 4.45-2.13 7.75-3.61 3.3-1.49 6.79-3.1 7.75-3.59 0.96-0.49 2.65-0.89 3.75-0.89 1.1 0 2.79 0.39 3.75 0.88 0.96 0.48 2.09 2.28 2.5 4 0.6 2.51 0.26 3.76-1.75 6.37-1.37 1.79-2.27 3.47-2 3.75 0.26 0.27 3.53-0.33 7.24-1.35 3.72-1.01 7.32-1.57 8.01-1.25 0.86 0.42 1.06 1.92 0.63 4.85-0.34 2.34-0.95 4.92-1.36 5.75-0.41 0.82-1.03 2.74-1.38 4.25-0.58 2.49-0.38 2.75 2.11 2.73 1.51-0.01 5.68-1.49 9.25-3.29 3.58-1.8 9.65-5.77 13.5-8.83 3.85-3.05 8.69-7.42 10.75-9.71 2.06-2.28 4.76-4.57 6-5.09 1.6-0.67 2.9-0.53 4.5 0.5 1.24 0.8 2.25 2.45 2.24 3.69 0 1.24-0.7 3.6-1.56 5.25-0.85 1.65-1.86 4.92-2.24 7.27-0.43 2.63-0.31 4.26 0.31 4.27 0.55 0 3.25-1.18 6-2.62 2.75-1.45 6.35-3.59 8-4.75 1.65-1.16 3.77-2.8 4.72-3.64 1.03-0.92 2.77-1.33 4.37-1.03 1.46 0.27 3.11 1.4 3.65 2.5 0.55 1.1 0.83 4.34 0.63 7.21-0.36 5.12-0.33 5.2 2.13 4.59 1.38-0.33 2.61-0.99 2.75-1.45 0.14-0.47 0.81-0.84 1.5-0.84 0.69 0.01 3.1-1.9 5.37-4.25 2.26-2.34 5.18-6.63 6.5-9.53 1.34-2.97 3.03-5.27 3.88-5.27 0.82 0 2.29 0.58 3.26 1.27 1.07 0.77 2.11 3.44 2.63 6.77 0.48 3.02 1.66 7.07 2.62 9 0.96 1.92 1.9 3.72 2.09 4 0.19 0.27 1.37-0.22 2.62-1.11 1.26-0.88 3.32-3.81 4.59-6.5 1.27-2.69 2.67-5.57 3.11-6.39 0.44-0.83 1.53-1.61 2.44-1.75 0.9-0.14 2.32 0.31 3.14 1 0.83 0.69 1.73 2.71 2 4.5 0.35 2.25 1.66 4.14 4.25 6.12 2.06 1.57 4.76 3.15 6 3.5 1.24 0.34 3.26 0.18 4.5-0.37 1.24-0.56 2.85-2.02 3.59-3.25 1.09-1.84 1.11-3.26 0.1-7.75-0.69-3.03-0.95-6.29-0.59-7.25 0.5-1.33 1.24-1.57 3.12-1 1.37 0.42 3.81 2.86 5.5 5.5 1.67 2.61 5.17 6.31 7.78 8.21 2.61 1.9 7 4.67 9.75 6.15 3.03 1.64 7.16 2.88 10.5 3.15 3.02 0.26 7.41-0.04 9.75-0.65 4.24-1.11 4.25-1.12 3.75-5.11-0.27-2.2-1.65-5.69-3.05-7.75-1.47-2.16-2.42-4.81-2.24-6.25 0.24-2.01 0.79-2.45 2.79-2.23 1.38 0.15 3.96 1.83 5.75 3.75 1.79 1.91 5.05 4.38 7.25 5.48 2.2 1.1 5.91 2.32 8.25 2.7l4.25 0.7c-4.11-5.2-4.52-6.67-4.08-9.15 0.45-2.53 1.08-3.25 2.83-3.26 1.24 0 4 1.46 6.14 3.25 2.15 1.79 4.67 4.83 5.61 6.76 0.98 2 2.96 4 4.61 4.67 1.59 0.64 4.02 1.41 5.39 1.71 1.38 0.3 3.18 0.14 4-0.35 1.26-0.74 0.9-1.86-2.25-6.96-2.06-3.34-3.75-6.97-3.75-8.07 0-1.1 0.56-2.26 1.25-2.59 0.69-0.32 2.26-0.09 3.5 0.5 1.24 0.6 3.26 2.73 4.5 4.74 1.24 2.01 4.05 4.7 6.25 5.98 2.49 1.45 5.7 2.35 8.5 2.39 2.92 0.05 4.94-0.47 5.75-1.48 0.96-1.19 0.98-2.05 0.09-3.79-0.64-1.24-2.02-3.38-3.07-4.75-1.04-1.38-1.76-3.63-1.58-5 0.25-2.03 0.78-2.44 2.81-2.16 1.38 0.18 3.77 1.53 5.31 3 2.5 2.36 3.51 2.63 9 2.44 3.41-0.13 6.77-0.8 7.48-1.5 0.72-0.71 1.28-2.07 1.25-3.03-0.02-0.96-2.63-4.34-5.79-7.5-3.16-3.16-8.65-8.23-12.21-11.25-3.55-3.03-9.98-9.78-14.29-15-4.32-5.23-8.61-11.11-9.55-13.08-1.68-3.54-1.74-3.57-5.7-2.58-2.79 0.7-6.04 0.65-10.75-0.17-3.71-0.64-9.34-2.49-12.5-4.09-3.16-1.61-7.12-4.2-8.8-5.75-1.68-1.56-3.56-3.73-4.18-4.83-1.11-1.99-1.14-1.98-3.45 0.18-1.27 1.19-3.44 2.48-4.82 2.85-1.54 0.42-5-0.14-9-1.44-4.36-1.42-8.33-3.67-12.06-6.85-3.06-2.61-6.79-6.32-8.27-8.24-1.49-1.93-4.19-5.53-5.99-8-1.81-2.48-3.94-4.64-4.73-4.82-0.94-0.2-2.76 2.28-5.14 7-2.34 4.65-4.61 7.78-6.25 8.57-1.41 0.69-3.46 1.25-4.56 1.25-1.1 0-3.69-0.86-5.75-1.91-2.06-1.05-4.96-3.19-6.45-4.75-1.48-1.56-4.23-6.22-6.1-10.34l-3.41-7.5z"/>
		<path id="Path 3" class="s3" d="m183.5 31.73c-1.1 0.27-5.15 2.42-9 4.79-6.58 4.05-7.28 4.84-11.62 13.14-2.54 4.86-5.54 12.21-6.67 16.34-1.13 4.12-2.31 9.53-2.62 12-0.32 2.47-1 7.42-1.53 11-0.52 3.58-1.39 8.75-1.93 11.5-0.53 2.75-1.69 7.7-2.57 11-0.88 3.3-1.83 7.12-2.1 8.5-0.28 1.37-0.93 3.4-1.46 4.5-0.53 1.1-2.28 5.37-3.9 9.5-2.09 5.33-2.68 8.01-2.02 9.25 0.51 0.96 1.71 1.97 2.67 2.25 0.96 0.27 6.03 0.89 11.25 1.39 5.22 0.49 11.3 1.64 13.5 2.56 2.2 0.91 4.9 2.57 6 3.67 1.46 1.47 2.8 1.86 5 1.45 1.65-0.31 5.93-1.99 9.5-3.74 4.67-2.28 8.33-3.29 13-3.58 3.9-0.25 7.7 0.09 9.5 0.85 1.65 0.69 5.03 2.63 7.5 4.31 2.47 1.68 6.64 4.98 9.25 7.32 2.61 2.35 5.99 4.54 7.5 4.88 1.59 0.35 3.75 0.04 5.11-0.75 1.31-0.75 3.15-2.93 4.1-4.86l1.72-3.5c-7.73-10.07-12.38-15.7-15.32-19-2.95-3.3-6.09-7.57-7-9.5-1.26-2.7-1.49-5.05-1-10.25 0.61-6.42 0.48-7.03-2.76-12.5-1.87-3.16-5.52-11.15-8.1-17.75-3.18-8.11-4.97-14.43-5.52-19.5-0.46-4.13-1.17-8.85-1.59-10.5-0.42-1.65-1.81-5.14-3.08-7.75-1.27-2.61-2.54-5.76-2.81-7-0.28-1.24-1.96-3.91-3.75-5.93-1.79-2.02-4.15-3.88-5.25-4.12-1.1-0.25-2.9-0.23-4 0.03zm-6.49 223.02c-1.86 3.16-5.21 7.69-7.44 10.07-3.3 3.51-4.92 4.43-8.57 4.89-2.47 0.31-5.74 0.28-7.25-0.07-1.51-0.35-3.99-1.94-5.5-3.52l-2.75-2.89c-7.51 3.31-10.08 3.77-12.25 3.37-1.8-0.33-4.81-2.16-6.75-4.1l-3.5-3.5c-8.91 6.01-12.96 8.49-14.75 9.38-2.67 1.33-3.6 2.73-5.23 7.87-1.09 3.44-2.21 9.29-2.5 13-0.34 4.4-1.2 7.71-2.47 9.5-1.07 1.51-4.92 5.67-8.57 9.25-5.21 5.11-6.56 7.03-6.3 9 0.31 2.41 0.54 2.49 6.82 2.2 3.58-0.17 11.22-1.18 17-2.25 5.78-1.07 12.53-1.94 15-1.93 3.1 0.01 6.21 0.95 10 3.03 3.03 1.66 6.85 3.06 8.5 3.12 1.65 0.05 6.38-0.27 10.5-0.71 6.46-0.69 8.37-0.5 13.75 1.37 3.44 1.19 7.04 1.96 8 1.7 0.96-0.25 2.54-2.05 3.5-4 0.96-1.94 3.44-5.36 5.5-7.59 2.06-2.23 5.55-4.75 7.75-5.6 2.73-1.05 5.27-1.32 8-0.83 2.2 0.4 6.47 1.97 9.5 3.5 3.03 1.52 6.51 3.05 7.75 3.38 1.46 0.4 5.16-0.66 10.5-2.99 6.97-3.04 9.03-3.52 13.25-3.09 2.75 0.29 7.25 1.5 10 2.7 2.99 1.31 7.81 4.95 12 9.06 5.72 5.63 7.59 6.88 10.25 6.91 1.79 0.01 5.05-0.88 7.25-1.98 2.2-1.1 5.01-1.99 6.25-1.97 1.24 0.01 4.95 1.21 8.25 2.67 3.3 1.45 7.01 3.69 8.25 4.97 1.24 1.28 3.49 2.8 5 3.38 2.05 0.79 3.32 0.73 5-0.25 1.24-0.71 2.63-2.2 3.09-3.3 0.63-1.47 0.06-3.32-2.14-7-2.86-4.78-2.96-5.33-2.27-12.5 0.48-4.98 0.33-8.51-0.44-10.5-0.64-1.65-4.21-5.93-7.95-9.5-6-5.75-6.92-7.14-7.97-12-0.64-3.03-1.94-6.3-2.87-7.28-0.94-0.98-3.05-1.78-4.7-1.77-2.47 0.02-3.21 0.6-4.18 3.29-0.71 1.94-2.32 3.76-4 4.51-2.02 0.9-4.38 1-8.32 0.37-3.02-0.49-7.41-1.84-9.75-3-4-1.99-4.31-2.02-5.18-0.37-0.76 1.41-2.15 1.72-7.25 1.59-4.73-0.12-7.75-0.88-11.97-3l-5.65-2.84c-2.63 6.83-4.12 8.51-6.64 9.75-2.26 1.11-4.75 1.55-6.81 1.2-1.79-0.3-5.85-1.99-9.02-3.75-3.18-1.76-7.68-4.73-10-6.61-2.33-1.88-6.12-5.76-8.43-8.62-2.31-2.87-4.67-6.62-5.25-8.34-0.58-1.72-1.41-3.13-1.86-3.13-0.44 0-2.32 2.59-4.18 5.75z"/>
		<path id="Path 4" class="s4" d="m199.7 176.75c-0.97 2.06-3.52 5.99-5.67 8.73-2.16 2.73-5.41 6.04-7.22 7.34-2.99 2.14-4.13 2.33-11.81 1.98-7.24-0.33-9.39-0.86-14.5-3.61-3.3-1.77-6.34-3.22-6.75-3.21-0.41 0.01-1.99 0.84-3.5 1.84-1.51 1-5.22 2.89-8.25 4.2-3.93 1.7-7.44 2.39-12.32 2.43l-6.82 0.05c-4.65 11.63-7.15 17.47-8.57 20.5-1.41 3.03-3.91 8.43-5.54 12-1.63 3.57-4.6 9.2-6.6 12.5-2 3.3-3.94 6.22-4.31 6.5-0.37 0.28-2.06 3.09-3.76 6.25l-3.08 5.75c5.04-0.04 9.65-1.59 13.5-3.48 3.85-1.89 9.81-5.93 13.25-8.98 4.27-3.79 7.12-5.55 9-5.58 1.51-0.03 3.29 0.53 3.95 1.25 0.65 0.71 1.33 3.87 1.5 7.02 0.27 5.21 0.48 5.68 2.3 5.11 1.1-0.34 3.91-1.9 6.25-3.48 2.34-1.57 5.6-2.86 7.25-2.86 2.36 0 3.22 0.59 4.03 2.75 0.57 1.51 0.8 4.21 0.5 6-0.38 2.35-0.11 3.39 0.97 3.75 0.82 0.27 2.51-0.12 3.75-0.88 1.24-0.76 3.38-2.48 4.75-3.83 1.38-1.35 3.8-3.99 5.39-5.87 1.6-1.88 3.51-4.88 4.25-6.67 0.75-1.79 3.05-5.07 5.11-7.3 2.06-2.22 4.09-4.02 4.5-4 0.41 0.03 1.43 0.73 2.25 1.55 0.82 0.82 1.51 2.96 1.51 4.75 0.01 1.79 0.88 5.05 1.93 7.25 1.06 2.2 4.09 6.44 6.74 9.43 2.65 2.99 7.52 7.16 10.82 9.28 3.31 2.12 7.23 3.83 8.75 3.82 1.72-0.02 3.32-0.88 4.27-2.28 0.83-1.24 1.7-4.73 1.92-7.75 0.22-3.02 0.44-5.84 0.48-6.25 0.04-0.41 1.32-0.76 2.83-0.78 2.03-0.02 3.61 1.03 6 4 1.79 2.22 5.05 4.93 7.25 6.03 2.2 1.1 5.13 2 6.5 2 2.39 0 2.48-0.21 1.98-4.75-0.28-2.61-0.17-5.32 0.25-6.03 0.42-0.7 1.45-1.05 2.27-0.78 0.82 0.26 2.74 2.3 4.25 4.52 1.79 2.64 4.58 4.92 8 6.57 3.25 1.56 6.58 2.42 8.74 2.25 2.59-0.21 3.58-0.8 3.83-2.28 0.19-1.1-0.18-2.9-0.82-4-0.64-1.1-1.01-2.9-0.82-4 0.2-1.2 1.24-2.1 2.58-2.25 1.28-0.14 3.42 0.84 4.99 2.28 1.95 1.8 3.85 2.53 6.5 2.5 3.4-0.03 3.69-0.24 3.12-2.28-0.34-1.24-1.2-3.37-1.91-4.75-0.7-1.37-2.71-3.85-4.46-5.5-1.75-1.65-5.78-6.6-8.95-11-3.17-4.4-8.08-12.39-10.91-17.75-4.9-9.3-5.29-9.75-8.39-9.73-1.79 0.01-6.18-0.9-9.75-2.02-3.57-1.12-8.13-3.27-10.13-4.77-1.99-1.5-6.72-5.27-10.5-8.38-3.78-3.11-9.79-8.62-13.37-12.26-3.57-3.64-6.74-6.6-7.02-6.6-0.29 0.01-1.32 1.7-2.28 3.76z"/>
	</g>
</svg>