<svg version="1.2" xmlns="http://www.w3.org/2000/svg" viewBox="0 0 919 1241" width="919" height="1241">
	<style>
		.s0 { fill: #1a1a1a } 
		.s1 { fill: #5b7855 } 
		.s2 { fill: #cdcdcd } 
		.s3 { fill: #394f35 } 
		.s4 { fill: #ffffff } 
		.s5 { fill: #4a6444 } 
	</style>
	<g id="Background">
		<path id="Path 0" class="s0" d="m435 19.05c-1.93 0.47-5.75 2.06-8.5 3.55-2.75 1.48-6.8 4.16-9 5.94-2.2 1.78-4.93 4.07-6.06 5.1-1.14 1.02-3.41 3.88-5.06 6.36-1.65 2.48-5.12 9.9-7.71 16.5-3.27 8.32-5.17 15.07-6.19 22-0.82 5.5-1.97 13.83-2.56 18.5-0.59 4.67-2.18 12.78-3.53 18-1.36 5.22-2.93 11.08-3.5 13-0.57 1.93-3.88 9.35-7.35 16.5-3.47 7.15-7.19 15.03-8.27 17.5-1.08 2.47-3.16 10.13-4.63 17-1.46 6.87-3.11 16.78-3.67 22-0.55 5.22-0.73 11.75-0.4 14.5 0.34 2.75 1.25 7.47 2.04 10.5 0.83 3.24 2.85 7.25 4.9 9.75l3.49 4.25c-6.43 17.44-11.19 28.57-14.72 36-3.53 7.43-8.12 16.88-10.2 21-2.09 4.12-5.26 10.2-7.05 13.5-1.8 3.3-4.11 7.24-5.15 8.75-1.03 1.51-1.88 2.98-1.88 3.25 0 0.27-2.12 3.76-4.7 7.75-2.59 3.99-6.87 10.51-9.5 14.5-2.64 3.99-5.08 8.71-5.41 10.5-0.34 1.79-0.28 5.05 0.12 7.25 0.41 2.26 1.87 5.12 3.36 6.58 1.45 1.42 3.26 2.77 4.04 3 0.95 0.28-1.32 3.68-7 10.49-4.63 5.53-10.43 13.41-12.9 17.5-2.48 4.08-6.25 12.38-8.38 18.43-2.86 8.11-5.69 13.69-10.76 21.25-3.78 5.64-6.87 10.48-6.87 10.75 0 0.27-0.83 1.74-1.84 3.25-1.02 1.51-3.03 4.55-4.48 6.75-1.45 2.2-4 7.49-5.66 11.75-1.93 4.97-3.25 10.53-3.66 15.5-0.41 4.98-0.19 9.72 0.63 13.25 0.7 3.02 2.49 8.2 3.98 11.5 1.48 3.3 4.8 8.14 7.36 10.75 2.57 2.61 6.69 5.65 9.17 6.75 2.48 1.1 4.51 2.34 4.52 2.75 0.01 0.41-3.03 4.84-6.75 9.84-3.72 5-8.79 11.75-11.25 15-2.47 3.25-5.17 6.64-6 7.53-0.84 0.89-6.7 6.92-13.02 13.39-6.32 6.47-13.53 13.38-16 15.35-2.47 1.97-9 7.41-14.5 12.09-5.5 4.68-12.48 10.99-15.52 14.03-3.03 3.03-6.84 7.32-8.45 9.52-2.01 2.74-2.95 5.22-2.98 7.86-0.04 3.13 0.55 4.36 3.08 6.5 1.72 1.45 5.09 3.25 7.5 4 2.4 0.76 5.94 1.56 7.87 1.79 1.93 0.24 8-0.06 13.5-0.67 5.5-0.6 10.68-1.21 11.5-1.35 0.82-0.15 2.85-0.61 4.5-1.03 1.65-0.42 4.69-1.41 6.75-2.19 2.06-0.77 4.2-1.41 4.75-1.41 0.55 0-0.35 2.48-2 5.5-1.65 3.02-3 6.85-3 8.5 0 2.1 1.06 4.06 3.5 6.5 2.56 2.56 3.16 3.72 2.25 4.33-0.69 0.46-2.6 1.35-4.25 1.98-1.65 0.63-3.9 2.07-5 3.2-1.1 1.13-2.45 2.03-3 1.99-0.55-0.04-3.5 2.54-6.56 5.72-3.06 3.18-7.36 8.48-9.56 11.78-2.19 3.3-5.37 9.15-7.06 13-1.69 3.85-4.02 10.83-5.17 15.5-1.15 4.67-2.34 13.23-2.63 19-0.29 5.77-1.25 12.98-2.13 16-0.88 3.02-2.3 6.85-3.16 8.5-0.86 1.65-2.05 3.5-2.64 4.1-0.6 0.61-3.56 3.72-6.59 6.92-3.03 3.2-7.06 6.98-8.97 8.4-1.9 1.42-4.15 3.17-5 3.89-0.84 0.72-4.46 3.55-8.03 6.29-3.57 2.75-8.25 6.43-10.4 8.2-2.14 1.76-4.61 3.61-5.5 4.11-0.88 0.5-3.85 2.75-6.6 5-2.75 2.25-5.45 4.43-6 4.86-0.55 0.42-2.16 1.77-3.57 3-1.42 1.22-4.57 4.05-7 6.27-2.44 2.21-7.05 7.16-10.24 11-3.2 3.83-7.15 8.54-8.78 10.46-1.63 1.92-2.94 3.95-2.9 4.5 0.05 0.55-0.66 1.67-1.56 2.5-0.91 0.83-2.98 3.75-4.6 6.5-1.63 2.75-4.35 7.25-6.05 10-1.71 2.75-4.56 7.92-6.35 11.5-1.79 3.58-3.93 9.88-4.75 14-0.83 4.13-1.76 11.55-2.08 16.5-0.31 4.95-0.16 11.92 0.33 15.5 0.5 3.58 1.33 8.3 1.84 10.5 0.52 2.2 2.39 7.6 4.17 12 1.78 4.4 5.33 11.11 7.89 14.9 2.56 3.8 7.12 9.1 10.15 11.77 3.03 2.67 7.41 5.87 9.75 7.1 2.34 1.22 4.25 2.57 4.25 2.98 0 0.41-1.79 3.11-3.97 6-2.19 2.89-5 6.59-6.25 8.23-1.26 1.63-7.91 8.61-14.78 15.5-6.88 6.9-20.6 20.26-30.5 29.7-9.9 9.43-19.56 18.43-21.47 19.99-1.9 1.56-4.92 4.18-6.69 5.83-1.77 1.65-4.94 4.59-7.03 6.54-2.1 1.94-4.71 4.19-5.81 5-1.1 0.8-3.46 3.15-5.25 5.21-2.43 2.8-3.25 4.7-3.25 7.5 0.01 2.06 0.91 5.21 2 7 1.1 1.79 3.46 4.35 5.25 5.69 1.79 1.35 5.27 3.19 7.75 4.11 2.47 0.91 8.1 1.78 12.5 1.94 4.4 0.16 10.47-0.17 13.5-0.73 3.02-0.56 7.19-1.63 9.25-2.39 2.06-0.75 4.2-1.37 4.75-1.37 0.55 0 1 1.13 1 2.5 0 1.38 1.24 3.93 2.75 5.67 1.51 1.75 4.55 3.99 6.75 4.98 2.2 0.99 6.03 1.79 8.5 1.77 2.47-0.02 7.42-0.84 11-1.82 3.57-0.98 7.17-2.08 8-2.45 1.23-0.55 1.44 0.1 1.17 3.59-0.26 3.29 0.19 4.93 2 7.19 1.28 1.61 3.79 3.52 5.58 4.25 1.79 0.72 6.29 1.32 10 1.32 4.72-0.01 8.78-0.76 13.5-2.5l6.75-2.5c2.32 5.42 4.69 8.12 6.75 9.5 2.17 1.44 6.49 2.94 10.25 3.56 3.57 0.59 9.87 0.84 14 0.57 4.12-0.27 8.62-0.8 10-1.16 1.37-0.36 5.65-2.19 9.5-4.07 3.85-1.87 9.11-4.64 11.69-6.15 2.58-1.51 5.84-3.76 7.25-5 1.41-1.24 2.79-2.14 3.08-2 0.29 0.14-0.69 2.72-2.17 5.75-1.49 3.03-2.96 7.58-3.27 10.13-0.54 4.29-0.33 4.87 2.92 8.12 2.04 2.05 5.37 4.03 8 4.77 2.47 0.69 7.2 1.2 10.5 1.13 3.3-0.08 9.15-0.88 13-1.78 3.85-0.9 9.93-3 13.5-4.67 3.57-1.66 8.52-4.54 11-6.39 2.48-1.86 4.73-3.36 5-3.34 0.27 0.03 1.29 1.39 2.25 3.04 0.96 1.64 3.1 3.66 4.75 4.49 1.65 0.83 4.69 1.66 6.75 1.86 2.31 0.22 6.06-0.53 9.75-1.96l6-2.32c2.71 3.81 4.4 5.14 5.5 5.42 1.75 0.44 1.2 1.36-4.25 7.28-3.44 3.73-7.55 9.24-9.14 12.25-1.65 3.14-2.93 7.18-3 9.49-0.08 2.94 0.75 5.37 3.06 9q3.16 4.98 8 7.64c2.66 1.46 6.85 3.23 9.33 3.93 3.09 0.87 13.25 1.3 32.5 1.38 23.43 0.1 29.06 0.41 34.5 1.89 3.57 0.97 13.48 5.08 22 9.13 10.67 5.07 18.93 8.23 26.5 10.14 9.3 2.35 13.09 2.78 24.5 2.8 10.21 0.02 14.84-0.4 19-1.74 3.02-0.97 6.4-2.14 7.5-2.59 1.1-0.44 5.04-2.23 8.75-3.96 3.71-1.73 6.98-3.14 7.25-3.14 0.27 0 3.09-1.17 6.25-2.61 3.16-1.43 7.33-3.32 9.25-4.2 1.92-0.87 3.73-1.87 4-2.21 0.27-0.34 2.41-1.37 4.75-2.3 2.34-0.92 7.51-2.55 11.5-3.61 6.4-1.71 9.48-1.87 26.25-1.37 15.75 0.47 20.11 0.28 25.5-1.09 3.58-0.91 9.65-3.18 13.5-5.05 3.89-1.89 9.17-5.54 11.88-8.23 2.68-2.66 6.18-7.53 7.76-10.83 2.15-4.48 2.88-7.46 2.87-11.75l-0.01-5.75c6.59 4.53 11.2 7.08 14.5 8.58 3.62 1.65 8.38 2.91 12 3.17 4.08 0.29 7.2-0.08 9.75-1.16 2.09-0.89 4.62-3.03 5.72-4.84 1.16-1.92 1.98-5.09 2-7.75 0.02-2.47-0.42-5.96-0.97-7.75-0.89-2.89-0.8-3.18 0.75-2.64 0.96 0.34 4.23 1.53 7.25 2.65 3.02 1.11 8.65 2.76 12.5 3.67 5.15 1.2 8.58 1.43 13 0.84 3.3-0.44 7.01-1.47 8.25-2.29 1.24-0.81 2.66-2.49 3.17-3.73 0.55-1.37 0.55-4.02-0.01-6.75-0.52-2.47-0.82-4.61-0.67-4.75 0.14-0.13 2.06 0.37 4.26 1.12 2.2 0.75 7.15 1.93 11 2.62 4.04 0.72 11.22 1.06 17 0.8 7.16-0.32 11.08-0.99 13.81-2.37 2.09-1.06 4.05-2.82 4.35-3.92 0.29-1.1-0.07-4.3-0.81-7.12-1.32-4.99-1.3-5.09 0.65-4.09 1.1 0.56 6.5 2.56 12 4.45 5.5 1.89 13.37 4.11 17.5 4.92 4.17 0.83 13.05 1.5 20 1.51 6.87 0.01 16.1-0.51 20.5-1.15 4.4-0.65 9.8-1.69 12-2.31 2.2-0.63 4.9-1.61 6-2.18 1.1-0.57 3.13-1.83 4.5-2.8 2.31-1.63 2.5-2.37 2.46-9.5-0.04-6.39-0.52-8.64-2.75-12.98-2.4-4.66-2.51-5.26-0.96-5.32 0.96-0.03 3.89-0.26 6.5-0.5 2.61-0.24 6.33-1.1 8.25-1.93 2.09-0.9 4.15-2.81 5.12-4.75 1.09-2.19 1.41-4.48 1-7-0.34-2.06-0.28-3.79 0.13-3.83 0.41-0.05 2.1-0.28 3.75-0.51 1.65-0.24 6.6-1.41 11-2.61 4.4-1.19 9.06-3.1 10.35-4.24 1.28-1.13 3.03-3.41 3.88-5.06 1.14-2.23 1.37-4.53 0.88-9-0.36-3.3-1.64-8.03-2.84-10.5-1.2-2.47-4.71-6.97-7.79-10-3.08-3.03-8.5-7.29-12.04-9.47-3.54-2.18-10.49-7.12-15.44-10.97-4.95-3.85-13.95-11.53-20-17.06-6.05-5.54-13.27-12.53-16.05-15.53-2.78-3.01-8.66-9.74-13.07-14.97-4.41-5.23-10.7-13.1-13.97-17.5-3.27-4.4-6.96-9.46-8.18-11.25l-2.23-3.25c4.96-4.26 7.43-6.51 8.7-7.75 1.26-1.24 2.59-3.94 2.94-6 0.35-2.06 0.34-6.9-0.03-10.75-0.36-3.85-1.55-9.92-2.65-13.5l-1.99-6.5c4.29-4.64 5.98-6.19 6.53-6.46 0.55-0.26 1.84-1.39 2.86-2.51 1.02-1.11 2.75-4.05 3.85-6.53 1.47-3.35 2.08-7.32 2.35-15.5 0.34-10.12 0.17-11.44-2.18-16.5-1.41-3.02-3.78-7.08-5.28-9-1.5-1.92-5.4-7.69-8.66-12.82-3.64-5.71-10.76-14.42-18.4-22.5-6.85-7.25-14.36-14.76-16.69-16.68-2.33-1.92-6.35-5.08-8.93-7-2.58-1.92-6.93-5.75-9.67-8.5-2.73-2.75-6.64-7.25-8.69-10-2.04-2.75-5.35-8.15-7.34-12-1.99-3.85-5.03-10.6-6.75-15-1.72-4.4-4.62-11.15-6.44-15-1.82-3.85-5.24-9.92-7.59-13.5-2.36-3.58-7.83-10.1-12.15-14.5-4.33-4.4-7.85-8.56-7.83-9.25 0.03-0.95 0.83-1.01 3.29-0.25 1.79 0.55 6.4 0.99 10.25 0.98 3.85-0.01 8.74-0.57 10.86-1.25 2.13-0.67 5.33-2.58 7.13-4.23 2.13-1.96 3.82-4.91 4.88-8.5 1.28-4.36 1.42-6.85 0.67-12-0.51-3.58-1.41-7.74-1.99-9.25-0.58-1.51-0.78-3.76-0.45-5 0.33-1.27-0.16-3.77-1.14-5.75-0.96-1.92-2.91-4.86-4.35-6.51-1.43-1.66-6.88-6.88-12.11-11.59-5.23-4.72-12.27-11.47-15.66-14.99-3.39-3.53-8.72-9.56-11.85-13.41-3.13-3.85-6.77-8.24-8.09-9.75-1.32-1.51-4.2-5.34-6.4-8.5-2.21-3.16-6.71-9.58-10.01-14.25l-6-8.5c6.98-2.71 10.37-4.96 12.03-6.75 1.66-1.79 4.2-5.73 5.64-8.75 2.54-5.32 2.61-5.95 2.13-19.5-0.37-10.5-1.02-15.63-2.61-20.5-1.23-3.79-4.58-10.04-8.03-15-3.52-5.06-6.22-10.12-6.67-12.5-0.41-2.2-1.89-6.93-3.28-10.5-1.4-3.57-4.04-8.86-5.87-11.75-1.83-2.89-5.02-7.07-7.08-9.3-2.06-2.24-5.77-5.54-8.25-7.35-2.48-1.81-8.08-4.6-12.46-6.2-4.39-1.59-9.08-3.8-10.44-4.9-1.35-1.1-5.68-6.05-9.62-11-3.93-4.95-7.9-10.46-8.81-12.25-0.92-1.79-1.68-3.36-1.69-3.5-0.01-0.14 1.79-0.59 4-1 2.21-0.41 5.26-1.53 6.77-2.49 1.51-0.95 3.21-2.19 3.76-2.75 0.56-0.55 1.73-2.13 2.6-3.51 0.87-1.37 1.88-4.86 2.24-7.75 0.42-3.36 0.11-7.59-0.85-11.75-0.83-3.57-2.45-8.41-3.62-10.75-1.17-2.34-3.75-6.25-5.75-8.7-2-2.45-4.1-4.92-4.68-5.5-0.57-0.58-2.43-3.07-4.12-5.55-1.69-2.48-5.82-10.13-9.18-17-3.36-6.87-7.94-17.45-10.16-23.5-2.23-6.05-5.6-16.4-7.5-23-1.9-6.6-3.46-12.79-3.47-13.75-0.01-0.96 0.72-3.21 1.63-5 0.9-1.79 2.3-6.18 3.11-9.75 0.8-3.57 1.8-11 2.22-16.5 0.42-5.62 0.34-12.41-0.18-15.5-0.52-3.03-2.09-9.32-3.5-14-1.4-4.68-3.81-10.97-5.34-14-1.54-3.03-5-7.97-7.69-11-2.7-3.03-7.01-6.74-9.59-8.25-3.89-2.29-5-3.64-6.58-8-1.04-2.89-2.67-10.43-3.62-16.75-0.94-6.33-2.56-13.97-3.6-17-1.04-3.03-3.35-8.41-5.13-11.97-2.11-4.2-5.88-9.12-10.75-14-4.84-4.86-9.89-8.77-14.24-11.03-4.41-2.29-7.08-4.36-7.71-6-0.53-1.37-1.26-4.3-1.62-6.5-0.36-2.2-1.54-7.37-2.62-11.5-1.07-4.12-3.52-10.42-5.42-14-1.9-3.58-4.23-7.43-5.17-8.56-0.95-1.13-3.97-3.63-6.72-5.56-2.75-1.93-7.36-4.05-10.25-4.7-2.89-0.65-6.26-1.13-7.5-1.08-1.24 0.06-3.82 0.49-5.75 0.95z"/>
		<path id="Path 1" class="s1" d="m485.88 203.75c-1.42 1.51-3.67 4.33-4.99 6.26-1.31 1.93-3.96 5.23-5.89 7.33-1.93 2.1-5.52 5.14-8 6.74-4 2.59-5.11 2.85-10 2.36-3.02-0.3-7.3-1.38-9.5-2.38-2.2-1.01-6.81-4.13-10.25-6.95-3.44-2.81-7.04-5.12-8-5.14-0.96-0.02-4.23 2.17-7.25 4.85-3.02 2.68-8.54 7.87-12.25 11.53-4.37 4.31-9.3 7.93-14 10.29-6.02 3.03-8.38 3.66-13.87 3.75l-6.61 0.11c-2.76 10.85-5.09 18.73-6.96 24.5-1.87 5.77-4.01 11.85-4.75 13.5-0.74 1.65-2.36 5.25-3.59 8-1.23 2.75-5.04 10.63-8.45 17.5-3.42 6.88-7.63 15.09-9.37 18.25-1.73 3.16-7.35 12.16-12.48 20-5.13 7.84-9.63 15.26-10 16.5-0.56 1.89-0.35 2.17 1.33 1.75 1.1-0.27 3.01-0.78 4.25-1.13 1.24-0.35 5.4-2.13 9.25-3.96 3.85-1.83 8.66-4.58 10.69-6.12 2.02-1.53 6.86-5.38 10.75-8.54 3.88-3.16 7.85-5.77 8.81-5.79 0.96-0.03 2.28 0.53 2.92 1.25 0.64 0.71 1.46 2.42 1.81 3.79 0.39 1.51-0.2 5.08-1.5 9-1.19 3.57-2.85 8.07-3.7 10-0.85 1.93-1.82 3.93-2.16 4.45-0.38 0.59 0.72 0.68 2.88 0.22 1.93-0.4 7.1-2.54 11.5-4.74 4.46-2.24 8.77-3.78 9.75-3.47 0.96 0.3 1.76 1.33 1.77 2.29 0.02 0.96-0.66 3.44-1.5 5.5-0.83 2.06-1.52 4.65-1.52 5.75 0 1.1 0.9 2.45 2 3 1.43 0.71 3.65 0.53 7.75-0.62 3.16-0.89 8.11-3.37 11-5.5 2.89-2.14 7.39-6.23 10-9.1 2.61-2.87 6.89-7.37 9.5-10 3.68-3.71 5.48-4.79 8-4.82 1.79-0.03 3.93 0.68 4.75 1.58 1.23 1.33 1.27 1.98 0.25 3.54-0.69 1.06-1.25 4.96-1.25 8.67 0 4.42 0.61 7.96 1.75 10.25 0.96 1.93 2.65 3.64 3.75 3.82 1.25 0.2 3.88-1.34 7-4.1 3.95-3.48 6.21-6.86 10.75-16.07 3.52-7.13 6.33-11.65 7.25-11.65 0.82 0 2.05 1.24 2.73 2.75 0.67 1.51 3.46 5.9 6.19 9.75 2.73 3.85 7.24 9.65 10.02 12.89 2.79 3.23 8.21 7.92 12.06 10.41 3.85 2.48 9.02 5.13 11.5 5.89 2.48 0.75 5.63 1.1 7 0.79 1.38-0.32 3.51-1.46 4.75-2.53 1.25-1.08 2.5-3.61 2.82-5.7 0.46-2.98-0.04-4.89-2.42-9.25-1.74-3.18-2.83-6.45-2.58-7.75 0.33-1.74 1.11-2.25 3.43-2.25 2.27 0 4.52 1.41 9.25 5.81 3.44 3.19 8.73 7.44 11.75 9.43 3.02 1.99 6.4 3.7 7.5 3.8 1.1 0.11 2.79 0.14 3.75 0.08 1.55-0.11 1.66-0.81 1-6.13-0.57-4.54-0.44-6.01 0.5-6 0.69 0.01 2.38 0.46 3.75 1.01 1.38 0.55 3.4 2.8 4.5 5 1.42 2.84 2.94 4.3 5.25 5.02 1.79 0.56 4.83 0.99 6.75 0.96 2.11-0.03 5.06-1.12 7.43-2.76 2.36-1.64 4.25-3.91 4.75-5.72 0.45-1.65 0.54-5.02 0.19-7.5-0.35-2.48-1.41-6.07-2.37-8-0.96-1.93-3.67-5.75-6.03-8.5-2.37-2.75-6.32-8.15-8.78-12-2.47-3.85-6.6-11.5-9.19-17-2.58-5.5-6.1-13.82-7.81-18.5-1.7-4.68-4.21-12.1-5.57-16.5-1.35-4.4-3.28-10.87-4.29-14.38-1.01-3.5-2.06-6.52-2.33-6.7-0.27-0.19-1.85 0.05-3.5 0.53-1.87 0.54-4.69 0.44-7.5-0.27-2.97-0.75-6.2-2.71-9.5-5.75-2.89-2.67-7.8-9.23-11.62-15.53-3.64-5.99-9.49-16.19-13-22.66-3.82-7.03-6.99-11.75-7.89-11.75-0.83 0.01-2.68 1.25-4.11 2.76z"/>
		<path id="Path 2" class="s2" d="m479.86 183.33c-1.45 0.64-5.66 3.87-9.35 7.17-3.68 3.3-7.89 6.54-9.35 7.2-1.46 0.67-4.46 1.23-6.66 1.25-2.2 0.02-5.8-0.46-8-1.06-2.2-0.6-6.93-3.02-10.5-5.37-3.58-2.35-7.4-4.57-8.5-4.92-1.1-0.36-3.8-0.69-6-0.74-2.95-0.06-6.49 1.21-13.5 4.84-5.23 2.71-12.43 5.91-16 7.12-3.58 1.21-8.19 2.19-10.25 2.19-2.06-0.01-4.65-0.46-5.75-1.01-1.1-0.55-2.82-2.91-3.83-5.25l-1.82-4.25c-2.14 10.07-2.78 17.5-2.81 23-0.03 8.06 0.35 10.78 1.96 14 1.1 2.2 2.67 4.15 3.5 4.32 0.82 0.18 3.98-0.15 7-0.74 3.41-0.67 7.97-2.67 12-5.27 3.57-2.31 10.69-8.27 15.8-13.25 5.12-4.98 10.29-9.57 11.5-10.19 1.21-0.62 3.55-1.43 5.2-1.79 1.81-0.4 4.39-0.08 6.5 0.8 1.92 0.8 5.92 3.63 8.87 6.29 2.95 2.65 7.34 5.62 9.75 6.58 3.44 1.37 5.08 1.53 7.63 0.73 1.79-0.57 4.32-2.03 5.64-3.25 1.31-1.23 5.7-6.39 9.75-11.48 4.05-5.09 8.3-9.73 9.46-10.33 1.22-0.62 3.82-0.78 6.25-0.38 3.13 0.51 5.14 1.75 8.15 4.98 2.2 2.37 5.12 6.48 6.5 9.14 1.37 2.66 5.59 10.46 9.37 17.34 3.78 6.87 8.51 14.93 10.5 17.9 2 2.97 4.87 6.23 6.38 7.25 2.6 1.75 2.92 1.76 6 0.17 1.79-0.92 4.72-3.28 6.52-5.25 1.9-2.06 3.95-5.89 4.87-9.07 1.08-3.71 1.63-9.89 1.69-19 0.08-10.24-0.31-14.83-1.63-19-0.95-3.03-2.13-6.18-2.62-7-0.68-1.14-1.07-0.66-1.6 2-0.39 1.92-1.39 5.52-2.21 8-0.83 2.47-2.47 5.82-3.64 7.42-1.17 1.61-4.04 3.75-6.38 4.75-2.34 1.01-5.15 1.83-6.25 1.83-1.1 0-3.24-0.7-4.75-1.55-1.52-0.86-4.54-4.7-6.75-8.58-2.2-3.86-5.8-8.85-8-11.08-2.2-2.23-5.8-4.89-8-5.9-2.29-1.06-6.14-1.82-9-1.79-2.75 0.04-6.19 0.59-7.64 1.23zm-12.26 177.95c-1.05 2.87-3 7.02-4.35 9.22-1.34 2.2-4.54 5.46-7.1 7.24-2.56 1.79-6.23 3.53-8.15 3.87-2.32 0.42-4.6 0.08-6.75-0.99-1.79-0.89-3.25-1.17-3.25-0.62 0 0.55 1.01 1.65 2.25 2.44 1.24 0.79 4.5 1.75 7.25 2.12 4.18 0.57 5.94 0.25 10.75-1.94 3.88-1.77 6.37-3.68 7.65-5.87 1.05-1.79 2.63-3.59 3.5-4 1.12-0.53 2.86 0.46 5.85 3.32 2.34 2.24 7.17 6.01 10.75 8.37 3.57 2.36 9.09 5.26 12.25 6.43 3.16 1.17 6.54 2.12 7.5 2.11 1.13-0.01 0.52-0.77-1.75-2.15-1.93-1.18-5.92-3.76-8.88-5.74-2.95-1.97-7.45-5.86-10-8.63-2.54-2.78-6.83-8.18-9.52-12-2.7-3.83-5.17-7.28-5.5-7.68-0.33-0.39-1.46 1.63-2.5 4.5zm-115.05-1.28c-0.3 0.55-3.14 2.65-6.3 4.66-3.16 2.01-6.31 4.26-7 5-0.69 0.74-0.91 1.56-0.5 1.82 0.41 0.26 2.1 0.18 3.75-0.18 1.65-0.37 4.12-1.25 5.5-1.98 1.37-0.72 3.17-1.31 4-1.31 1.09-0.01 1.54-1.25 1.66-4.51 0.08-2.48-0.01-4.5-0.2-4.5-0.2 0-0.61 0.45-0.91 1zm70.27 8.93c-3.48 3.64-8.8 8.06-11.82 9.82-3.02 1.76-8.43 3.81-12 4.56l-6.5 1.36c11.54 1.14 14.73 0.91 17.75-0.12 2.34-0.8 6.5-2.66 9.25-4.13 2.75-1.48 5.47-3.19 6.05-3.8 0.58-0.62 2.27-2.13 3.75-3.37 2.65-2.21 2.68-2.32 1.27-6.59l-1.44-4.34zm-65.94 4.88c0.04 0.38 1.25 1.81 2.69 3.19 2.22 2.12 3.55 2.5 8.91 2.5 4.63 0 6.8-0.47 8.16-1.76 1.03-0.96 2.21-1.41 2.63-1 0.41 0.42 0.53-0.26 0.25-1.49-0.28-1.24-0.63-2.25-0.76-2.24-0.14 0.01-2.05 0.67-4.25 1.46-2.2 0.79-5.8 1.46-8 1.48-2.2 0.02-5.29-0.61-6.85-1.4-1.57-0.79-2.82-1.12-2.78-0.74zm179.71 5.44c0.27 0.68 0.03 2.48-0.54 4-1.01 2.66-0.88 2.81 3.96 4.75 2.75 1.1 7.13 1.99 9.75 1.97 2.61-0.01 6.55-0.85 8.75-1.85l4-1.83c-6.2-0.08-10.48-1.12-13.5-2.37-3.03-1.25-6.74-3.1-8.25-4.1-1.52-1-3.18-1.82-3.71-1.82-0.52 0-0.73 0.56-0.46 1.25zm28.92 4.24l-2 2.26c5.42 2.57 7.07 3.18 7.17 3.03 0.09-0.16-0.13-1.82-0.5-3.69-0.37-1.88-1.12-3.52-1.67-3.64-0.55-0.13-1.9 0.79-3 2.04zm-57 37.15c-1.65 0.86-4.73 2.76-6.85 4.21-2.11 1.46-5.95 5.57-8.53 9.15-2.58 3.57-5.75 8.97-7.03 12-1.29 3.02-4.75 10.45-7.69 16.5-2.94 6.05-7.04 13.1-9.12 15.67-2.08 2.56-5.58 5.48-7.78 6.48-3.05 1.38-6.04 1.75-12.5 1.57-6.03-0.17-9.82 0.25-13 1.44-2.48 0.92-4.95 1.99-5.5 2.37-0.55 0.37-4.38 1.97-8.5 3.54-6.41 2.44-8.89 2.84-17 2.8-8.2-0.05-10.33-0.44-15.5-2.83-3.3-1.53-8.25-4.77-11-7.2-2.75-2.44-8.38-6.09-12.5-8.11-6.13-3-8.88-3.75-15-4.07-4.97-0.26-9.7 0.17-14 1.28-3.58 0.93-9.65 3.06-13.5 4.74-3.85 1.68-9.25 3.93-12 4.98-2.75 1.06-9.05 2.8-14 3.87-4.95 1.06-11.7 1.95-15 1.96-3.73 0.01-6.86-0.55-8.25-1.49-1.24-0.82-3.13-2.97-4.19-4.75l-1.94-3.25c-1.89 6.97-2.45 11.92-2.46 15.5-0.02 5.02 0.56 7.63 2.53 11.5 1.41 2.75 4.41 6.68 6.68 8.75 2.27 2.06 5.81 4.19 7.88 4.74 2.06 0.55 7.01 1 11 1 4.65 0.01 9.48-0.73 13.5-2.06 3.43-1.13 11.2-4.51 17.25-7.5 6.05-2.98 13.92-7.03 17.5-8.99 3.57-1.95 7.62-4.6 9-5.88 1.37-1.27 3.51-2.82 4.75-3.44 1.23-0.62 4.83-1.22 8-1.34 4.52-0.18 6.92 0.35 11.25 2.47 3.16 1.56 9.31 6.32 14.5 11.24 7.64 7.24 9.75 8.7 14 9.66 2.75 0.62 6.12 0.85 7.5 0.52 1.37-0.33 5.42-2.49 9-4.8 3.57-2.31 7.85-4.58 9.5-5.04 1.65-0.46 4.57-0.82 6.5-0.81 1.92 0.01 6.2 1.21 9.5 2.65 3.3 1.44 7.57 2.69 9.5 2.77 1.92 0.08 5.71-0.77 8.42-1.9 3.18-1.32 6.67-3.98 9.87-7.54 2.72-3.03 6.25-8.32 7.83-11.75 1.58-3.44 4.23-10.19 5.89-15 1.66-4.82 4.09-11.45 5.41-14.75 1.32-3.3 3.41-8.7 4.64-12 1.24-3.3 3.27-8.25 4.51-11 1.25-2.75 4.33-6.92 6.85-9.25 4.23-3.93 4.99-4.25 10.08-4.25 3.02 0 7.38 0.78 9.68 1.75 2.6 1.08 5.46 3.45 7.55 6.25 1.87 2.49 4.49 8.07 5.88 12.5 1.37 4.4 3.83 14.97 5.45 23.5 1.62 8.52 3.9 19.55 5.05 24.5 1.16 4.95 2.99 11.25 4.07 14 1.07 2.75 3.39 6.46 5.14 8.24 1.74 1.79 5.2 3.99 7.68 4.9 3.52 1.29 6.11 1.49 12 0.91 4.12-0.4 12.22-0.8 18-0.89 9.15-0.14 11.13 0.14 15.5 2.2 2.75 1.29 6.57 3.52 8.5 4.94 1.92 1.42 5.07 3.21 7 3.98 2.27 0.92 5.07 1.18 8 0.77 2.47-0.35 5.62-1.06 7-1.58 1.37-0.51 4.3-3.5 6.5-6.64l4-5.7c-0.24-20.55-0.73-24.36-2.32-28.63-1.13-3.03-2.76-6.07-3.62-6.75-1.33-1.07-1.65-0.84-2.16 1.5-0.33 1.51-1.85 4.55-3.36 6.75-1.52 2.2-4.4 5.46-6.4 7.25-2.01 1.78-5.56 4.21-7.89 5.38-3.68 1.84-5.48 2.07-13.25 1.67-7.84-0.41-10.17-0.99-18-4.54-4.95-2.24-11.48-4.76-14.5-5.6-3.03-0.85-7.35-2.58-9.61-3.85-2.26-1.27-5.97-4-8.25-6.06-2.28-2.07-4.99-5.44-6.03-7.5-1.04-2.07-3.78-9.15-6.1-15.75-2.32-6.6-5.86-15.35-7.87-19.45-2.32-4.74-5.82-9.68-9.64-13.6-4.43-4.53-7.52-6.71-11.75-8.3-3.17-1.18-7.44-2.13-9.5-2.11-2.07 0.02-5.1 0.74-6.75 1.6zm-215.08 239.36c-1.61 0.95-8.32 3.55-14.92 5.78-6.6 2.23-14.7 5.35-18 6.93-3.3 1.58-7.13 3.49-8.5 4.24-2.39 1.3-2.42 1.4-0.5 2.14 1.1 0.42 4.25 0.79 7 0.83 2.75 0.03 7.92-0.44 11.5-1.05 3.57-0.61 7.17-1.72 8-2.47 0.82-0.74 2.51-1.36 3.75-1.38 1.23-0.01 2.47-0.47 2.75-1.02 0.27-0.55 0.83-0.8 1.25-0.55 0.41 0.24 2.21-0.43 4-1.5 1.78-1.08 3.92-1.95 4.75-1.95 1.12 0 1.57-1.44 1.79-5.75 0.17-3.17 0.25-5.8 0.18-5.87-0.07-0.06-1.45 0.66-3.05 1.62zm70.42 15.55c-0.74 0.85-1.68 1.52-2.09 1.49-0.42-0.02-2.55 1.08-4.75 2.46-2.2 1.37-5.92 3.12-8.25 3.89-2.34 0.76-5.6 1.71-7.25 2.09-1.65 0.39-7.05 0.9-12 1.13-4.95 0.22-11.7-0.08-15-0.67-3.3-0.6-7.02-1.73-8.25-2.52-1.24-0.78-2.27-1.09-2.28-0.67-0.01 0.41 1 1.71 2.25 2.88 1.25 1.17 3.63 2.8 5.28 3.62 1.65 0.81 6.15 2.08 10 2.8 6.11 1.16 8.07 1.11 15.5-0.36 4.67-0.92 10.3-1.7 12.5-1.72 2.2-0.02 6.47-0.63 9.5-1.35 3.02-0.72 6.4-1.82 7.5-2.44 1.1-0.62 2.37-0.8 2.82-0.41 0.45 0.4 0.12-0.62-0.74-2.27-0.87-1.65-1.53-4.21-1.48-5.69 0.06-1.48-0.35-2.94-0.9-3.24-0.56-0.3-1.61 0.14-2.36 0.98zm57.16 6.69c-1.38 1.72-4.87 4.62-7.75 6.44-2.89 1.83-8.29 4.45-12 5.84-3.72 1.39-7.54 2.51-8.5 2.5-0.97-0.01-1.75 0.43-1.75 0.98 0 0.55 1.91 1.32 4.25 1.71 2.33 0.4 6.95 0.59 10.25 0.42 3.3-0.16 8.7-1.17 12-2.24 4.63-1.5 6.08-1.65 6.37-0.67 0.2 0.7 3.57 4.47 7.5 8.37 4.52 4.51 9.5 8.29 13.63 10.36 3.57 1.79 8.75 3.49 11.5 3.78l5 0.53c-11.63-7.76-17.11-12.21-19.69-14.89-2.57-2.68-7.2-8.92-10.28-13.87-3.08-4.95-5.81-9.79-6.07-10.75-0.25-0.97-0.8-1.73-1.21-1.7-0.42 0.03-1.88 1.47-3.25 3.19zm232.55 9.51c0.22 3.16 0.74 6.05 1.17 6.42 0.43 0.37 4.38 1.4 8.78 2.29 4.4 0.89 9.35 1.35 11 1.01 1.65-0.34 5.25-1.29 8-2.11 2.75-0.83 5.97-2.04 7.15-2.68 2.15-1.17 2.14-1.21-1.22-4.68l-3.39-3.5c-8.36 1.97-12.82 2.22-16.04 1.86-3.03-0.35-7.62-1.47-10.21-2.5-2.59-1.02-4.91-1.86-5.16-1.86-0.25 0-0.29 2.58-0.08 5.75zm-159.76 6.2c-0.24 6.81 0.02 8.74 1.35 10 0.91 0.85 4.51 2.97 8 4.7 3.5 1.74 7.48 3.49 8.86 3.89 1.37 0.39 5.53 0.66 9.25 0.59 3.71-0.07 7.31-0.43 8-0.79 0.7-0.37-1.16-1.38-4.25-2.31-3.03-0.9-8.2-3.46-11.5-5.68-3.3-2.23-9.02-7.38-12.71-11.45l-6.71-7.4zm90.57-3.11c0.31 0.45 0.69 2.48 0.85 4.5 0.17 2.11 0.82 3.66 1.54 3.66 0.68 0 3.38 1.33 6 2.96 2.61 1.62 8.12 3.87 12.25 5 4.12 1.12 9.86 2.04 12.75 2.04 3.28 0 7.14-0.85 10.29-2.25 2.77-1.24 5.02-2.48 5-2.75-0.03-0.28-2.18-0.34-4.79-0.14-2.62 0.2-7.23-0.17-10.25-0.83-3.03-0.65-8.88-2.31-13-3.69-4.13-1.38-10.32-4.04-13.75-5.92-3.44-1.88-6.52-3.42-6.85-3.42-0.34 0-0.35 0.38-0.04 0.84zm-36.36 7.83c-0.55 2.38-1.68 5-2.5 5.83-1.34 1.33-0.75 1.72 5.25 3.49 4 1.19 9.59 1.99 13.75 1.97 5.5-0.02 7.48-0.45 9.25-1.99 1.23-1.09 2.25-2.2 2.25-2.47 0-0.28-0.79-0.5-1.75-0.49-0.97 0-4.45-0.89-7.75-1.99-3.3-1.1-8.59-3.5-11.75-5.34l-5.75-3.34zm243.07 127.79c-0.04 0.3 0.43 1.78 1.03 3.29 0.61 1.51 1.03 6.57 0.95 11.25-0.09 4.67-0.59 8.95-1.12 9.5-0.53 0.55-0.97 1.67-0.97 2.5 0 0.82-1.68 3.97-3.73 7-2.05 3.02-4.63 6.15-5.73 6.95-1.1 0.79-3.35 2.85-5 4.57-1.65 1.73-4.58 5.43-6.5 8.24-3 4.37-4.29 5.35-9 6.81-4.14 1.29-7.1 1.54-12 1.01-3.58-0.38-9.2-1.37-12.5-2.2-3.3-0.83-9.38-2.36-13.5-3.4-4.13-1.05-12.45-2.85-18.5-3.99-6.05-1.14-13.48-3.08-16.5-4.31-3.03-1.23-10.23-5.36-16-9.19-5.78-3.82-13.09-8.19-16.25-9.72-3.16-1.52-6.2-2.77-6.75-2.77-0.55 0-2.24-1.06-3.75-2.35-1.51-1.3-3.76-2.87-5-3.5-1.24-0.63-4.61-1.63-7.5-2.21-2.89-0.58-11.78-0.98-19.75-0.88-7.98 0.09-16.53 0.26-19 0.37-2.48 0.11-6.53-0.43-9-1.21-2.48-0.77-6.08-2.98-8-4.91-2.84-2.85-4.02-3.39-6.25-2.91-2.05 0.45-2.49 0.92-1.73 1.85 0.56 0.69 2.81 4.06 5 7.5 2.61 4.1 5.44 7.1 8.23 8.73 3.1 1.81 5.74 2.48 9.75 2.5 3.02 0.01 8.65-0.66 12.5-1.48 3.85-0.83 10.15-1.8 14-2.17 5.9-0.57 8.02-0.31 13.5 1.64 3.57 1.28 8.3 3.45 10.5 4.82 2.2 1.38 6.69 4.8 9.99 7.61 3.29 2.8 12.06 11.33 19.5 18.95 7.43 7.61 16.21 15.89 19.51 18.39 3.3 2.5 9.37 6.14 13.5 8.09 5.65 2.66 8.86 3.55 13 3.59 4.12 0.04 7.32-0.75 12.75-3.18 4.49-2.01 8.87-3.24 11.5-3.24 2.66 0 6.68 1.15 10.75 3.07 3.57 1.69 9.65 3.94 13.5 5 3.85 1.07 7.9 1.93 9 1.93 1.1-0.01 3.35-0.7 5-1.54 1.65-0.84 3.56-1.51 4.25-1.49 0.69 0.02 2.24-1.43 3.46-3.22 1.56-2.31 2.19-4.7 2.16-8.25-0.02-2.75-0.4-9.05-0.84-14-0.67-7.37-0.53-9.54 0.75-12 0.86-1.65 3.41-5.03 5.67-7.5 2.26-2.48 4.54-6.08 5.07-8 0.53-1.93 0.98-6.65 1-10.5 0.02-5.42-0.56-8.36-2.6-13-1.45-3.3-3.9-7.48-5.45-9.29-1.56-1.8-2.86-3.04-2.9-2.75zm-228.35 10.27c-0.24 0.42-0.72 1.89-1.06 3.27-0.35 1.37 0.07 4.97 0.91 8 0.85 3.02 1.77 6.4 2.04 7.5 0.39 1.55-0.58 2.7-4.3 5.08-2.65 1.7-7.06 3.8-9.81 4.67-2.75 0.88-7.48 2.05-10.5 2.62-4.85 0.9-6.45 0.72-13.5-1.51-5.84-1.85-11.1-2.68-19.5-3.06-9.65-0.44-12.87-0.18-20 1.62-4.68 1.19-12.78 4.12-18 6.53-5.23 2.41-13.1 6.11-17.5 8.22-4.4 2.12-12.5 6.39-18 9.49-5.5 3.1-12.25 6.19-15 6.88-2.75 0.68-6.58 0.97-8.5 0.64-1.93-0.33-4.76-1.86-6.3-3.39-1.54-1.54-3.42-4.59-4.18-6.79-0.77-2.2-2.54-8.16-3.95-13.25-1.67-6-4.15-11.8-7.06-16.5-2.47-3.99-6.07-8.94-8-11-1.93-2.06-4.64-4.2-6.01-4.75-1.38-0.55-4.41-0.99-6.75-0.99-2.34 0.01-5.38 0.67-6.75 1.47-1.38 0.79-3.18 1.77-4 2.17-0.83 0.4-2.07 1.43-2.78 2.29-0.7 0.86-9.59 14.05-19.75 29.31-10.76 16.17-19.83 28.75-21.72 30.14-1.79 1.31-5.5 3.53-8.25 4.93-2.75 1.39-6.8 4.27-9 6.39-2.2 2.12-6.25 5.66-9 7.88-2.75 2.22-6.8 5.08-9 6.36-2.2 1.28-5.35 3.09-7 4.03-1.65 0.93-4.58 2.22-6.5 2.85-1.93 0.64-6.88 1.58-11 2.09-4.21 0.53-9.26 0.57-11.5 0.1-2.2-0.46-8.5-1.84-14-3.07-8.96-2-10.52-2.09-15-0.92-2.75 0.72-6.13 1.89-7.5 2.59-1.38 0.7-6.1 1.57-10.5 1.93-4.4 0.35-10.7 1.32-14 2.15-3.3 0.82-10.95 2.26-17 3.2-7.9 1.21-12.69 1.46-17 0.86-3.3-0.46-9.15-1.54-13-2.39-3.85-0.86-9.93-2.66-13.5-4.02-3.58-1.35-8.71-3.89-11.4-5.65-2.7-1.76-6.58-5.23-8.62-7.7-2.04-2.48-4.67-6.41-5.85-8.75-1.17-2.34-2.47-4.25-2.88-4.25-0.41 0-0.45 4.16-0.07 9.25 0.37 5.09 1.6 12.17 2.72 15.75 1.13 3.57 3.77 9.42 5.86 13 2.1 3.57 4.93 7.79 6.28 9.37 1.35 1.58 5.61 5.08 9.46 7.79 3.85 2.7 10.15 6.21 14 7.79 3.85 1.58 10.6 3.63 15 4.55 4.4 0.91 12.5 1.68 18 1.7 5.5 0.02 12.02-0.51 14.5-1.17 2.47-0.67 9.22-2.71 15-4.54 5.77-1.83 13.2-3.63 16.5-3.99 3.3-0.36 8.92-0.16 12.5 0.46 3.57 0.61 10.1 1.98 14.5 3.03 4.4 1.06 10.92 2.12 14.5 2.37 3.57 0.25 8.97 0.03 12-0.49 3.02-0.52 6.4-1.33 7.5-1.8 1.1-0.47 4.02-1.71 6.5-2.74 2.47-1.04 7.16-3.45 10.41-5.36 3.25-1.91 7.13-5.05 8.62-6.97 1.49-1.93 3.97-6.2 5.51-9.5 1.54-3.3 4.34-8.48 6.22-11.5 2.84-4.57 4.76-6.26 11.37-10 5.26-2.98 8.91-5.86 10.78-8.5 1.55-2.2 3.74-5.8 4.86-8 1.12-2.2 3.23-8.5 4.69-14 1.46-5.5 3.35-12.48 4.21-15.5 0.86-3.03 3.81-9.78 6.57-15 2.76-5.23 7.02-12.65 9.48-16.5 2.46-3.85 5.44-7.78 6.63-8.73 1.18-0.95 3.39-1.74 4.9-1.75q2.75-0.02 5.77 3.23c1.67 1.79 3.85 5.5 4.87 8.25 1.01 2.75 2.42 8.15 3.13 12 0.92 5 1.12 12.85 0.72 27.5-0.31 11.27-0.15 24.1 0.37 28.5 0.54 4.6 1.78 9.49 2.93 11.5 1.1 1.92 3.45 4.37 5.23 5.43 1.78 1.06 4.8 2.25 6.73 2.65 2.03 0.41 5.39 0.2 8-0.52 2.47-0.67 6.97-2.93 10-5.02 3.02-2.09 8.2-6.05 11.5-8.8 3.3-2.75 7.29-6.41 8.87-8.12 1.57-1.72 6.59-8.07 11.14-14.12 4.56-6.05 10.36-13.14 12.89-15.75 2.53-2.61 7.41-6.56 10.85-8.78 3.44-2.21 6.92-4 7.75-3.97 0.82 0.03 3.3-0.7 5.5-1.62 2.69-1.12 6.63-1.64 12-1.59 6.5 0.07 9.78 0.73 17.5 3.55 5.22 1.91 11.97 4.43 15 5.6 3.02 1.17 9.77 2.74 15 3.48 6.58 0.95 11.19 1.08 15 0.46 3.45-0.57 6.79-1.93 8.96-3.65 1.9-1.5 5.16-4.87 7.25-7.48 2.08-2.61 3.79-5.54 3.78-6.5 0-0.96 0.67-2.76 1.5-4 1.43-2.13 1.34-2.35-1.74-4.15-1.79-1.05-5.16-3.98-7.5-6.5-2.34-2.53-5.14-6.51-6.23-8.85-1.09-2.34-1.94-5.24-1.9-6.44 0.05-1.21-0.37-2.45-0.93-2.77-0.56-0.31-1.22-0.23-1.47 0.19zm39.88 289.39c-1.05 2.41-2.97 6.63-4.28 9.38-1.3 2.75-2.92 5.95-3.59 7.12-0.68 1.17-2.13 3.12-3.23 4.34-1.1 1.22-4.48 3.72-7.5 5.56-3.03 1.85-8.2 4.13-11.5 5.09-4.13 1.2-11.62 1.95-24 2.42-10.54 0.39-21.11 1.36-25.5 2.33-4.13 0.91-9.08 2.17-11 2.79-1.93 0.62-4.4 1.46-5.5 1.88-1.1 0.41-4.93 1.53-8.5 2.5-3.58 0.96-9.88 2.77-14 4.03-5.93 1.81-10.86 2.41-23.5 2.85-8.8 0.32-18.48 0.18-21.5-0.31-3.03-0.48-8.65-2.13-12.5-3.66-3.85-1.52-10.83-4.85-15.5-7.38-4.68-2.54-10.53-5.36-13-6.28-2.48-0.92-8.33-2.58-13-3.69-4.68-1.11-12.78-2.71-18-3.57-5.23-0.86-10.85-2.34-12.5-3.31-1.65-0.96-4-3.76-5.23-6.23-1.4-2.81-2.28-6.53-2.36-9.98l-0.13-5.5c-6.42 11.92-8.96 16.42-9.78 17.67-0.83 1.26-4.03 4.78-7.12 7.81-3.09 3.04-8.09 7.77-11.12 10.52-3.02 2.75-7.36 7.36-9.63 10.25-2.27 2.89-4.13 5.92-4.13 6.75 0 0.82 0.79 2.66 1.75 4.07 1.03 1.51 3.41 3.02 5.75 3.66 2.39 0.64 11.05 0.96 21.5 0.78 9.62-0.17 20.2-0.36 23.5-0.42 3.3-0.07 8.92 0.19 12.5 0.56 3.57 0.38 11 2.12 16.5 3.87 5.5 1.76 14.05 5.37 19 8.02 4.95 2.66 11.02 5.59 13.5 6.5 2.47 0.92 7.65 2.53 11.5 3.58 3.85 1.06 11.5 2.17 17 2.48 7.88 0.45 11.91 0.14 19-1.43 4.95-1.09 12.15-3.31 16-4.93 3.85-1.62 11.27-4.99 16.5-7.49 5.22-2.5 11.52-5.45 14-6.54 2.47-1.1 8.32-3.28 13-4.85 8.27-2.78 9-2.85 26.75-2.61 13.71 0.19 19.93-0.14 25-1.31 3.71-0.86 8.32-2.37 10.25-3.37 1.92-0.99 4.62-2.34 6-2.99 1.37-0.65 4.52-2.65 7-4.45 3.02-2.19 5.63-5.39 7.92-9.7 3.09-5.79 3.42-7.18 3.3-13.93-0.08-4.57-0.67-8.28-1.52-9.5-0.76-1.1-1.64-3.58-1.96-5.5-0.31-1.93-1.39-5.47-2.4-7.88l-1.84-4.37z"/>
		<path id="Path 3" class="s3" d="m369.47 863.83c-1.01 1-1.83 2.08-1.82 2.38 0 0.31-1.79 3.26-3.99 6.55-2.2 3.3-3.93 6.72-3.83 7.62 0.09 0.89-0.51 1.84-1.33 2.12-0.83 0.27-1.5 1.17-1.5 2 0 0.83-0.95 3.41-2.12 5.75-1.17 2.34-3.64 10.33-5.49 17.75-1.86 7.42-4.61 16.06-6.13 19.18-1.52 3.13-4.79 8.12-7.26 11.08-2.81 3.37-6.38 6.3-9.5 7.79-2.75 1.31-6.27 3.52-7.83 4.92-1.56 1.39-5.31 7.48-8.34 13.53-3.04 6.05-6.04 11.75-6.67 12.66-0.64 0.91-3.07 3.05-5.41 4.75-2.34 1.7-4.48 3.09-4.75 3.09-0.28 0-2.64 0.94-5.25 2.08-2.61 1.15-6.1 2.67-7.75 3.39-1.65 0.71-5.93 1.87-9.5 2.57-4.24 0.83-10.32 1.07-17.5 0.69-6.05-0.32-12.8-1.24-15-2.03-2.2-0.79-7.38-2-11.5-2.69-4.32-0.73-10.25-1-14-0.64-3.58 0.35-10.33 1.95-15 3.56-4.68 1.61-11.31 3.64-14.75 4.5-3.75 0.94-10.55 1.57-17 1.57-5.91 0-14.13-0.71-18.25-1.57-4.13-0.86-10.09-2.44-13.25-3.5-3.16-1.06-6.2-1.93-6.75-1.93-0.55 0-1 0.56-1 1.25 0.01 0.69-2.43 4.85-5.4 9.25-2.98 4.4-8.75 11.83-12.83 16.5-4.08 4.67-14.41 15.47-22.95 24-8.54 8.53-19.79 19.55-24.99 24.5-5.21 4.95-11.28 10.58-13.5 12.5-2.22 1.92-5.72 4.85-7.77 6.5-2.06 1.65-6.17 5.36-9.15 8.25-2.98 2.89-5.41 5.92-5.41 6.75 0 0.95 1.92 2.05 5.25 3.01 2.89 0.83 7.27 1.5 9.75 1.48 2.47-0.01 7.42-0.64 11-1.4 3.57-0.76 10.66-2.78 15.75-4.49 5.09-1.7 10.15-3.1 11.25-3.1 1.1 0 2.67 0.67 3.5 1.5 0.93 0.93 1.5 3.39 1.5 6.5 0 2.75-0.45 5.22-1 5.5-0.55 0.28-1 1.74-1.01 3.25l-0.01 2.75c11.25-1.07 17.67-2.33 21.52-3.51 3.85-1.17 9.02-2.81 11.5-3.65 2.47-0.84 5.17-1.24 6-0.89 1.15 0.49 1.33 1.51 0.78 4.35-0.4 2.03-1.4 6.17-2.22 9.2-0.82 3.03-1.17 5.91-0.77 6.41 0.39 0.49 3.52 0.61 6.96 0.25 3.44-0.37 7.04-1.04 8-1.51 0.96-0.47 3.53-1.71 5.7-2.75 2.18-1.05 5.22-2.91 6.75-4.15 2.01-1.61 3.65-2.11 5.8-1.75 2.32 0.39 3.23 1.24 4.02 3.75 0.56 1.79 1.01 5.61 1 8.5-0.02 4.6 0.26 5.33 2.23 5.89 1.24 0.35 6.3 0.67 11.25 0.7 6.73 0.04 10.51-0.48 15-2.06 3.3-1.17 8.25-3.36 11-4.88 2.75-1.51 6.57-3.96 8.5-5.43 1.92-1.47 4.7-3.3 6.17-4.07 1.47-0.77 7.09-4.74 12.5-8.83 5.41-4.09 10.52-8.14 11.36-9 0.84-0.86 2.52-3.03 3.75-4.82 1.26-1.84 3.09-3.25 4.22-3.25 1.23 0 2.23 0.87 2.6 2.25 0.33 1.24 0.05 4.05-0.63 6.25-0.68 2.2-1.57 4.45-1.98 5-0.42 0.55-4.14 7.75-8.28 16-4.14 8.25-8.36 16.73-9.37 18.84-1.61 3.36-1.65 3.95-0.34 4.73 0.82 0.5 2.4 0.91 3.5 0.92 1.1 0.01 4.7-0.47 8-1.06 3.3-0.6 9.26-2.18 13.25-3.51 3.99-1.33 9.61-3.96 12.5-5.85 2.89-1.88 8.4-5.94 12.25-9 3.85-3.07 8.01-6.14 9.25-6.82 1.67-0.93 2.83-0.97 4.5-0.16 1.35 0.66 2.55 2.45 3.01 4.5 0.5 2.22 0.24 5.16-0.74 8.41-0.82 2.75-1.5 5.34-1.51 5.75-0.01 0.41 1.23 0.73 2.74 0.71 1.51-0.03 4.55-1.15 6.75-2.5 2.2-1.34 4.67-2.75 5.5-3.11 0.82-0.37 2.29-1.5 3.25-2.51 1.13-1.19 3.17-1.84 5.75-1.84 3.33 0 4.17 0.42 5 2.5 0.55 1.37 1 2.95 1 3.5 0 0.55-1.24 2.37-2.75 4.04-1.51 1.67-2.53 3.25-2.25 3.49 0.27 0.25 2.07-0.02 4-0.61 1.92-0.58 4.85-1.77 6.5-2.63 1.65-0.87 4.04-2.53 5.3-3.68 1.27-1.16 6.94-11.33 12.6-22.61 5.66-11.28 11.38-22.35 12.7-24.62 1.32-2.27 3.52-5.43 4.9-7.03 1.37-1.59 5.65-5.48 9.5-8.64 4.75-3.9 8.93-6.37 13-7.67 3.3-1.05 9.6-2.63 14-3.5 4.4-0.87 9.57-2.15 11.5-2.84 1.92-0.69 5.3-2.34 7.5-3.67 2.2-1.33 6.47-5.17 9.5-8.54 3.02-3.36 6.17-7.16 7-8.44 0.82-1.28 2.44-3.5 3.59-4.94 1.15-1.44 3.73-5.42 5.75-8.86 2.01-3.44 3.66-6.48 3.66-6.75 0-0.28 3.77-6.24 8.37-13.25 4.61-7.01 10.35-14.67 12.75-17.01 2.41-2.34 5.5-4.91 6.88-5.72 1.37-0.81 4.07-2.2 6-3.11 2.69-1.26 5.48-1.53 12-1.18 5.61 0.3 9.79 1.1 12.29 2.36 2.45 1.24 6.86 5.75 12.5 12.78 4.79 5.98 9.95 11.95 11.46 13.25 1.87 1.62 3.95 2.37 6.5 2.34 2.06-0.01 6.67-0.74 10.25-1.61 3.58-0.87 9.2-1.8 12.5-2.06 3.3-0.26 7.58 0 9.5 0.57 1.92 0.58 5.49 2.76 7.92 4.85 2.42 2.08 5.53 5.59 6.91 7.79 1.37 2.2 3.96 6.92 5.76 10.5 1.79 3.58 5.13 12.35 7.41 19.5 2.28 7.15 7.09 22.9 10.69 35 3.6 12.1 8.51 29.2 10.92 38 2.41 8.8 4.4 17.12 4.42 18.5 0.02 1.37 0.58 3.25 1.25 4.16 0.67 0.92 3.49 3.39 6.28 5.5 2.78 2.11 7.95 4.9 11.5 6.2 4.65 1.7 7.55 2.19 10.44 1.75 2.6-0.39 5.05-1.67 7-3.65l3-3.05c-3.72-14.27-4.51-18.97-4.15-19.66 0.36-0.69 1.44-1.24 2.4-1.23 0.96 0.01 3.55 1.09 5.75 2.39 2.2 1.3 7.83 3.57 12.5 5.05 5.4 1.71 11.1 2.75 15.64 2.86 5.51 0.14 7.61-0.22 9.25-1.57q2.11-1.75 1.42-3.5c-0.38-0.96-2.18-4.34-4-7.5-1.82-3.16-3.2-6.76-3.06-8q0.25-2.25 2.5-2.5c1.24-0.14 5.06 1.45 8.5 3.53 4.48 2.71 8.52 4.2 14.25 5.25 4.4 0.81 11.37 1.42 15.5 1.36 4.12-0.07 9.41-0.63 11.75-1.25 2.96-0.79 4.25-1.67 4.24-2.89-0.01-0.96-0.91-4.56-2-8-1.1-3.44-1.99-6.7-1.99-7.25 0-0.55 0.79-0.99 1.75-0.97 0.96 0.02 3.1 0.88 4.75 1.91 1.65 1.03 6.6 3.08 11 4.56 4.4 1.47 11.83 3.53 16.5 4.57 5.62 1.25 12.4 1.89 20 1.89 6.33 0 15.33-0.65 20-1.45 4.67-0.8 11.04-2.25 14.15-3.23 3.11-0.98 6.89-2.68 8.39-3.78l2.74-2c-3.42-7.75-6.64-12.36-9.35-15.25-3.7-3.94-4.81-5.81-4.44-7.5 0.26-1.24 0.49-2.59 0.5-3 0-0.41 5.07-0.69 11.26-0.61 9.22 0.12 11.94-0.2 15.08-1.75l3.83-1.89-0.66-12.79c15.5-2.64 21.8-4.32 24-5.43 2.2-1.12 4.56-2.76 5.25-3.66 0.76-0.98 1.04-3.1 0.71-5.37-0.3-2.06-0.98-4.88-1.51-6.25-0.67-1.73-3.82-4.02-10.21-7.44-5.08-2.71-12.39-6.94-16.24-9.4-3.85-2.45-11.5-8.16-17-12.68-5.5-4.52-13.46-11.76-17.68-16.1-4.22-4.33-10.75-11.66-14.5-16.28-3.75-4.61-7.99-10.01-9.42-12-1.42-1.98-5.92-8.36-10-14.18-4.07-5.82-8.75-13.35-10.4-16.73-2.93-6.02-3.09-6.16-7-6.16-2.2 0.01-6.92-0.92-10.5-2.04-3.58-1.13-9.88-3.76-14-5.85-5.44-2.76-8.6-3.75-11.5-3.62-2.28 0.1-5.29 1.12-7 2.36-1.65 1.2-5.92 2.71-9.5 3.36-5.66 1.03-7.27 0.94-12.5-0.65-3.3-1.01-8.92-3.31-12.5-5.12-3.58-1.8-10.1-5.98-14.5-9.28-4.4-3.31-14.75-13.09-23-21.75-8.25-8.65-17.7-17.65-21-19.98-3.3-2.34-7.8-4.74-10-5.35-2.2-0.6-5.91-1.1-8.25-1.1-2.34-0.01-6.84 0.67-10 1.5-3.16 0.82-9.69 1.5-14.5 1.5l-8.75-0.01c0 7.75-0.74 11.91-1.65 14.25-0.91 2.34-3.05 6.12-4.75 8.4-1.71 2.28-4.45 5.08-6.1 6.23-1.65 1.14-4.58 2.58-6.5 3.19-1.92 0.61-7.1 1.06-11.5 1.01-4.4-0.05-10.48-0.57-13.5-1.14-3.03-0.58-6.63-1.46-8-1.95-1.38-0.5-8.91-3.4-16.75-6.45-13.61-5.29-14.67-5.54-23.5-5.55-6.6 0-10.83 0.55-14.75 1.93-4.29 1.51-6.33 3-9.25 6.76-2.06 2.65-4.31 5.48-5 6.28-0.69 0.8-3.63 5.07-6.54 9.5-2.91 4.42-5.27 8.15-5.25 8.29 0.02 0.14-1.84 3.06-4.13 6.5-2.3 3.44-6.49 8.5-9.33 11.25-2.83 2.75-6.25 5.9-7.58 7-1.33 1.1-4.23 3.38-6.42 5.08-2.2 1.69-6.7 4.16-10 5.5-4.42 1.78-7.84 2.41-13 2.38-5.48-0.03-8.19-0.62-12.5-2.7-3.03-1.47-7.46-4.6-9.85-6.96-2.4-2.37-5.15-5.88-6.12-7.8-0.97-1.92-2.37-5.98-3.12-9-1.02-4.1-1.31-12.37-1.14-32.5 0.12-14.85-0.2-29.36-0.71-32.25-0.52-2.89-1.35-5.25-1.85-5.25-0.5 0-1.74 0.82-2.74 1.83z"/>
		<path id="Path 4" class="s4" d="m431 32.17c-2.48 1.7-5.85 4.21-7.5 5.56-1.65 1.35-4.22 4.1-5.71 6.11-1.49 2.01-4.12 6.36-5.83 9.66-1.72 3.3-3.79 8.02-4.6 10.5-0.81 2.47-1.74 5.17-2.07 6-0.33 0.83-0.69 1.95-0.81 2.5-0.11 0.55-0.92 3.92-1.79 7.5-0.86 3.58-1.81 8.53-2.1 11-0.29 2.47-1.04 8.55-1.66 13.5-0.63 4.95-2.01 12.83-3.08 17.5-1.07 4.67-2.6 10.53-3.4 13-0.8 2.47-4.66 11.03-8.57 19-3.91 7.97-7.44 15.18-7.86 16-0.41 0.82-1.75 5.55-2.98 10.5-1.34 5.39-1.99 10.3-1.64 12.25 0.33 1.79 1.73 4.37 3.1 5.75 1.88 1.88 3.56 2.5 6.75 2.51 2.34 0 7.18-0.98 10.75-2.19 3.57-1.21 10.77-4.41 16-7.12 7.01-3.63 10.55-4.9 13.5-4.84 2.2 0.05 4.9 0.38 6 0.74 1.1 0.35 4.93 2.57 8.5 4.92 3.57 2.35 8.3 4.77 10.5 5.37 2.2 0.6 5.8 1.08 8 1.06 2.2-0.02 5.2-0.58 6.66-1.25 1.46-0.66 5.67-3.9 9.36-7.2 3.69-3.3 8.12-6.57 9.84-7.28 1.73-0.7 5.16-1.25 7.64-1.22 2.48 0.02 6.3 0.87 8.5 1.89 2.2 1.01 5.8 3.67 8 5.9 2.2 2.23 5.8 7.22 8 11.08 2.21 3.88 5.23 7.72 6.75 8.58 1.51 0.85 3.65 1.55 4.75 1.55 1.1 0 3.91-0.82 6.25-1.83 2.34-1 5.21-3.14 6.38-4.75 1.17-1.6 2.86-5.06 3.75-7.67 0.89-2.61 1.91-6.44 2.26-8.5 0.53-3.06 0.08-4.76-2.41-9.25-1.74-3.11-7.26-9.63-12.73-15-5.32-5.22-10.72-11.3-12.02-13.5-1.4-2.39-3-7.82-3.97-13.5-0.89-5.22-2.3-12.65-3.13-16.5-0.83-3.85-2.72-9.42-4.2-12.38-1.47-2.96-4.7-7.88-7.18-10.93-2.71-3.34-7.18-7.17-11.23-9.62-3.7-2.24-8.15-5.42-9.88-7.07-1.73-1.65-3.83-4.35-4.65-6-0.83-1.65-2.35-7.72-3.38-13.5-1.08-6.08-3.13-13.24-4.86-17-1.65-3.58-4.46-7.97-6.25-9.77-1.83-1.84-5-3.68-7.25-4.22-2.2-0.53-6.25-0.96-9-0.95-3.95 0-5.94 0.65-9.5 3.11zm-83.5 337.39c-1.65 0.84-5.24 1.66-7.97 1.82-4.41 0.24-5.47 0.78-9.27 4.7-2.37 2.43-7.15 7.8-10.63 11.92-3.48 4.13-9.1 12.11-12.48 17.75-3.55 5.92-7.25 13.73-8.75 18.5-1.44 4.54-3.04 9.15-3.57 10.25-0.53 1.1-1.72 3.36-2.65 5.03-0.92 1.66-2.57 4.36-3.66 6-1.08 1.63-2.77 4.32-3.75 5.97-0.98 1.65-2.34 4.13-3.02 5.5-0.68 1.38-2.04 3.4-3.02 4.5-0.98 1.1-3.79 5.94-6.26 10.75-4.31 8.43-4.42 8.86-2.97 11.75 0.82 1.65 2.74 3.92 4.25 5.03 2.07 1.54 4.23 2.03 8.75 1.99 3.3-0.03 10.05-0.92 15-1.99 4.95-1.07 11.25-2.8 14-3.86 2.75-1.06 8.15-3.3 12-4.99 3.85-1.68 9.93-3.81 13.5-4.74 4.3-1.11 9.04-1.54 14-1.28 6.12 0.32 8.88 1.07 15 4.07 4.13 2.02 9.75 5.67 12.5 8.11 2.75 2.44 7.7 5.68 11 7.2 5.18 2.39 7.3 2.78 15.5 2.83 8.12 0.05 10.59-0.36 17-2.8 4.13-1.57 7.95-3.16 8.5-3.54 0.55-0.38 3.02-1.44 5.5-2.37 3.19-1.19 6.98-1.61 13-1.44 6.47 0.19 9.46-0.19 12.5-1.57 2.2-1 5.7-3.91 7.78-6.48 2.08-2.57 6.19-9.62 9.13-15.67 2.93-6.05 6.39-13.47 7.68-16.5 1.29-3.02 4.46-8.42 7.06-12 2.59-3.57 5.98-7.44 7.53-8.6 1.55-1.15 4.73-3.07 7.07-4.25 2.34-1.18 5.83-2.15 7.75-2.15 1.92 0 6.09 0.97 9.25 2.15 4.24 1.59 7.33 3.77 11.75 8.31 3.82 3.91 7.32 8.85 9.65 13.59 2.01 4.1 5.54 12.85 7.86 19.45 2.32 6.6 5.07 13.69 6.11 15.75 1.03 2.06 3.75 5.44 6.03 7.5 2.28 2.06 5.99 4.79 8.25 6.06 2.25 1.27 6.58 3 9.6 3.85 3.02 0.84 9.55 3.36 14.5 5.6 7.83 3.55 10.17 4.14 18 4.54 7.77 0.4 9.58 0.18 13.25-1.67 2.34-1.17 5.89-3.59 7.89-5.38 2-1.79 4.86-5.05 6.35-7.25 1.49-2.2 3.16-5.35 3.71-7 0.87-2.65 0.61-3.47-2.22-7-1.77-2.2-3.69-4.9-4.27-6-0.58-1.1-1.56-4.25-2.18-7-0.61-2.75-3.08-9.05-5.49-14-2.61-5.36-6.13-10.76-8.71-13.35-2.38-2.39-5.45-4.94-6.83-5.66-1.37-0.71-5.65-2.5-9.5-3.96-3.85-1.46-8.57-3.64-10.49-4.84-1.92-1.2-4.42-3.09-5.56-4.19-1.14-1.1-5.08-5.71-8.76-10.25-3.68-4.54-8.01-10.61-9.61-13.5-2.09-3.74-4.03-5.77-6.75-7.05-3.73-1.76-3.95-1.75-8.33 0.23-2.59 1.17-6.62 2.03-9.5 2.03-2.85 0-6.72-0.82-9-1.91l-4-1.9c-6.98 6.55-10.35 8.73-12 9.07-1.65 0.34-6.83-0.06-11.5-0.9-4.68-0.83-11.2-2.42-14.5-3.54-3.3-1.11-8.93-3.96-12.5-6.33-3.57-2.37-8.41-6.14-10.75-8.38-2.99-2.86-4.73-3.85-5.85-3.32-0.87 0.41-2.45 2.21-3.5 4-1.28 2.19-3.77 4.1-7.65 5.87-4.81 2.19-6.57 2.51-10.75 1.94-2.75-0.37-6.01-1.33-7.25-2.12-1.24-0.79-2.26-2-2.28-2.69-0.02-0.69-1.37-2.71-3-4.5-1.63-1.79-3.31-3.24-3.72-3.23-0.41 0.02-2.55 1.63-4.75 3.58-2.2 1.96-6.93 4.96-10.5 6.69-5.47 2.63-7.61 3.11-13.5 3.05-3.85-0.04-9.25-0.8-12-1.68-2.75-0.89-6.57-2.97-8.5-4.63-3.35-2.89-3.58-2.95-5.36-1.28-1.36 1.28-3.54 1.75-8.16 1.75-5.28 0-6.74-0.4-8.97-2.42-1.46-1.34-2.64-2.91-2.62-3.5 0.03-0.6-0.84-2.09-1.92-3.33-1.08-1.24-2.53-2.25-3.22-2.24-0.69 0-2.6 0.7-4.25 1.55zm-58 302.46c-1.65 1.03-3.34 1.67-3.75 1.43-0.41-0.25-0.98 0-1.25 0.55-0.27 0.55-1.44 1-2.59 1-1.14 0-2.83 0.62-3.75 1.38-0.91 0.76-4.59 1.88-8.16 2.49-3.57 0.62-8.52 1.11-11 1.11-2.48 0-5.51-0.23-6.75-0.49-1.41-0.31-2-0.96-1.59-1.74 0.36-0.69-0.54-0.24-2 1-1.47 1.24-3.15 2.25-3.73 2.25-0.58 0-4.63 3.6-8.99 8-4.61 4.64-7.94 8.84-7.94 10 0 1.1-0.34 1.99-0.75 1.98-0.41-0.02-2.26 3.25-4.11 7.25-1.85 4-4.46 11.1-5.8 15.77-1.59 5.57-2.75 13.15-3.37 22-0.61 8.86-1.69 15.91-3.14 20.5-1.21 3.85-3.58 8.82-5.27 11.05-1.68 2.22-6.21 6.96-10.06 10.52-3.85 3.56-9.22 8.27-11.94 10.45-2.72 2.19-6.86 5.33-9.2 6.98-2.34 1.65-6.87 4.87-10.06 7.15-3.19 2.29-7.6 5.8-9.8 7.8-2.2 2-4.31 3.73-4.68 3.84-0.38 0.12-2.62 1.79-5 3.71-2.37 1.93-8.09 7.33-12.7 12-4.61 4.68-10.14 10.98-12.28 14-2.15 3.03-6.32 9.1-9.26 13.5-2.95 4.4-6.4 10.03-7.67 12.5-1.27 2.48-3.11 5.63-4.09 7-0.98 1.38-2.64 4.98-3.68 8-1.04 3.03-2.44 9.1-3.12 13.5-1.23 7.93-1.21 8.04 1.53 13 1.53 2.75 4.43 7.03 6.46 9.5 2.03 2.48 5.89 5.94 8.59 7.7 2.69 1.76 7.83 4.3 11.4 5.65 3.58 1.36 9.65 3.16 13.5 4.02 3.85 0.85 9.7 1.93 13 2.39 4.31 0.6 9.1 0.35 17-0.86 6.05-0.94 13.7-2.38 17-3.2 3.3-0.83 9.6-1.8 14-2.15 4.4-0.36 9.13-1.23 10.5-1.93 1.38-0.7 4.75-1.87 7.5-2.59 4.48-1.17 6.04-1.08 15 0.92 5.5 1.23 11.8 2.61 14 3.07 2.24 0.47 7.29 0.43 11.5-0.1 4.13-0.51 9.07-1.45 11-2.08 1.93-0.64 4.85-1.93 6.5-2.86 1.65-0.94 4.8-2.75 7-4.03 2.2-1.28 6.25-4.14 9-6.36 2.75-2.22 6.8-5.76 9-7.88 2.2-2.12 6.25-4.99 9-6.39 2.75-1.4 6.46-3.62 8.25-4.93 1.89-1.39 10.96-13.97 21.72-30.14 10.16-15.26 19.05-28.45 19.75-29.31 0.71-0.86 1.96-1.89 2.78-2.29 0.82-0.4 2.63-1.38 4-2.17 1.38-0.8 4.41-1.46 6.75-1.47 2.34 0 5.38 0.44 6.75 0.99 1.38 0.55 4.08 2.69 6.01 4.75 1.93 2.06 5.53 7.01 8 11 2.91 4.7 5.39 10.5 7.06 16.5 1.41 5.09 3.18 11.05 3.95 13.25 0.76 2.2 2.64 5.26 4.18 6.79 1.54 1.53 4.37 3.06 6.3 3.39 1.93 0.33 5.75 0.04 8.5-0.64 2.75-0.69 9.5-3.78 15-6.88 5.5-3.1 13.6-7.37 18-9.49 4.4-2.11 12.27-5.81 17.5-8.22 5.23-2.41 13.32-5.34 18-6.52 7.13-1.81 10.35-2.07 20-1.63 8.4 0.38 13.66 1.21 19.5 3.06 7.05 2.23 8.65 2.41 13.5 1.51 3.02-0.57 7.75-1.74 10.5-2.61 2.75-0.88 7.16-2.98 9.81-4.68 3.72-2.38 4.69-3.53 4.3-5.08-0.27-1.1-1.19-4.47-2.04-7.5-1.03-3.69-1.26-6.49-0.7-8.5 0.46-1.65 1.36-2.89 1.99-2.75 0.63 0.14 1.13-0.09 1.12-0.5-0.01-0.41 1.9-1.1 4.25-1.52 3.98-0.72 4.51-0.54 7.77 2.66 1.92 1.88 5.52 4.06 8 4.83 2.48 0.78 6.52 1.32 9 1.21 2.48-0.11 11.02-0.28 19-0.37 7.98-0.1 16.86 0.3 19.75 0.88 2.89 0.58 6.26 1.58 7.5 2.21 1.24 0.63 3.49 2.21 5 3.5 1.51 1.29 3.2 2.35 3.75 2.35 0.55 0 3.59 1.25 6.75 2.77 3.16 1.53 10.48 5.9 16.25 9.73 5.77 3.82 12.98 7.95 16 9.18 3.02 1.23 10.45 3.17 16.5 4.31 6.05 1.15 14.38 2.94 18.5 3.99 4.13 1.04 10.2 2.58 13.5 3.4 3.3 0.83 8.92 1.82 12.5 2.2 4.9 0.53 7.86 0.28 12-1.01 4.71-1.46 6-2.44 9-6.81 1.92-2.81 4.85-6.51 6.5-8.23 1.65-1.73 3.9-3.79 5-4.58 1.1-0.8 3.68-3.92 5.73-6.95 2.05-3.02 3.73-6.17 3.73-7 0-0.82 0.44-1.95 0.97-2.5 0.53-0.55 0.96-4.82 0.96-9.5-0.01-4.67-0.1-9.69-0.2-11.15-0.1-1.46-0.53-2.48-0.94-2.25-0.41 0.22-0.96-0.39-1.21-1.35-0.26-0.96-8.24-9.41-17.75-18.78-9.51-9.36-20.89-19.91-25.29-23.45-4.4-3.54-9.86-8.48-12.13-10.97-2.27-2.5-5.73-6.57-7.68-9.05-1.96-2.47-5.67-8.77-8.24-14-2.58-5.22-5.25-10.62-5.93-12-0.69-1.37-2.73-7-4.53-12.5-1.8-5.5-4.62-12.7-6.27-16-1.65-3.3-4.73-8.59-6.86-11.75-2.12-3.16-4.09-5.75-4.36-5.75-0.27 0-1.29 0.43-2.25 0.95-0.96 0.52-4 1.61-6.75 2.43-2.75 0.81-6.35 1.75-8 2.09-1.65 0.34-6.6-0.12-11-1.02-4.4-0.89-8.58-2.15-9.29-2.79-0.99-0.89-1.29-0.86-1.25 0.09 0.02 0.69-1.2 2.4-2.71 3.81-1.51 1.41-4.1 3.14-5.75 3.84-1.65 0.71-4.58 1.57-6.5 1.91-1.92 0.34-5.98 1.76-9 3.15-3.74 1.71-7.26 2.52-11 2.53-3.02 0.01-8.87-0.91-13-2.03-4.12-1.13-9.64-3.38-12.25-5-2.61-1.63-5.2-2.96-5.75-2.96-0.55 0-2.35 1.35-4 3-1.65 1.65-3.67 3-4.5 3-0.83 0-2.74 1.13-4.25 2.5-2.38 2.17-3.69 2.51-9.75 2.52-4.32 0-9.49-0.78-13.5-2.05l-6.5-2.06c-5.66 4.09-8.36 5.07-10.55 5.07-1.95 0.01-3.98 0.48-4.5 1.04-0.52 0.56-4.1 1.07-7.95 1.13-3.85 0.06-8.12-0.21-9.5-0.61-1.37-0.4-5.36-2.15-8.85-3.88-3.5-1.74-7.21-3.95-8.25-4.91-1.83-1.69-1.92-1.63-2.4 1.5-0.28 1.79-1.4 4.71-2.5 6.5-1.1 1.79-3.46 4.15-5.25 5.25q-3.25 1.99-8.5 2c-2.89 0-6.94-0.64-9-1.42-2.06-0.78-6.45-1.62-9.75-1.87-4.12-0.31-8.04-1.48-12.5-3.74-4.09-2.06-9.14-5.91-13.63-10.37-3.92-3.91-7.3-7.67-7.5-8.38-0.29-0.98-1.73-0.83-6.37 0.67-3.3 1.07-8.7 2.08-12 2.25-3.3 0.16-7.91-0.03-10.25-0.42-2.34-0.4-4.25-1.17-4.25-1.72 0-0.55-1.8-1-4-1-2.27 0-6.17-1.08-9-2.5-3.2-1.6-5.72-3.76-7-6-1.8-3.16-2.22-3.39-4.25-2.34-1.24 0.63-4.73 1.74-7.75 2.46-3.02 0.72-7.3 1.33-9.5 1.35-2.2 0.03-7.82 0.8-12.5 1.73-7.43 1.47-9.38 1.51-15.5 0.36-3.85-0.73-8.35-2-10-2.82-1.65-0.82-5.35-3.8-8.22-6.61-3.26-3.21-5.6-6.53-6.25-8.88-0.7-2.57-1.58-3.73-2.78-3.68-0.96 0.04-3.1 0.92-4.75 1.95zm195.5 318.11c-4.07 1.59-7.39 4.06-12.75 9.51-3.99 4.05-8.2 9.13-9.36 11.29-1.16 2.16-2.51 4.19-3 4.5-0.49 0.31-0.89 1.47-0.89 2.57 0 1.1-0.68 2.23-1.5 2.5-0.82 0.28-1.5 0.95-1.5 1.5 0 0.55-2.99 5.84-6.65 11.75-3.66 5.91-7.37 11.95-8.25 13.41-0.88 1.47-3.85 5.26-6.6 8.42-2.75 3.17-5.45 6.14-6 6.61-0.55 0.47-2.35 1.99-4 3.39-1.65 1.39-4.35 3.26-6 4.15-1.65 0.89-5.48 2.25-8.5 3.03-3.02 0.78-8.43 2.02-12 2.75-3.57 0.74-6.5 1.34-6.5 1.33 0 0-1.35 0.33-3 0.74-1.65 0.4-4.57 1.9-6.5 3.33-1.93 1.42-3.98 3.04-4.57 3.59-0.59 0.55-3.14 2.58-5.65 4.5-2.52 1.93-5.84 5.53-7.38 8-1.53 2.47-4.28 7.43-6.11 11-1.82 3.58-3.31 7.06-3.3 7.75 0 0.69-0.34 1.36-0.77 1.5-0.44 0.14-2.28 3.18-4.11 6.75-2.66 5.2-3.3 7.6-3.21 12 0.07 3.51 0.93 7.12 2.36 9.98 1.23 2.47 3.59 5.27 5.24 6.23 1.65 0.97 7.27 2.45 12.5 3.31 5.23 0.86 13.32 2.46 18 3.57 4.68 1.11 10.52 2.77 13 3.69 2.48 0.92 8.32 3.74 13 6.28 4.68 2.53 11.65 5.86 15.5 7.38 3.85 1.53 9.48 3.18 12.5 3.66 3.02 0.49 12.7 0.63 21.5 0.31 12.64-0.44 17.57-1.04 23.5-2.85 4.13-1.26 10.43-3.07 14-4.03 3.57-0.96 7.4-2.09 8.5-2.5 1.1-0.41 3.57-1.26 5.5-1.88 1.92-0.62 6.88-1.87 11-2.79 4.39-0.97 14.96-1.94 25.5-2.33 12.38-0.47 19.87-1.22 24-2.42 3.3-0.96 8.48-3.24 11.5-5.09 3.02-1.84 6.4-4.34 7.5-5.56 1.1-1.22 2.55-3.17 3.23-4.34 0.67-1.17 2.39-4.59 3.8-7.62 1.42-3.03 3.39-7.3 4.39-9.5 1.73-3.84 1.73-4.26 0.02-10.5-0.98-3.57-3.19-11.67-4.92-18-1.72-6.32-3.76-13.53-4.52-16-0.76-2.47-2.95-10.12-4.87-17-1.92-6.87-4.68-16.32-6.13-21-1.46-4.67-4.3-11.86-6.32-15.97-2.02-4.1-5.14-8.94-6.93-10.75-2.37-2.39-4.13-3.27-6.5-3.26-1.79 0.02-6.62 0.92-10.75 2.01-4.12 1.09-9.52 1.99-12 1.99-2.48 0-6.75-0.65-9.5-1.44-4.12-1.2-6.36-2.87-12.75-9.51-4.26-4.44-8.82-9.76-10.14-11.82-1.31-2.06-3.67-5.01-5.25-6.54-2.02-1.97-4.19-2.93-7.36-3.26-3.11-0.31-6.2 0.21-10 1.68z"/>
		<path id="Path 5" class="s5" d="m519.35 437.98c-2.25 1.03-4.86 3.38-6.28 5.64-1.34 2.14-3.3 5.68-4.35 7.88-1.06 2.2-2.28 4.9-2.73 6-0.44 1.1-1.57 4.02-2.5 6.5-0.94 2.48-2.57 7.2-3.62 10.5-1.05 3.3-2.61 7.57-3.46 9.5-0.85 1.92-1.92 4.4-2.39 5.5-0.46 1.1-1.59 4.48-2.5 7.5-0.92 3.02-2.87 7.3-4.34 9.5-1.48 2.2-4.03 5.43-5.68 7.19-1.65 1.75-5.25 4.62-8 6.38-3.37 2.15-6.63 3.33-10 3.63-4.02 0.35-6.82-0.27-14.25-3.13-9.03-3.49-9.36-3.54-14-2.14-2.61 0.78-5.43 2.19-6.25 3.12-0.83 0.93-3.3 2.77-5.5 4.08-2.75 1.65-5.71 2.44-9.5 2.56-3.03 0.09-7.08-0.19-9-0.63-1.93-0.44-5.53-1.82-8-3.06-2.48-1.24-7.82-5.34-11.89-9.12-4.06-3.79-9.01-7.97-11-9.3-2.71-1.82-4.8-2.38-8.36-2.25-2.61 0.09-5.76 0.7-7 1.34-1.24 0.64-4.28 3.07-6.75 5.39-2.48 2.32-6.06 5.51-7.97 7.08-1.91 1.57-4.28 3.65-5.25 4.61-0.98 0.96-2.79 2.21-4.03 2.76-1.24 0.56-3.6 1.84-5.25 2.85-1.65 1-5.7 2.78-9 3.96-3.3 1.17-9.15 2.57-13 3.11-3.85 0.54-9.48 0.72-12.5 0.39-5.34-0.59-5.54-0.52-6.75 2.29-0.68 1.59-3.26 6.04-5.73 9.89-2.47 3.85-4.86 7.45-5.31 8-0.46 0.55-1.69 2.35-2.73 4-1.05 1.65-4.44 6.15-7.54 10-3.1 3.85-8.07 9.68-11.04 12.95-2.97 3.27-6.76 7.32-8.43 9-1.67 1.68-10.66 9.57-19.98 17.55-9.32 7.98-18.39 16.08-20.15 18-1.76 1.92-4.77 5.3-6.69 7.5-1.92 2.2-3.19 4.42-2.82 4.92 0.39 0.54 5.29 0.66 11.67 0.3 6.05-0.35 12.8-1.15 15-1.77 2.2-0.63 9.72-3.01 16.7-5.29 11.13-3.65 13.02-4.01 15.25-2.91 1.4 0.69 3.03 2.49 3.61 4 0.78 1.99 0.74 3.99-0.13 7.25-0.65 2.48-2.48 6.86-4.06 9.75-1.58 2.89-2.87 5.81-2.88 6.5-0.01 0.96 1.7 1.07 7.25 0.49 3.99-0.42 11.76-2.36 17.26-4.33 5.5-1.96 13.82-4.95 18.5-6.63 5.25-1.89 9.27-2.8 10.5-2.38 1.71 0.59 1.9 1.24 1.3 4.4-0.39 2.03-1.4 6.85-2.25 10.7-0.85 3.85-1.55 8.24-1.55 9.75 0 1.74 0.83 3.3 2.25 4.26 1.57 1.05 4.81 1.5 10.75 1.49 5.51-0.01 11.31-0.78 16.5-2.17 4.78-1.29 10.61-3.8 14.48-6.24 3.56-2.25 7.38-4.63 8.5-5.3 1.11-0.67 3.14-1.74 4.52-2.39 1.37-0.65 4.41-2.02 6.75-3.04 2.34-1.02 5.6-1.86 7.25-1.86q3 0 3.51 1.75c0.28 0.96-0.39 3.21-1.5 5-1.56 2.52-2.03 5.1-2.11 11.5-0.08 6.76 0.26 8.7 1.85 10.75 1.07 1.37 3.03 2.64 4.35 2.81 1.32 0.17 5.32-0.44 8.9-1.36 3.57-0.92 8.52-2.8 11-4.18 2.47-1.39 7.09-4.49 10.25-6.9 3.16-2.4 6.54-5.73 7.5-7.38 1.04-1.79 2.56-3 3.75-2.99 1.1 0.02 2.56 0.36 3.23 0.77 0.68 0.4 3.18 5 5.55 10.23 2.36 5.23 6.13 12.2 8.37 15.5 2.24 3.3 6.72 8.48 9.96 11.51 3.24 3.03 8.14 6.61 10.89 7.94 2.75 1.34 6.8 2.75 9 3.13 2.2 0.37 5.35 0.32 7-0.13 1.65-0.45 3.72-1.86 4.6-3.13 0.88-1.28 2.12-3.9 2.77-5.82 0.64-1.92 1.35-9.8 1.57-17.5 0.22-7.7 0.43-14.56 0.48-15.25 0.04-0.69 0.75-1.25 1.58-1.25 0.82 0 2.7 2.14 4.17 4.75 1.47 2.61 4.28 6.77 6.24 9.25 1.95 2.48 5.59 6.43 8.07 8.79 2.49 2.36 6.54 5.64 9.02 7.29 2.47 1.65 6.3 3.52 8.5 4.15 3.45 0.98 4.47 0.87 7.42-0.8 1.88-1.06 4.35-3.21 5.5-4.77q2.08-2.85 2.33-8.25c0.16-3.45 0.7-5.45 1.5-5.53 0.69-0.06 2.15 0.01 3.25 0.15 1.1 0.14 4.92 2.42 8.5 5.06 3.58 2.65 8.52 5.52 11 6.38 2.47 0.86 5.96 1.56 7.75 1.55 1.79-0.01 3.47-0.47 3.75-1.02 0.27-0.55-0.46-3.59-1.63-6.75-1.17-3.16-2.41-7.48-2.75-9.6-0.43-2.66-0.23-3.97 0.63-4.25 0.69-0.22 3.84 1.69 7 4.25 3.16 2.56 9.8 6.56 14.75 8.88 4.95 2.32 11.25 4.76 14 5.42 2.75 0.65 7.47 1.44 10.5 1.74 3.02 0.31 8.42 0.06 12-0.54 3.58-0.6 7.96-1.78 9.75-2.62 1.79-0.84 3.52-2.54 3.86-3.78 0.33-1.24-0.28-4.95-1.36-8.25-1.34-4.09-1.69-6.72-1.11-8.25 0.66-1.73 1.43-2.14 3.36-1.75 1.37 0.27 4.41 1.69 6.75 3.15 2.34 1.46 6.05 3.27 8.25 4.02 2.2 0.75 6.7 1.36 10 1.34 3.3-0.02 6.67-0.48 7.5-1.01 1.3-0.84 1.2-1.5-0.75-4.98-1.24-2.21-2.25-5.15-2.25-6.52 0-1.38 0.34-2.67 0.75-2.88 0.41-0.21 4.35 0.69 8.75 2.01 4.4 1.31 10.14 2.38 12.75 2.38 2.61-0.01 6.66-0.75 9-1.67 2.34-0.91 5.07-2.37 6.07-3.25 1-0.87 2.47-2.94 3.27-4.59 0.8-1.65 1.44-4.13 1.43-5.5-0.02-1.38-0.52-4.3-1.11-6.5-0.6-2.2-3.02-7.15-5.38-11-2.37-3.85-5.82-8.18-7.67-9.62-1.85-1.44-7.19-6.4-11.86-11.01-4.67-4.61-11.99-12.66-16.27-17.88-4.27-5.22-10.46-13.32-13.75-17.99-3.29-4.67-6.9-10.08-8.02-12-1.12-1.92-4.38-7.49-7.25-12.36-4.92-8.38-5.46-8.93-9.71-10.02-2.48-0.64-8.33-3.31-13-5.95-4.67-2.63-10.08-5.18-12-5.65-1.92-0.48-3.73-0.69-4-0.47-0.28 0.21-5.9 0.66-12.5 0.99-10.3 0.53-12.85 0.33-18-1.35-3.3-1.07-7.58-2.23-9.5-2.56-1.92-0.34-4.88-1.85-6.56-3.37-1.69-1.52-4.34-4.78-5.9-7.26-1.55-2.48-4.29-9-6.08-14.5-1.78-5.5-4.02-13.83-4.97-18.5-0.94-4.68-1.9-9.63-2.12-11-0.22-1.38-1.57-7.68-3.01-14-1.44-6.33-3.61-13.75-4.83-16.5-1.21-2.75-2.84-5.49-3.62-6.09-0.77-0.61-2.15-1.35-3.06-1.65-0.91-0.3-3.38 0.25-5.5 1.22z"/>
		<path id="Path 6" class="s0" d="m258.09 750.25c-0.69 1.79-1.91 5.5-2.71 8.25-0.8 2.75-2.11 8.6-2.91 13-0.81 4.4-1.47 10.81-1.47 14.25 0 3.44 0.59 7.71 1.32 9.5 0.72 1.79 2.86 4.38 4.75 5.75 2.81 2.05 4.58 2.5 9.87 2.5h6.43c2.8 10.85 4.3 15.01 5.12 16.25 0.83 1.24 2.97 3.34 4.76 4.67 1.79 1.33 4.38 2.74 5.75 3.12 1.45 0.4 3.87 0.12 5.74-0.67 1.79-0.76 3.48-2.04 3.76-2.87 0.28-0.83 0.11-1.95-0.39-2.5-0.49-0.55-3.08-1.32-5.75-1.72-2.67-0.39-5.62-1.52-6.54-2.5-0.92-0.98-2.47-5.16-3.42-9.28-1.13-4.86-2.65-8.51-4.32-10.38-2.45-2.73-2.98-2.87-10.58-2.79-6.46 0.07-8.24-0.24-9.23-1.62q-1.23-1.72-0.73-8.21c0.29-3.58 0.77-8.3 1.07-10.5 0.3-2.2 0.75-5.35 0.99-7 0.25-1.65 1.15-6.27 2-10.26 0.86-3.99 1.3-7.93 0.98-8.75-0.32-0.82-1.18-1.49-1.91-1.49-0.73 0-1.89 1.46-2.58 3.25zm376.71 173.39c-1.49 0.26-3.6 1.46-4.69 2.66-1.49 1.65-2.16 4.32-2.7 10.7-0.39 4.67-0.63 10.98-0.52 14 0.1 3.02 1.07 7.41 2.15 9.75 1.08 2.34 3.42 5.64 5.21 7.34 1.79 1.71 6.63 4.66 10.75 6.56 5.77 2.67 9.47 5.39 16 11.77 4.68 4.56 10.08 9.09 12 10.05 1.93 0.96 5.53 2.01 8 2.32 3.25 0.41 5.26 0.1 7.25-1.11 1.51-0.92 3.47-3.37 4.36-5.43 1.09-2.53 1.41-5.13 1-8-0.34-2.34-1.77-6.84-3.18-10-1.41-3.16-4.34-8.34-6.5-11.5-2.64-3.87-4.48-8.12-5.62-13-1.49-6.41-2.34-7.94-7.25-13.17-4.13-4.4-7.49-6.81-13.06-9.36-5.58-2.56-9.16-3.52-14-3.74-3.57-0.17-7.72-0.09-9.2 0.16z"/>
		<path id="Path 7" fill-rule="evenodd" class="s2" d="m264.17 752.52c0.67 0.42 0.93 6.37 0.74 16.81-0.27 14.65-0.11 16.44 1.65 19.05 1.07 1.59 3.51 3.67 8.94 6.36l-8 0.09c-6.46 0.07-8.24-0.24-9.23-1.62q-1.23-1.72-0.73-8.21c0.29-3.58 0.77-8.3 1.07-10.5 0.3-2.2 0.74-5.35 0.98-7 0.24-1.65 0.91-5.25 1.5-8 0.59-2.75 1.28-5.59 1.55-6.31 0.27-0.73 0.95-1.03 1.53-0.67zm-11.75 15.57c0.27 0.32 0.05 3.02-0.48 6-0.53 2.97-0.96 8.22-0.95 11.66 0.01 3.44 0.6 7.71 1.33 9.5 0.72 1.79 2.86 4.38 4.75 5.75 2.81 2.05 4.58 2.5 16.3 2.5l1.81 7c0.99 3.85 2.49 8.01 3.31 9.25 0.83 1.24 2.97 3.36 4.76 4.71 1.79 1.35 4.67 2.81 6.41 3.25 2.3 0.57 3.61 0.38 4.8-0.71 1.47-1.35 1.62-1.28 1.58 0.75-0.02 1.24-0.83 2.55-1.79 2.92-0.96 0.37-3.77 0.12-6.25-0.54-2.48-0.67-6.08-2.31-8-3.65-1.98-1.38-4.8-4.92-9.5-13.87l-5.5 0.3c-3.93 0.21-6.85-0.3-10.25-1.81-3.62-1.6-5.27-3.11-6.96-6.35-1.59-3.07-2.18-5.92-2.14-10.25 0.04-3.46 1.06-8.96 2.41-13 1.28-3.85 2.45-7.45 2.6-8 0.15-0.55 0.47-1.9 0.73-3 0.25-1.1 0.48-2.23 0.51-2.5 0.02-0.27 0.26-0.24 0.52 0.09zm24.16 26.9c0.51 0 1.93 0.67 3.17 1.5 1.24 0.83 3.99 5 6.11 9.26 2.12 4.26 5.27 8.99 7 10.5 1.73 1.51 3.15 3.09 3.16 3.5 0.01 0.41-1.9 0.39-4.25-0.06-2.35-0.44-5.06-1.57-6.02-2.5-0.97-0.93-2.43-4.95-3.25-8.94-1.03-4.98-2.34-8.19-4.17-10.25-1.47-1.65-2.26-3-1.75-3.01zm359.53 146.01c0.47 0 0.97 2.34 1.39 10.4l6.17 3.55c3.4 1.95 7.45 4.71 9 6.12 1.56 1.41 4.18 3.42 5.83 4.47 2.26 1.44 4.61 1.87 9.5 1.74 3.58-0.09 6.95-0.65 7.5-1.25 0.69-0.74 2.16 1.35 4.7 6.7 2.04 4.27 3.73 8.56 3.75 9.52 0.03 0.96-0.96 2.66-2.2 3.77-1.24 1.11-3.37 2-4.75 1.99-1.73-0.03-4.37-1.96-8.54-6.27-3.33-3.43-8.05-7.84-10.5-9.8-2.45-1.97-7.38-4.77-10.96-6.23-3.58-1.46-7.5-3.68-8.73-4.94-1.22-1.25-2.68-3.85-3.24-5.77-0.55-1.92-0.73-5.86-0.4-8.75 0.34-2.89 1-5.25 1.48-5.25z"/>
		<path id="Path 8" class="s4" d="m639.22 934.88c-1.25 0.37-2.71 1.9-3.25 3.4q-0.96 2.71 0.03 2.72c0.55 0 1.11 2.34 1.25 5.2l0.25 5.2c9.57 5.5 13.62 8.26 15.17 9.67 1.56 1.41 4.18 3.42 5.83 4.47 2.14 1.36 4.72 1.89 9 1.84 3.3-0.03 6.56-0.36 7.25-0.72 0.93-0.49 0.63-1.74-1.18-4.91-1.33-2.34-2.74-6.27-3.12-8.75-0.39-2.48-1.5-5.85-2.47-7.5-0.97-1.65-3.5-4.34-5.62-5.97-2.12-1.63-5.44-3.53-7.36-4.21-1.92-0.68-5.75-1.21-8.5-1.18-2.75 0.03-6.02 0.37-7.28 0.74z"/>
	</g>
</svg>