<svg version="1.2" xmlns="http://www.w3.org/2000/svg" viewBox="0 0 577 791" width="577" height="791">
	<style>
		.s0 { fill: #1a1a1a } 
		.s1 { fill: #5b7855 } 
		.s2 { fill: #cdcdcd } 
		.s3 { fill: #394f35 } 
		.s4 { fill: #ffffff } 
		.s5 { fill: #4a6444 } 
	</style>
	<g id="Background">
		<path id="Path 0" class="s0" d="m259.27 23.41c-2.33 0.6-5.16 1.99-6.31 3.09-1.14 1.1-2.19 3.35-2.34 5-0.14 1.65-1.84 5.7-3.77 9-1.93 3.3-4.48 8.59-5.68 11.75-1.21 3.22-2.65 10.48-3.27 16.5-0.6 5.91-1.65 12.1-2.32 13.75-0.68 1.65-3.27 6.38-5.75 10.5-2.49 4.13-5.49 10.31-6.68 13.75-1.18 3.44-2.31 8.16-2.5 10.5-0.2 2.34 0.32 8.08 1.14 12.75l1.51 8.5c-6.3 11.63-8.85 17.47-9.73 20.5-0.87 3.03-1.59 8.09-1.58 11.25 0.01 3.16 0.62 6.99 1.37 8.5 0.75 1.51 2.59 3.65 4.1 4.75l2.74 2c-7.24 20.93-10.91 30.38-12.83 34.5-1.92 4.13-5.94 11.21-8.93 15.75-2.99 4.54-6.34 9.15-7.44 10.25-1.1 1.1-2.95 3.91-4.1 6.25-1.46 2.95-1.92 5.24-1.5 7.5 0.52 2.81 0.09 3.77-3.15 7.05-2.06 2.08-5.39 7.15-7.4 11.25-2.07 4.21-4.17 10.49-4.84 14.45-0.65 3.85-1.77 8.13-2.48 9.5-0.71 1.38-3.55 4.75-6.3 7.5-2.76 2.75-6.63 7.14-8.62 9.75-1.99 2.61-4.67 6.89-5.97 9.5-1.3 2.61-2.65 6.66-3 9-0.35 2.34-0.16 6.39 0.42 9 0.58 2.61 2.35 6.77 3.94 9.25 1.58 2.48 4.94 5.85 7.47 7.5 2.53 1.65 4.59 3.11 4.57 3.25-0.02 0.14-0.59 1.49-1.27 3-0.67 1.51-2.77 5.45-4.65 8.75-1.88 3.3-5.75 8.93-8.61 12.5-2.86 3.57-8.08 9.65-11.61 13.5-3.52 3.85-10.86 11.5-16.31 17-5.45 5.5-10.49 11.35-11.19 13-0.71 1.65-1.02 4.13-0.7 5.5 0.32 1.38 1.31 3.34 2.19 4.36 0.89 1.02 3.41 2.81 5.61 3.98 3.28 1.73 5.76 2.12 13.75 2.14 9.74 0.02 9.75 0.02 9.71 2.52-0.03 1.38 0.81 3.63 1.86 5l1.9 2.5c-8.72 10.85-12.65 16.93-14.36 20.5-1.7 3.57-3.68 9.65-4.37 13.5-0.81 4.44-1.04 10.2-0.63 15.75l0.64 8.75c-4.26 2.03-9.55 5.04-14.5 8.01-4.95 2.96-9.22 5.66-9.5 5.99-0.27 0.33-2.07 1.65-4 2.94-1.92 1.29-7.1 6-11.5 10.47-4.4 4.47-9.53 10.37-11.4 13.11-1.88 2.74-4.69 7.12-6.25 9.73-1.57 2.61-3.97 8.13-5.35 12.25-1.78 5.33-2.5 9.67-2.5 15 0 5.34 0.54 8.58 1.88 11.25 1.03 2.06 3.62 5.44 5.75 7.52 2.13 2.07 6.19 4.99 9.03 6.5l5.15 2.73c-2.76 6.98-4.92 11.7-6.59 15-1.67 3.3-5.46 9.6-8.42 14-2.96 4.4-8.07 11.38-11.35 15.5-3.28 4.13-7.31 9.05-8.96 10.94-1.64 1.89-5.24 5.98-7.99 9.09-2.75 3.11-6.24 7.07-7.75 8.81-1.51 1.74-2.75 3.39-2.75 3.66 0 0.27-0.91 1.74-2.01 3.25-1.11 1.51-2.29 5-2.62 7.75-0.54 4.34-0.29 5.39 1.84 8 1.35 1.65 4.45 3.82 6.87 4.82 3.69 1.52 5.91 1.71 13.42 1.14 4.95-0.38 11.25-1.27 14-1.99 2.75-0.71 7.81-2.24 11.25-3.38l6.25-2.09c0 4.65 0.62 7.46 1.37 9.25 0.76 1.79 2.59 4.38 4.09 5.75 2.39 2.21 3.56 2.49 9.88 2.41 4.24-0.06 9.81-0.94 13.66-2.16 3.58-1.14 7.18-2.34 8-2.67 1.18-0.46 1.54 0.33 1.7 3.67 0.11 2.4 1.03 5.34 2.12 6.75 1.06 1.38 3.15 3.4 4.65 4.5 1.49 1.1 4.81 2.25 7.37 2.55 2.56 0.31 7.81 0.03 11.66-0.62 3.85-0.64 9.03-2.09 11.5-3.21 2.48-1.13 6.3-2.57 8.5-3.22 2.2-0.64 5.46-1.81 7.25-2.59 1.79-0.77 3.59-1.42 4-1.44 0.41-0.01 3.56-1.47 7-3.25 3.44-1.77 6.45-2.99 6.69-2.72 0.23 0.27 0.51 5 0.61 10.5 0.11 5.55-0.31 11.22-0.93 12.75-0.62 1.51-0.83 4.21-0.48 6 0.36 1.79 1.22 4.38 1.92 5.75 0.7 1.38 2.77 3.94 4.6 5.7 1.84 1.76 5.82 4.3 8.84 5.65 3.03 1.36 9.54 3 14.5 3.67 4.95 0.66 11.93 0.97 15.5 0.68 3.58-0.29 7.63-0.73 9-0.98 1.38-0.26 4.08-0.76 6-1.12 1.93-0.36 5.08-0.87 7-1.13 1.93-0.27 4.63-0.69 6-0.94 1.38-0.25 4.75 0.02 7.5 0.59 2.75 0.58 9.5 2.13 15 3.45 6.86 1.65 11.41 2.22 14.5 1.81 2.48-0.33 6.52-1.27 9-2.09 2.48-0.82 5.75-2.68 7.27-4.14 2.31-2.21 2.77-3.48 2.76-7.65 0-2.75-0.68-7.25-1.51-10-0.82-2.75-1.5-5.11-1.51-5.25-0.01-0.14 1.68 0.19 3.74 0.72 2.06 0.53 4.65 0.69 5.75 0.35 1.1-0.34 3.26-2.02 4.81-3.72 1.54-1.71 3.48-4.9 4.3-7.1l1.48-4c8.07 7.82 13.11 11.83 16.41 13.96 3.3 2.12 8.59 4.91 11.75 6.2 3.16 1.29 7.51 2.45 9.65 2.59 2.78 0.18 4.52-0.33 6.04-1.75 1.17-1.1 2.1-2.67 2.06-3.5-0.03-0.83 0.29-1.82 0.72-2.21 0.43-0.39 2.13 0.35 3.78 1.64 1.65 1.29 5.25 3.47 8 4.84 2.75 1.38 8.38 3.5 12.5 4.71 4.13 1.22 11.33 2.46 16 2.76 6.17 0.39 10.01 0.1 14-1.06 3.02-0.88 7.08-2.77 9-4.21 1.93-1.44 4.06-3.48 4.75-4.54 0.69-1.06 1.43-3.62 1.65-5.68 0.22-2.06 0.44-4.09 0.5-4.5 0.05-0.41 2.69 0.55 5.85 2.14 3.16 1.59 9.13 3.43 13.25 4.1 6.5 1.06 8 1.01 11.25-0.38 2.73-1.17 3.76-2.22 3.77-3.86 0.03-2.21 0.12-2.23 5.25-0.95 3.28 0.81 7.28 1.04 10.73 0.61 3.88-0.48 6.16-1.38 7.75-3.05 1.31-1.37 2.25-3.62 2.25-5.36 0-2.62 0.29-2.93 2.25-2.41 1.24 0.32 4.95 1.16 8.25 1.85 4.1 0.86 7.98 0.99 12.25 0.41 3.44-0.47 7.44-1.64 8.89-2.6 1.45-0.96 3.04-2.88 3.53-4.25 0.49-1.38 0.62-4.08 0.28-6-0.35-1.92-0.81-4.17-1.03-5-0.33-1.24 0.67-1.44 5.84-1.13 4.64 0.27 7.21-0.12 10.03-1.5 2.31-1.14 4.16-2.94 4.75-4.62 0.63-1.81 0.59-4.37-0.12-7.5-0.6-2.61-2.34-6.33-3.89-8.25-1.54-1.92-4.32-5.13-6.17-7.13-1.85-1.99-6.11-6.04-9.47-9-3.37-2.95-9.71-9.64-14.09-14.87-4.38-5.23-10.14-12.65-12.79-16.5-2.66-3.85-8.58-14.76-13.17-24.25-4.59-9.49-8.34-17.92-8.34-18.75 0-1.14 1.14-1.47 4.75-1.37 2.61 0.08 6.1-0.56 7.75-1.4 1.65-0.84 4.01-2.93 5.25-4.63 1.24-1.71 2.68-5.01 3.21-7.35 0.53-2.34 0.74-6.27 0.47-8.75-0.27-2.48-1.37-7.65-2.43-11.5-1.07-3.85-2.91-11.05-4.1-16-1.19-4.95-3.28-11.92-4.63-15.5-1.36-3.58-5.28-10.77-8.72-16-3.44-5.23-8.46-11.47-11.15-13.87-2.7-2.4-8.68-6.68-13.3-9.5l-8.39-5.13c-4.95-15.5-7.98-22.7-9.94-26-1.95-3.3-5.17-7.91-7.16-10.25-1.98-2.34-3.61-4.7-3.61-5.25 0-0.55 1.46-0.84 3.25-0.64 1.79 0.2 4.52-0.14 6.08-0.75 1.76-0.69 3.07-2.12 3.5-3.81 0.55-2.22 1.38-2.81 4.67-3.3 2.2-0.32 4.9-1.28 6-2.11 1.28-0.97 2.14-3.02 2.38-5.7 0.21-2.31-0.11-5.76-0.7-7.69-0.59-1.93-2.5-5.07-4.24-7-1.75-1.93-3.75-4.63-4.46-6-0.71-1.38-6.13-7.45-12.04-13.5-5.91-6.05-13.09-13.93-15.94-17.5-2.85-3.57-7.19-9.43-9.63-13-2.45-3.57-5.46-8.3-6.69-10.5-1.24-2.2-2.12-4.02-1.96-4.05 0.15-0.02 1.41-0.51 2.78-1.08 1.49-0.61 3.47-3.01 4.9-5.95 1.97-4.01 2.29-5.84 1.79-9.92-0.35-2.75-1.43-7.42-2.41-10.37-1.08-3.26-3.58-7.39-6.36-10.5-2.52-2.82-6.12-7.38-8.01-10.13-1.88-2.75-3.96-6.8-4.62-9-0.66-2.2-2.13-7.15-3.28-11-1.15-3.85-3.58-9.7-5.42-13-1.94-3.5-5.77-8.15-9.21-11.16-5.7-5.01-5.9-5.36-6.66-11.5-0.43-3.49-2.29-9.94-4.15-14.34-1.85-4.4-6.22-14.3-9.7-22l-6.34-14c-0.4-16.97-1.13-22.92-2.15-26-0.91-2.75-3-7.7-4.64-11-1.64-3.3-3.3-8.03-3.69-10.5-0.39-2.47-0.39-6.97 0-10 0.4-3.03 0.3-7.97-0.21-11-0.51-3.03-1.9-7.97-3.08-11-1.19-3.03-3.31-7.09-4.71-9.03-1.4-1.94-4.21-5.54-6.23-8-2.03-2.46-6.31-7.63-9.5-11.48-3.2-3.86-7.48-10.38-9.5-14.5-3.12-6.34-3.84-9.11-4.7-17.99-0.56-5.78-2.19-14.55-3.61-19.5-1.62-5.62-3.99-11.02-6.3-14.38-2.04-2.96-5.51-6.4-7.71-7.66-2.2-1.25-6.25-3.05-9-3.99-2.75-0.95-7.48-1.82-10.5-1.93-3.02-0.12-7.4 0.27-9.73 0.87z"/>
		<path id="Path 1" class="s1" d="m266.04 144.5c-1.78 3.3-5.13 9.6-7.44 14-2.31 4.4-5.59 10.03-7.29 12.5-1.7 2.47-5.06 6.6-7.45 9.16-2.4 2.56-6.16 5.41-8.36 6.33-2.2 0.92-5.01 1.41-6.25 1.09-1.98-0.51-2.42 0-3.68 4.17-0.79 2.61-1.74 6.32-2.12 8.25-0.38 1.93-2.01 7.55-3.63 12.5-1.62 4.95-4.76 12.6-6.98 17-2.22 4.4-5.42 10.25-7.11 13-1.69 2.75-3.56 5.45-4.15 6-0.59 0.55-2.32 2.69-3.83 4.75-1.51 2.06-2.76 4.09-2.76 4.5-0.01 0.41 2.35 0.42 5.25 0.02 2.89-0.39 7.17-1.63 9.51-2.75 2.34-1.11 6.57-4.38 9.4-7.27 2.84-2.89 5.76-6.26 6.5-7.5 0.92-1.53 2.3-2.25 4.35-2.25 1.65 0 3.29 0.56 3.65 1.25 0.36 0.69 0.97 5.07 1.37 9.75 0.39 4.68 1.23 9.51 1.85 10.75 0.62 1.24 1.58 2.25 2.13 2.25 0.55 0 3.31-1.24 6.14-2.75 2.83-1.51 6.09-3.31 7.25-4 1.16-0.69 2.54-1.7 3.06-2.25 0.52-0.55 1.87-1.02 3-1.04 1.13-0.03 2.59 0.53 3.25 1.25 0.66 0.71 1.51 2.86 1.89 4.79 0.38 1.93 1.08 4.29 1.55 5.25 0.53 1.09 2 1.75 3.86 1.75 2.25 0 4.4-1.32 8.56-5.25 5.16-4.86 5.54-5.54 5.25-9.22-0.22-2.89 0.1-4.06 1.19-4.31 0.98-0.23 2.54 1.66 4.5 5.44 1.65 3.19 4.69 7.49 6.75 9.57 2.06 2.07 4.65 3.77 5.75 3.77q2 0 3.5-3.5c0.82-1.93 1.84-5.53 2.25-8.02 0.56-3.35 1.2-4.51 2.5-4.5 0.96 0.01 5.35 3.62 9.75 8.02 6.32 6.32 8.79 8.13 11.75 8.63 2.06 0.34 4.42 0.17 5.25-0.38 0.82-0.56 1.38-1.86 1.24-2.88-0.15-1.03-1.01-4.12-1.92-6.87-0.9-2.75-1.35-5.79-0.98-6.75 0.41-1.08 1.33-1.56 2.41-1.24 0.96 0.28 4.9 3.21 8.75 6.52 3.85 3.3 8.57 6.49 10.5 7.07 1.92 0.59 4.85 0.92 6.5 0.74 2.63-0.3 3.04-0.78 3.31-3.84 0.23-2.62-1.81-8.41-8.11-23-4.63-10.72-8.65-20.18-8.94-21-0.35-0.99-1.51-1.38-3.4-1.14-1.58 0.2-4.77-0.59-7.11-1.75-2.34-1.16-5.09-3.35-6.12-4.86-1.03-1.51-3-5-4.37-7.75-1.38-2.75-4.53-11.75-7.01-20-2.48-8.25-4.83-16.35-5.22-18-0.4-1.65-1.58-5.36-2.62-8.25-1.05-2.89-2.36-5.25-2.91-5.25-0.55 0-1.74 2.59-2.64 5.75-0.9 3.16-2.81 8.2-4.25 11.2-1.43 2.99-3.9 6.82-5.47 8.5-2.6 2.77-3.28 3-7.5 2.5-2.75-0.33-6.07-1.62-8.14-3.16-1.93-1.44-4.49-4.56-5.7-6.95-1.21-2.39-2.94-8.62-3.85-13.84-0.9-5.22-1.98-10.18-2.4-11-0.56-1.1-1.63 0.1-4.01 4.5z"/>
		<path id="Path 2" class="s2" d="m262.5 121.58c-0.55 0.13-2.24 0.51-3.75 0.83-1.51 0.33-5.68 3.29-9.25 6.59-3.57 3.3-7.96 6.63-9.75 7.39-1.79 0.77-3.93 1.14-4.75 0.83-0.82-0.32-1.83-1.06-2.23-1.65-0.41-0.59-0.75 1.52-0.75 4.68-0.02 4.01-0.73 7.18-2.38 10.5-1.3 2.61-3.04 5.43-3.86 6.25-0.82 0.82-2.23 3.64-3.14 6.25-0.9 2.61-1.64 6.55-1.64 8.75 0 2.48 0.48 4.04 1.25 4.11 0.69 0.05 2.6 0.01 4.25-0.09 1.65-0.11 4.46-1.28 6.25-2.61 1.79-1.33 4.49-4.16 6-6.29 1.51-2.14 3.31-4.72 3.99-5.75 0.68-1.03 2.58-3.9 4.23-6.37 1.65-2.47 3.01-4.95 3.04-5.5 0.03-0.55 1.92-3.93 4.2-7.5 2.29-3.57 5.54-7.98 7.23-9.78 1.74-1.87 4.03-3.27 5.31-3.25 1.24 0.02 3.4 0.59 4.81 1.28 1.41 0.69 3.44 3.05 4.5 5.25 1.07 2.2 2.73 8.51 3.69 14.02 0.96 5.51 2.54 11.25 3.5 12.75 0.96 1.5 2.54 2.75 3.5 2.76 0.96 0.02 2.9-0.99 4.3-2.25 1.4-1.25 3.7-4.75 5.12-7.78 1.42-3.03 3.3-7.53 4.18-10 0.88-2.47 2.18-5.24 2.89-6.15 0.71-0.9 2.41-1.95 3.78-2.33 1.83-0.51 3.26-0.05 5.48 1.75 1.65 1.33 4.22 5.08 5.71 8.33 1.49 3.24 4.94 13.55 7.66 22.9 2.73 9.35 5.89 19.47 7.02 22.5 1.14 3.03 3.46 7.07 5.16 9l3.1 3.5c4.02-4.21 4.34-5.66 4.26-11.78-0.07-6.14-0.68-8.56-4.08-16.22-2.2-4.95-4.59-11.25-5.32-14-0.92-3.46-1.1-7.46-0.61-13 0.39-4.4 0.41-9.35 0.04-11l-0.68-3c-4.08 7.64-5.82 10.01-6.51 10.18-0.69 0.18-2.3-2.02-3.61-4.93-1.31-2.89-3.44-6.23-4.75-7.43-1.32-1.2-3.63-2.67-5.14-3.25-1.51-0.59-4.44-1.07-6.5-1.08-2.06 0-4.88 0.75-6.25 1.67-1.38 0.92-4.75 3.78-7.5 6.35-2.75 2.57-6.13 5.02-7.5 5.43-1.99 0.61-2.85 0.28-4.23-1.59-0.95-1.29-1.75-2.8-1.78-3.35-0.03-0.55-1.35-3.7-2.93-7-1.59-3.3-3.94-6.59-5.22-7.3-1.29-0.72-3.91-1.43-5.84-1.59-1.93-0.16-3.95-0.17-4.5-0.03zm65.5 190.47c-4.68 1.61-10.98 3.21-14 3.55-4 0.46-6.59 0.19-9.5-1.01-2.35-0.96-6.68-1.62-10.5-1.6-4.41 0.03-7.79 0.68-10.5 2.02-2.2 1.09-6.02 3.78-8.5 5.97-2.65 2.35-5.53 4-7 4.01-1.38 0.02-4.98-0.7-8-1.6-3.5-1.03-7.68-1.46-11.5-1.18-4.07 0.29-7.12 1.18-9.5 2.77-1.93 1.29-4.85 3.57-6.5 5.08-1.65 1.51-4.8 3.92-7 5.37-2.2 1.45-5.24 2.62-6.75 2.6-1.51-0.02-5.79-1.34-9.5-2.95-3.71-1.6-9.45-3.36-12.75-3.91-3.3-0.54-7.57-0.8-9.5-0.56-1.93 0.24-8.27 0.54-14.1 0.66-8.24 0.18-10.96-0.1-12.27-1.27-0.92-0.82-1.85-1.27-2.05-1-0.21 0.27-1.76 3.2-3.45 6.5-1.69 3.3-3.09 7.24-3.1 8.75-0.02 1.51 0.65 4.32 1.47 6.25 0.88 2.04 2.85 4.2 4.75 5.19 1.94 1.01 5.47 1.68 8.75 1.66 3.03-0.02 8.43-0.85 12-1.83 5.31-1.46 7.5-1.6 12-0.77 3.03 0.56 9.1 2.7 13.5 4.74 4.87 2.27 9.37 3.68 11.5 3.61 1.93-0.06 5.07-0.53 7-1.05 1.93-0.52 5.19-2.54 7.25-4.5 2.06-1.95 5.21-6.31 7-9.69 1.79-3.38 3.7-6.93 4.25-7.9 0.55-0.97 2.35-3.16 4-4.88 1.65-1.72 4.35-3.38 6-3.69 1.74-0.33 4.57 0.1 6.75 1.02 2.06 0.87 6.65 4.63 10.19 8.34l6.43 6.75c3.32-3.1 5.08-5.8 6.04-8 0.96-2.2 2.05-5.24 2.42-6.75 0.37-1.51 1.91-4.16 3.42-5.88 2.55-2.89 3.08-3.08 7.25-2.47 2.59 0.38 7.68 2.54 12 5.11 4.13 2.44 8.63 4.45 10 4.45 1.37 0 4.3-0.52 6.5-1.16 2.2-0.64 5.35-2.07 7-3.17 1.65-1.1 4.13-3.1 5.5-4.43 1.37-1.33 4.19-3.27 6.25-4.31 2.06-1.04 4.65-1.89 5.75-1.89 1.1 0 4.36 0.88 7.25 1.95 3.88 1.44 7.13 3.86 12.43 9.25 3.95 4.02 8.9 9.27 11 11.67 2.1 2.4 5.06 4.99 6.57 5.75 1.51 0.76 4.55 1.38 6.75 1.38 3.24 0 4.67 0.67 7.5 3.5 3.37 3.37 3.62 3.45 6.75 2.15 1.79-0.73 3.76-1.97 4.38-2.75 0.63-0.77 1.44-2.75 1.8-4.4 0.41-1.85 0.02-4.92-1.02-8-0.95-2.83-3.69-7.25-6.3-10.19-3.05-3.43-4.86-4.78-5.34-4-0.41 0.66-0.73 0.74-0.71 0.19 0.02-0.58-0.51-0.52-1.27 0.16-0.71 0.63-3.31 1.48-5.79 1.87-3.66 0.59-5.53 0.26-10-1.74-3.02-1.35-8.88-4.8-13-7.66-4.38-3.03-10.2-6.02-14-7.18-3.57-1.1-8.98-1.95-12-1.91-3.27 0.05-8.94 1.27-14 3.01zm55 193.59c-0.82 0.34-2.78 1.79-4.34 3.23-1.56 1.45-3.3 3.53-3.88 4.63-0.98 1.87-0.9 1.86 1.33-0.16 1.32-1.19 4.19-2.65 6.39-3.24 2.75-0.74 5.09-0.76 7.5-0.06 1.93 0.55 5.3 2.08 7.5 3.38 2.2 1.31 6.48 5.05 9.5 8.33 3.02 3.28 6.51 7.15 7.75 8.6 1.24 1.46 2.02 3.1 1.75 3.65-0.27 0.55 0.01 0.89 0.62 0.75 0.62-0.14 1.39 0.42 1.71 1.25 0.31 0.83 0.14 1.22-0.38 0.88-0.52-0.34 0.48 2.14 2.23 5.5 1.76 3.37 5.29 11.52 7.86 18.12 2.56 6.6 6.08 14.66 7.81 17.91 1.73 3.25 4.84 7.64 6.9 9.75 2.06 2.11 4.65 3.84 5.75 3.84 1.1 0 3.57-0.67 5.5-1.5 1.93-0.83 3.5-1.95 3.5-2.5 0-0.55 1.01-1.5 2.25-2.1 1.24-0.61 3.26-0.83 4.5-0.5 1.24 0.33 5.62 3.75 9.75 7.6 4.12 3.85 8.74 7.26 10.25 7.58 1.51 0.32 3.2 0.72 3.75 0.89 0.55 0.16 3.48-0.11 6.5-0.6 3.02-0.49 6.18-1.52 7-2.28 0.82-0.76 2.06-4.01 2.75-7.23 1.06-4.95 1.02-6.72-0.27-11.36-0.84-3.02-2.3-8.99-3.25-13.25-0.95-4.27-1.96-7.77-2.23-7.78-0.27-0.02-0.99 1-1.58 2.25-0.59 1.25-3.29 3.53-6 5.06-3.69 2.08-6.24 2.77-10.17 2.75-2.89-0.02-6.26-0.53-7.5-1.15-1.24-0.61-4.27-3.07-6.75-5.47-3.51-3.4-5.65-4.58-9.75-5.38-2.89-0.57-6.94-1.87-9-2.9-2.06-1.03-6.28-4.97-9.37-8.75-3.09-3.78-6.69-8.02-8-9.41-1.31-1.39-4.16-4.77-6.34-7.5-2.19-2.73-6.69-7.6-10-10.81-3.32-3.21-8.63-7.15-11.79-8.75q-5.75-2.91-12-3.39c-3.44-0.27-6.93-0.21-7.75 0.12zm-13.77 19.11c-0.63 1.51-2.08 4.77-3.22 7.25-1.14 2.48-2.45 5.17-2.9 6-0.46 0.83-2.25 4.54-3.97 8.25-1.73 3.71-3.14 7.2-3.14 7.75 0 0.55-1.35 3.02-3 5.5-1.65 2.48-5.48 6.3-8.5 8.5l-5.5 4c-5.81-4.65-9.52-6.64-12-7.42-4.05-1.28-5.25-1.23-12 0.48-5.5 1.4-9.23 1.74-14 1.29-5.3-0.5-7.61-1.34-12.5-4.56-3.3-2.17-8.7-5.23-12-6.81-3.3-1.57-8.7-3.29-12-3.82-4.43-0.7-7.96-0.58-13.5 0.46-4.13 0.78-9.75 2.5-12.5 3.81-3.32 1.59-8.7 6.15-16 13.55-6.05 6.13-12.57 11.87-14.5 12.75-2.77 1.26-5.07 1.44-11 0.86-4.68-0.46-9.94-0.3-14 0.43-3.57 0.65-9.2 2.07-12.5 3.16-4.44 1.47-8.53 1.96-15.75 1.9-5.36-0.04-10.54-0.36-11.5-0.7-0.96-0.34-6.25-2.66-11.75-5.17-9.4-4.28-10.51-4.54-18.5-4.51-5.33 0.03-10.18 0.66-13 1.69-2.47 0.91-7.31 1.64-10.75 1.63-5.18-0.02-6.76-0.45-9.25-2.52-1.65-1.38-3-3.17-3-4 0-0.83-0.45-1.73-1-2-0.55-0.27-2.76 3.21-4.92 7.75-2.32 4.9-4.3 10.89-4.86 14.75-0.51 3.58-0.72 7.4-0.44 8.5 0.27 1.1 1.67 3.28 3.11 4.84 1.43 1.56 4.41 3.76 6.61 4.87 2.86 1.46 5.28 1.91 8.5 1.6 3.24-0.31 7.31-2.12 14.5-6.45 5.5-3.31 10.9-6.37 12-6.8 1.1-0.44 3.58-1.17 5.5-1.63 2.37-0.57 5.12-0.37 8.5 0.61 2.75 0.79 8.6 3.52 13 6.05 7.97 4.58 8.03 4.59 15.5 4.07 4.12-0.29 8.85-1.1 10.5-1.81 1.65-0.71 4.75-2.43 6.9-3.82 2.14-1.39 5.4-3.99 7.25-5.78 1.84-1.79 4.59-3.54 6.1-3.88 1.51-0.35 5.9-0.07 9.75 0.63 3.85 0.7 9.25 0.99 12 0.65 2.75-0.34 5.68-0.75 6.5-0.91 0.82-0.16 3.07-0.92 5-1.68 1.93-0.77 6.59-3.91 10.37-6.98 3.78-3.07 8.94-8.5 11.47-12.08 2.53-3.58 6.7-8.52 9.27-11 2.95-2.84 6.27-4.94 9.03-5.7 2.4-0.67 6.16-0.97 8.36-0.67 2.2 0.29 5.12 0.94 6.5 1.44 1.37 0.5 3.51 2.26 4.75 3.92 1.24 1.65 3.19 5.15 4.34 7.76 1.15 2.61 2.94 7.45 3.97 10.75 1.04 3.3 2.68 7.1 3.66 8.44 0.98 1.34 3.24 3.03 5.03 3.75 2.06 0.83 4.99 1.08 8 0.68 2.61-0.35 6.1-1.31 7.75-2.15 1.65-0.83 4.66-2.91 6.69-4.62 2.77-2.33 4.37-2.98 6.43-2.6 1.77 0.32 3.87 2.09 5.97 5 1.79 2.48 4.3 5.5 5.58 6.71 1.84 1.75 3.07 2.09 5.83 1.62 1.93-0.32 4.78-1.77 6.35-3.21 1.56-1.44 4.6-6.11 6.75-10.37 2.22-4.41 3.58-8.29 3.16-9-0.44-0.74-0.34-0.97 0.25-0.55 0.58 0.41 2.11-2.87 3.73-8 1.51-4.79 3.62-12.3 4.71-16.7 1.08-4.4 2.7-11.6 3.59-16 0.89-4.4 2.04-8.79 2.54-9.75 0.51-0.96 0.92-1.98 0.92-2.25 0-0.27-0.36-0.5-0.81-0.5-0.44 0-1.32 1.24-1.96 2.75zm-173.25 224.5c-1.1 1.79-2.79 5.66-3.74 8.6l-1.74 5.34c5.74 5.31 8.8 6.88 12 7.58 2.75 0.61 8.38 1.39 12.5 1.74 5.46 0.47 10.9 0.08 20-1.43 6.87-1.14 15.31-2.08 18.75-2.08 3.5 0 11.75 1.32 18.75 3 6.87 1.65 13.85 3 15.5 3 1.65 0 5.1-0.56 7.66-1.25 2.73-0.73 5.46-2.28 6.59-3.75 1.49-1.93 1.79-3.41 1.3-6.5-0.34-2.2-1.96-6.81-3.59-10.25l-2.96-6.25c-3.49 3.18-5.63 4.37-7 4.71-1.38 0.33-6.32 0.01-11-0.72-4.68-0.73-12.55-1.49-17.5-1.69-4.95-0.2-13.5 0.22-19 0.92-6.72 0.87-13.61 1.04-21 0.53-6.69-0.46-13.16-1.53-16.5-2.74-3.03-1.09-5.84-1.99-6.26-2-0.42 0-1.66 1.45-2.76 3.24z"/>
		<path id="Path 3" class="s3" d="m383.57 521.04c-3.25 1.66-3.9 2.49-3.75 4.73 0.11 1.5-0.42 5.21-1.17 8.23-0.75 3.03-2.36 10.45-3.58 16.5-1.22 6.05-3.32 14.83-4.67 19.5-1.35 4.67-3.86 12.1-5.58 16.5-1.73 4.4-4.86 10.59-6.98 13.75-2.11 3.16-5.19 6.42-6.84 7.25-1.65 0.83-5.25 1.5-8 1.5-2.86 0-6.6-0.79-8.75-1.86-2.06-1.02-5.21-3.72-7-6l-3.25-4.14c-5.45 5.21-8.73 6.98-11.65 7.72-3.3 0.83-7.09 0.95-11.85 0.4-3.85-0.45-8.35-1.53-10-2.39-1.65-0.86-4.35-3.06-6-4.89-1.65-1.84-3.56-4.35-4.25-5.59-0.69-1.24-2.61-6.19-4.27-11-1.67-4.81-3.69-9.76-4.5-11-1.26-1.92-2.04-2.15-5.23-1.58-2.06 0.37-4.91 1.38-6.32 2.25-1.42 0.87-4.73 4.06-7.37 7.08-2.63 3.03-8.07 8.88-12.08 13-5.2 5.35-9.41 8.57-14.64 11.23-6.64 3.39-8.19 3.76-16.34 4-4.95 0.15-11.59-0.07-14.75-0.48l-5.75-0.75c-10.25 9.22-14.51 12.04-17.14 12.87-2.4 0.75-5.71 1.83-7.36 2.41-1.75 0.61-5.71 0.77-9.5 0.38-3.57-0.36-8.3-1.3-10.5-2.09-2.2-0.79-6.81-2.82-10.25-4.51q-6.25-3.06-10.75-3.06c-2.58 0-6.1 0.85-8.25 1.99-2.06 1.1-5.55 3.13-7.75 4.52-2.2 1.38-6.02 3.48-8.5 4.65-2.47 1.18-6.3 2.34-8.5 2.57l-4 0.42c-4.38 14.22-7.56 22.18-9.9 26.85-2.34 4.67-5.97 10.98-8.07 14-2.09 3.03-6.18 8.42-9.09 12-2.9 3.58-6.46 7.85-7.9 9.5-1.45 1.65-4.16 4.8-6.02 7-1.87 2.2-5.71 6.7-8.53 10-2.81 3.3-5.76 7.35-6.55 9-0.79 1.65-1.32 3.12-1.19 3.26 0.14 0.14 2.95 0.27 6.25 0.3 3.59 0.03 10.62-1.16 17.5-2.95 6.33-1.66 14.65-3.94 18.5-5.07 3.85-1.14 8.24-1.84 9.75-1.55 1.51 0.28 2.75 1.07 2.75 1.76 0 0.69-0.64 4.63-1.43 8.75-1.09 5.76-1.15 7.8-0.25 8.79 0.65 0.72 2.08 1.29 3.18 1.27 1.1-0.01 5.94-1.16 10.75-2.54 4.81-1.39 11.91-4.21 15.77-6.27 6.25-3.34 7.28-3.61 9.5-2.5 1.39 0.7 2.74 2.46 3.06 4 0.35 1.65-0.3 5.36-1.62 9.25-1.22 3.58-1.93 7.29-1.59 8.25 0.54 1.51 1.57 1.68 7.38 1.23 3.71-0.28 8.78-0.73 11.25-0.99 2.48-0.26 6.75-1.2 9.5-2.08 2.75-0.88 10.4-4.21 17-7.39 6.6-3.19 13.46-6.98 15.25-8.41 1.79-1.44 4.25-2.5 5.47-2.36 1.23 0.14 2.81 1.38 3.52 2.75 0.91 1.75 1.12 4.75 0.69 10-0.58 7.05-0.52 7.37 0.98 5.25 0.87-1.24 4.18-4.16 7.34-6.5 3.16-2.34 6.65-4.79 7.75-5.46 1.1-0.67 2.68-1.49 3.5-1.84 0.82-0.34 4.88-2.2 9-4.13 4.13-1.94 9.75-5.2 12.5-7.25 2.75-2.06 5.68-4.38 6.5-5.17 0.82-0.78 4.65-3.69 8.5-6.45 3.85-2.77 8.8-5.87 11-6.9 2.63-1.24 7.09-2.03 13-2.32 4.95-0.25 10.8 0.03 13 0.6 2.2 0.58 6.93 2.99 10.5 5.36 4.85 3.22 7.18 5.58 9.17 9.31 1.47 2.75 2.93 6.91 3.25 9.25 0.32 2.34 0.05 7.74-0.59 12-0.65 4.26-1.1 9.33-1 11.25 0.1 1.92 0.74 4.76 1.42 6.3 0.69 1.55 2.15 3.05 3.25 3.35 1.1 0.3 2.9 0.03 4-0.6 1.1-0.63 4.02-5.18 6.5-10.12 2.48-4.94 4.84-8.97 5.25-8.95 0.41 0.01 1.49 0.36 2.4 0.77 0.91 0.41 3.27 3.19 5.25 6.17 1.98 2.98 5.85 7.32 8.6 9.65 2.75 2.33 7.7 5.46 11 6.95 3.3 1.5 7.41 3.01 9.13 3.35 2.72 0.55 3.22 0.31 3.86-1.87 0.41-1.37 0.46-4.86 0.12-7.75-0.59-5.1-0.54-5.25 1.89-5.25 1.38 0 3.18 0.67 4 1.5 0.82 0.83 1.73 2.4 2 3.5 0.27 1.1 2.86 3.53 5.75 5.41 2.89 1.88 7.27 4.29 9.75 5.37 2.48 1.08 6.98 2.71 10 3.62 3.02 0.91 9.1 1.69 13.5 1.72 5.95 0.06 9.28-0.46 13-2 2.75-1.15 6.13-3.25 7.5-4.68 2.14-2.22 2.45-3.33 2.13-7.77-0.2-2.84-0.42-7.19-0.5-9.67-0.13-4.41-0.07-4.5 2.87-4.26 1.65 0.13 3.43 1.03 3.96 2 0.52 0.97 2.55 3.47 4.5 5.55 2.43 2.61 5.41 4.41 9.54 5.76 3.3 1.08 7.69 1.96 9.75 1.96 2.06-0.01 3.98-0.46 4.25-1.01 0.27-0.55-0.18-2.01-1.01-3.25-0.83-1.24-1.5-3.49-1.5-5 0.01-2.18 0.48-2.75 2.26-2.77 1.24-0.01 4.5 1.43 7.25 3.19 3.11 2 6.7 3.39 9.5 3.66 3.2 0.3 5.45-0.11 7.78-1.45 1.81-1.03 3.27-2.22 3.25-2.63-0.02-0.41-0.93-3.34-2.02-6.5-1.09-3.16-1.66-6.12-1.25-6.58 0.41-0.46 1.75-0.35 2.99 0.25 1.24 0.59 3.04 2.24 4 3.66 1.18 1.75 3.54 3.09 7.25 4.13 3.95 1.11 7.34 1.35 12 0.84 3.58-0.38 7.74-1.34 9.25-2.13 2.46-1.27 2.69-1.82 2.17-5.17-0.33-2.06-1.68-5.21-3-7-1.33-1.79-2.42-4.15-2.42-5.25 0-1.73 0.5-1.93 3.75-1.51 2.06 0.27 5.55 0.77 7.75 1.1 2.2 0.34 5.91 0.12 8.25-0.49 2.34-0.6 4.51-1.66 4.82-2.35 0.31-0.69-0.7-3.13-2.25-5.42-1.55-2.3-5.52-6.18-8.82-8.62-3.3-2.45-9.84-8.9-14.53-14.33-4.69-5.43-10.13-11.9-12.1-14.38-1.96-2.47-5.65-8.1-8.19-12.5-2.54-4.4-7.81-15.2-11.71-24-3.89-8.8-7.43-17.35-7.85-19-0.52-2.07-1.94-3.62-4.57-5-2.1-1.1-6.57-4.55-9.93-7.66-5.74-5.32-6.2-5.55-7.37-3.75-0.69 1.05-3.39 2.86-6 4.03-4.21 1.87-5.21 1.98-8.75 0.88-2.2-0.68-5.94-2.64-8.31-4.37-2.37-1.72-6.04-5.6-8.16-8.63-2.12-3.02-5.29-8.65-7.04-12.5-1.75-3.85-4.51-10.6-6.14-15-1.63-4.4-4.95-12.05-7.37-17-2.43-4.95-6.11-11.23-8.19-13.95-2.09-2.72-5.59-6.19-7.79-7.71-2.2-1.51-5.12-2.99-6.5-3.28-1.46-0.3-4.13 0.31-6.43 1.48z"/>
		<path id="Path 4" class="s4" d="m263.5 34.61c-1.65 0.88-3.9 2.75-5 4.16-1.1 1.41-3.69 5.63-5.75 9.39-2.06 3.76-4.4 9.2-5.19 12.09-0.8 2.89-1.72 8.4-2.06 12.25-0.33 3.85-1.08 9.25-1.66 12-0.58 2.75-3.26 9.16-5.95 14.25-2.69 5.09-5.79 12.51-6.89 16.5-1.74 6.28-1.85 8.06-0.88 13.25 0.61 3.3 1.63 6.48 2.25 7.06 0.62 0.58 1.81 1.32 2.63 1.64 0.82 0.32 2.96-0.04 4.75-0.81 1.79-0.76 6.18-4.09 9.75-7.39 3.57-3.3 7.51-6.25 8.75-6.55 1.24-0.3 3.82-0.59 5.75-0.65 1.93-0.06 4.4-0.06 5.5 0.01 1.1 0.06 3.26 1.37 4.8 2.9 1.54 1.54 3.79 5.38 5 8.55 1.21 3.16 2.88 6.7 3.7 7.85 1.16 1.63 2.06 1.93 4 1.33 1.38-0.41 4.75-2.86 7.5-5.43 2.75-2.57 6.13-5.43 7.5-6.35 1.38-0.92 4.19-1.67 6.25-1.67 2.06 0.01 4.99 0.49 6.5 1.08 1.51 0.58 3.82 2.05 5.14 3.25 1.31 1.2 3.44 4.54 4.75 7.43 1.31 2.93 2.91 5.11 3.61 4.92 0.69-0.18 2.26-2.09 3.48-4.25 1.23-2.15 2.24-5.16 2.25-6.67 0.01-1.84-1.95-5.32-5.93-10.5-3.27-4.26-10.13-13.21-15.25-19.89-6.48-8.46-10.13-14.29-12.05-19.25-1.51-3.91-2.75-9.02-2.76-11.36 0-2.34-0.48-7.17-1.06-10.75-0.59-3.58-2.27-10.05-3.75-14.4-2.1-6.2-3.43-8.47-6.18-10.59-1.93-1.48-5.07-3.23-7-3.87-1.93-0.65-5.75-1.16-8.5-1.15-2.75 0.01-6.35 0.74-8 1.62zm-40.56 222.5c-2.44 2.22-4.89 4.38-5.44 4.81-0.55 0.44-4.15 1.76-8 2.96-3.85 1.19-7.9 2.14-9 2.11-1.1-0.03-3.63 1.19-5.63 2.73-1.99 1.53-5.33 5.26-7.41 8.28-2.08 3.02-4.63 7.52-5.66 10-1.03 2.48-2.55 8.32-3.37 13-0.81 4.68-2.38 9.85-3.47 11.5-1.09 1.65-3.15 3.9-4.57 5-1.43 1.1-3.93 3.35-5.56 5-1.63 1.65-3.62 3.68-4.42 4.5-1.28 1.32-1.25 1.68 0.22 3 1.31 1.17 4.03 1.45 12.27 1.27 5.83-0.12 12.17-0.42 14.1-0.66 1.93-0.24 6.2 0.02 9.5 0.56 3.3 0.55 9.04 2.31 12.75 3.91 3.71 1.61 7.99 2.93 9.5 2.95 1.51 0.02 4.55-1.15 6.75-2.6 2.2-1.45 5.35-3.86 7-5.37 1.65-1.51 4.57-3.79 6.5-5.08 2.38-1.59 5.43-2.48 9.5-2.77 3.82-0.28 8 0.15 11.5 1.18 3.02 0.9 6.63 1.62 8 1.6 1.47-0.01 4.35-1.66 7-4.01 2.48-2.19 6.3-4.88 8.5-5.97 2.71-1.34 6.09-1.99 10.5-2.02 3.82-0.02 8.15 0.64 10.5 1.6 2.71 1.11 5.61 1.47 9 1.12 2.75-0.29 9.27-1.92 14.5-3.63 5.49-1.8 11.61-3.12 14.5-3.12 2.75 0 7.93 0.89 11.5 1.99 3.8 1.16 9.62 4.15 14 7.18 4.13 2.86 9.98 6.3 13 7.65 4.39 1.96 6.46 2.33 10.25 1.84 2.61-0.34 4.98-1.07 5.25-1.62 0.27-0.55 0.95-0.77 1.5-0.5 0.55 0.27 1 0.05 1-0.5 0-0.55-1.76-4.26-3.9-8.25-2.15-3.99-4.21-8.82-4.59-10.75-0.37-1.93-1.6-6.2-2.74-9.5-1.14-3.3-3.06-7.57-4.28-9.5-1.21-1.93-4.18-5.32-6.6-7.55-2.41-2.23-5.51-4.77-6.89-5.64-1.37-0.86-4.52-1.87-7-2.24-2.48-0.37-6.86-1.77-9.75-3.12-2.89-1.35-5.48-2.9-5.75-3.45-0.27-0.55-0.95-1-1.5-1-0.55 0-0.95 0.56-0.88 1.25 0.06 0.69 0.06 2.49 0 4-0.07 1.51-1.13 3.62-2.37 4.69-1.76 1.51-3.24 1.83-6.75 1.43-2.48-0.28-6.52-1.48-9-2.66-2.48-1.19-6.41-3.98-8.74-6.19l-4.24-4.02c-1.74 6.2-3.21 8.8-4.39 9.78-1.17 0.98-3.37 1.77-4.88 1.75-1.51-0.02-4.44-0.87-6.5-1.89-2.06-1.02-5.43-3.84-7.48-6.25l-3.73-4.39c-1.43 3.88-3.12 6.18-4.69 7.63-1.57 1.44-3.86 3.13-5.1 3.75-1.24 0.62-3.94 1.12-6 1.12-2.06-0.01-5.21-0.91-7-2-1.79-1.1-3.93-3.35-4.75-5-0.82-1.65-1.84-2.99-2.25-2.98-0.41 0.02-2.78 1.37-5.25 3.02-2.47 1.64-6.3 3.24-8.5 3.56-3.16 0.45-4.72 0.08-7.46-1.76-2.33-1.57-4.09-3.98-5.38-7.34-1.05-2.75-2.22-5.77-2.59-6.71-0.58-1.45-1.34-1.11-5.13 2.32zm171.75 206.64c0.38 1.51 0.72 4.53 0.75 6.7 0.06 3.76-0.11 3.98-3.69 4.75-2.58 0.55-5.07 0.34-8-0.69-2.34-0.81-4.59-1.49-5-1.5-0.41 0-0.52 0.89-0.25 1.99 0.3 1.2-0.3 2.8-1.5 4-1.11 1.11-3.33 2-5 2-1.65 0-6.49-0.69-10.75-1.53-5.42-1.06-10.91-3.18-18.25-7.01-5.77-3.03-10.61-5.49-10.75-5.48-0.14 0.01-0.26 0.81-0.28 1.77-0.02 0.96-1.25 4-2.74 6.75-1.5 2.75-3.17 5.36-3.72 5.79-0.56 0.44-3.49 0.64-6.51 0.45-3.24-0.2-7.5-1.34-10.37-2.79-2.68-1.35-6.47-4.25-8.43-6.45-3.3-3.72-3.63-3.87-4.63-2.09-0.59 1.05-1.86 2.74-2.82 3.75-0.96 1.01-1.75 2.29-1.75 2.84 0 0.55-0.68 1-1.5 1-0.82 0-1.65 0.56-1.84 1.25-0.18 0.69-2.32 2.26-4.75 3.49-2.63 1.33-6.23 2.23-8.91 2.23-3.03 0-5.55-0.74-7.71-2.24-1.77-1.23-4.47-4.16-6-6.52-1.54-2.35-3.13-4.27-3.54-4.25-0.41 0.02-1.09 0.64-1.5 1.37-0.41 0.73-4.35 3.35-8.75 5.82-4.4 2.47-9.57 5.02-11.5 5.66-1.93 0.64-5.53 1.34-8 1.56-2.47 0.22-5.85 0.03-7.5-0.42-1.65-0.45-4.35-2.35-6-4.23-1.65-1.88-3.45-4.19-4-5.14-0.91-1.57-1.69-1.39-9 2.1-7.46 3.56-8.6 3.82-17 3.79-6.27-0.02-9.91-0.51-12-1.62-1.65-0.88-4.46-3.23-6.25-5.22-1.79-2-3.68-5.32-4.2-7.38-0.53-2.06-0.75-4.09-0.5-4.5 0.25-0.41-1.6-0.75-4.1-0.75-3.44 0-5.08 0.56-6.75 2.3-1.21 1.27-3.11 3.41-4.21 4.75-1.11 1.35-2.98 3.8-4.17 5.45-1.18 1.65-3.69 6.15-5.57 10-1.89 3.85-4 9.02-4.69 11.5-0.83 2.96-1.1 8.42-0.79 16 0.46 11.31 0.43 11.55-2.17 14.5-1.45 1.65-4.63 3.9-7.07 5-2.43 1.1-7.6 4.02-11.48 6.5-3.88 2.48-8.39 5.63-10.03 7-1.64 1.38-5.92 5.45-9.5 9.05-3.59 3.61-8.06 8.56-9.94 11-1.91 2.48-3.39 5.56-3.36 6.95 0.04 1.48 1.33 3.62 3.17 5.25 2.68 2.37 3.98 2.75 9.36 2.77 3.44 0.01 8.28-0.72 10.75-1.63 2.82-1.03 7.67-1.66 13-1.69 7.99-0.03 9.1 0.23 18.5 4.51 5.5 2.51 10.79 4.83 11.75 5.17 0.96 0.34 6.14 0.66 11.5 0.7 7.22 0.06 11.31-0.43 15.75-1.9 3.3-1.09 8.93-2.51 12.5-3.16 4.06-0.73 9.32-0.89 14-0.43 5.93 0.58 8.23 0.4 11-0.86 1.93-0.88 8.45-6.62 14.5-12.75 7.3-7.4 12.68-11.96 16-13.55 2.75-1.31 8.38-3.03 12.5-3.81 5.54-1.04 9.07-1.16 13.5-0.46 3.3 0.53 8.7 2.25 12 3.82 3.3 1.58 8.7 4.64 12 6.81 4.89 3.22 7.2 4.06 12.5 4.56 4.77 0.45 8.5 0.11 14-1.29 6.75-1.71 7.95-1.76 12-0.48 2.48 0.78 6.19 2.77 8.25 4.42l3.75 3c8.52-6.2 12.35-10.02 14-12.5 1.65-2.48 3-4.95 3-5.5 0-0.55 1.35-3.7 3-7 1.65-3.3 2.99-6.56 2.98-7.25-0.01-0.69 0.56-1.84 1.25-2.57 0.7-0.73 2.26-3.65 3.47-6.5 1.21-2.85 2.67-5.07 3.25-4.93 0.58 0.14 0.82-0.2 0.55-0.75-0.27-0.55 0.82-3.81 2.43-7.25 1.62-3.44 4.35-7.6 6.07-9.25 2.92-2.78 3.66-2.99 10.32-2.92 5.96 0.07 8.2 0.6 13.18 3.16 3.3 1.7 8.72 5.71 12.04 8.92 3.31 3.21 7.81 8.08 10 10.81 2.18 2.73 5.03 6.11 6.34 7.5 1.31 1.39 4.91 5.63 8 9.41 3.09 3.78 7.31 7.72 9.37 8.75 2.06 1.03 6.11 2.33 9 2.9 4.1 0.8 6.24 1.98 9.75 5.38 2.48 2.4 5.51 4.86 6.75 5.47 1.24 0.62 4.61 1.13 7.5 1.15 3.74 0.02 6.62-0.7 10-2.5 2.77-1.47 5.38-3.78 6.25-5.53 0.82-1.65 1.49-3.56 1.48-4.25 0-0.69-1.71-5.08-3.79-9.75-2.08-4.67-5.75-11.2-8.17-14.5-2.42-3.3-6-7.5-7.96-9.33-1.96-1.83-6.71-5.17-10.56-7.42-3.85-2.24-8.52-5.25-10.38-6.67-1.85-1.42-3.95-3.7-4.65-5.08-0.7-1.37-2.25-6.32-3.44-11-1.18-4.67-3.32-10.52-4.75-13-1.43-2.48-4.89-7.51-7.69-11.18-5.07-6.65-5.1-6.67-6.76-4.5-1.36 1.78-2.9 2.25-8.5 2.55-4.14 0.22-9.79-0.3-14.33-1.33-4.12-0.94-8.96-2.34-10.75-3.12l-3.25-1.42zm-125.19 236.48c-3.61 0.59-7.2 1.92-9 3.35-1.65 1.3-3.37 2.38-3.82 2.39-0.45 0.02-1.58 0.79-2.5 1.71-0.93 0.92-5.73 4.92-10.68 8.88-5.13 4.11-13.08 9.21-18.5 11.86-5.23 2.57-10.85 5.39-12.5 6.27-1.65 0.89-5.03 3.22-7.5 5.18-2.48 1.96-4.82 4.03-5.21 4.6-0.38 0.56-0.16 1.33 0.5 1.7 0.67 0.37 3.23 1.37 5.71 2.24 2.47 0.86 9.45 1.91 15.5 2.33 7.43 0.52 14.24 0.35 21-0.52 5.5-0.7 14.05-1.12 19-0.92 4.95 0.2 12.82 0.96 17.5 1.69 4.67 0.73 9.62 1.05 11 0.72 1.37-0.34 3.51-1.53 4.75-2.66 1.24-1.13 2.51-1.71 2.82-1.3 0.32 0.41 0.1-0.49-0.5-2-0.59-1.51-1.07-4.89-1.06-7.5 0.01-2.61 0.68-7.22 1.49-10.25 0.81-3.02 1.48-8.31 1.49-11.75 0.01-5.39-0.37-6.69-2.74-9.42-1.51-1.75-5-4.22-7.75-5.49-2.87-1.33-6.71-2.27-9-2.21-2.2 0.06-6.7 0.55-10 1.1z"/>
		<path id="Path 5" class="s5" d="m346.5 331.16c-1.1 0.61-3.57 2.54-5.5 4.31-1.93 1.76-5.19 4.18-7.25 5.37-2.06 1.19-6.11 2.44-9 2.79-2.96 0.36-6.77 0.16-8.75-0.46-1.93-0.61-6.99-3.37-11.25-6.14-6.34-4.11-8.11-4.85-9.75-4.03-1.29 0.65-2.73 3.39-4.06 7.75-1.13 3.71-3.25 8.32-4.71 10.25-1.45 1.92-3.34 4.05-4.19 4.72-0.85 0.67-2.67 1.24-4.04 1.26-1.38 0.03-3.88-0.97-5.57-2.21-1.68-1.25-5.78-5.2-9.11-8.77l-6.05-6.5c-6.2 6.2-9.19 10.25-10.64 13-1.45 2.75-2.65 5.45-2.66 6-0.02 0.55-1.71 2.98-3.75 5.41-2.31 2.73-5.81 5.35-9.22 6.88-4.63 2.08-6.53 2.39-12 1.96-4.38-0.34-9.1-1.65-14.5-4.03-4.4-1.93-8.9-3.8-10-4.16-1.1-0.35-5.82 0.27-10.5 1.39-4.68 1.11-10.3 2.01-12.5 2.01-3.87-0.01-4.08 0.17-6.35 5.27-1.29 2.9-3.41 7.52-4.71 10.27-1.29 2.75-4.51 8.24-7.15 12.2-2.63 3.95-7.49 10.25-10.79 13.98-3.3 3.74-10.37 11.3-15.72 16.81-5.35 5.5-10.41 11.02-11.25 12.26-1.46 2.15-1.41 2.26 1.22 2.39 1.51 0.08 5.67 0.04 9.25-0.09 3.57-0.13 7.29-0.64 8.25-1.14 0.96-0.5 3.1-0.91 4.75-0.91 2.11 0 3.34 0.67 4.13 2.25 0.62 1.24 1.41 4.67 1.75 7.62l0.62 5.36c9.3-0.9 13.69-1.63 15.75-2.19 2.52-0.7 4.41-0.71 5.75-0.04 1.1 0.55 2.07 1.79 2.15 2.75 0.09 0.96 0.2 5.12 0.25 9.24l0.1 7.49c5.47 1.94 8.97 2.24 11.5 1.93 2.47-0.3 6.53-1.13 9-1.85 2.47-0.72 6.53-2.19 9-3.26 2.47-1.07 6.75-2.67 9.5-3.54 2.75-0.88 5.56-1.41 6.25-1.18 0.69 0.23 1.29 1.43 1.35 2.67 0.05 1.24 0.05 3.94 0 6-0.09 3.21 0.3 3.9 2.65 4.81 2.2 0.85 4.05 0.62 9.25-1.16 3.57-1.22 8.75-3.54 11.5-5.16 2.75-1.62 7.03-4.57 9.5-6.56 2.47-1.99 4.81-4.08 5.2-4.65 0.47-0.7 1.58-0.71 3.45-0.03 2.08 0.75 3.66 2.86 6.39 8.5 2.09 4.34 4.43 7.77 5.54 8.14 1.24 0.42 3.68-0.44 6.92-2.43 2.75-1.69 6.47-4.68 8.27-6.64 1.79-1.96 4.27-5.03 5.5-6.82 1.23-1.79 3.02-3.48 3.98-3.75 0.96-0.28 2.2-0.28 2.75 0 0.55 0.27 1.69 1.96 2.53 3.75 0.85 1.79 2.65 4.49 4 6 1.36 1.51 3.93 3.65 5.72 4.75 1.79 1.09 4.38 2.01 5.75 2.04 1.38 0.03 3.18-0.7 4-1.61 0.82-0.92 2.85-4.42 4.5-7.8 2.88-5.88 3.14-6.12 6.5-5.91 2.01 0.13 6.26 1.92 10 4.21 3.57 2.19 8.75 4.97 11.5 6.18 2.75 1.21 8.1 2.47 11.89 2.79l6.89 0.6c-1.17-5.43-1.92-7.45-2.42-8-0.5-0.55-0.79-2.35-0.63-4 0.21-2.39 0.68-2.93 2.27-2.65 1.1 0.2 3.8 2.03 6 4.08 2.58 2.4 5.42 3.97 8 4.43 2.2 0.39 4.06 0.58 4.14 0.42 0.07-0.15-1.39-3.43-3.24-7.28-1.86-3.85-3.38-8.01-3.39-9.25 0-1.24 0.44-2.48 0.99-2.75 0.55-0.27 2.46 0.82 4.25 2.43 1.89 1.7 6.6 4.03 11.25 5.56 4.4 1.45 11.15 2.81 15 3.03 3.85 0.21 8.01 0.18 9.25-0.07 1.24-0.25 2.25-0.9 2.25-1.45 0-0.55-0.92-2.24-2.03-3.75-1.12-1.51-2.02-3.76-2-5 0.02-1.57 0.63-2.25 2.03-2.25 1.1 0 3.91 0.96 6.25 2.14 2.34 1.18 7.07 2.42 10.51 2.75 4.67 0.46 6.26 0.29 6.25-0.64-0.01-0.69-0.46-1.25-1.01-1.25-0.55 0-1.68-1.13-2.5-2.5-0.82-1.38-1.27-3.4-1-4.5 0.27-1.1 1.06-2 1.75-1.99 0.69 0 2.6 0.69 4.25 1.53 1.65 0.84 4.35 1.52 6 1.52 1.65 0 3.75-0.8 4.67-1.78 1.52-1.62 1.53-2.1 0.16-5.28-0.84-1.95-7.41-9.28-14.79-16.5-7.31-7.15-16.09-16.83-19.53-21.5-3.43-4.68-8.61-12.55-11.51-17.5-2.89-4.95-5.51-9.9-5.83-11-0.31-1.1-1.82-2.55-3.37-3.23-1.54-0.68-3.92-2.38-5.3-3.78-1.62-1.64-3.56-2.52-5.5-2.49-1.65 0.03-4.8-0.68-7-1.56-2.71-1.09-8.03-5.77-16.5-14.53-11.39-11.77-12.81-12.91-16-12.88-1.93 0.02-4.4 0.53-5.5 1.13z"/>
		<path id="Path 6" class="s0" d="m346.69 355.73c-1.43 2.07-3.31 5.79-4.17 8.27-0.86 2.48-1.55 6.41-1.54 8.75 0.01 2.34 0.72 5.94 1.57 8 0.85 2.06 3.21 5.46 5.25 7.55 2.52 2.59 5.37 4.25 8.95 5.25 2.89 0.8 6.26 1.19 7.5 0.87 1.24-0.32 4.18-1.33 6.54-2.25 3.16-1.23 4.56-2.46 5.32-4.67 0.77-2.24 0.65-4.4-0.48-8.5-0.83-3.02-3.04-7.52-4.92-10-1.87-2.48-6.51-7.03-10.31-10.13-3.79-3.09-7.85-5.91-9-6.27-1.66-0.5-2.65 0.15-4.71 3.13zm57.06 250.77c-2.78 1.85-4.04 3.6-4.88 6.75-0.61 2.34-1.8 5.83-2.63 7.75-0.83 1.92-2.17 6.65-2.98 10.5-0.81 3.85-1.5 9.92-1.54 13.5-0.05 4.61 0.54 7.81 2.03 11 1.15 2.47 3.7 5.96 5.67 7.75 1.97 1.79 7.07 5 11.33 7.14 4.26 2.14 10.45 5.89 13.75 8.32 3.3 2.44 7.13 5.04 8.5 5.77 1.38 0.73 3.85 1.7 5.5 2.16 1.76 0.49 4.65 0.41 7-0.2 2.2-0.57 5.28-1.58 6.85-2.24 1.66-0.7 3.88-3.08 5.33-5.7 2.1-3.81 2.38-5.27 1.82-9.5-0.37-2.75-1.5-6.8-2.5-9-1.06-2.31-2-7.17-2.23-11.5-0.26-4.87-1.14-9.08-2.53-12-1.17-2.48-4.06-6.7-6.43-9.38-2.37-2.69-5.88-5.5-7.81-6.25-2.46-0.95-3.85-2.33-4.68-4.61-0.65-1.79-2.9-4.8-5-6.68-2.1-1.88-5.28-4.02-7.07-4.75-1.79-0.73-5.61-1.33-8.5-1.33-3.94-0.01-6.18 0.61-9 2.5z"/>
		<path id="Path 7" class="s2" d="m347.89 376.83c0.05 0.37 0.86 1.8 1.81 3.17 0.94 1.38 2.4 3.05 3.25 3.72 0.85 0.67 3.35 1.22 5.55 1.23 2.2 0.01 5.13-0.55 6.5-1.24 1.61-0.81 2.59-2.23 2.75-3.98l0.25-2.73c-9.69 0.96-14.24 0.77-16.36 0.2-2.12-0.57-3.81-0.74-3.75-0.37zm94.8 263.92c-0.29 1.51-1.46 3.99-2.61 5.5-1.14 1.51-4.44 3.82-7.33 5.13-4.13 1.87-6.53 2.31-11.25 2.03-3.3-0.2-9.64-1.38-14.09-2.64l-8.1-2.27c1.29 3.88 3.02 6.46 4.68 8.25 1.65 1.79 3.46 3.02 4.01 2.75 0.55-0.27 1.11-0.12 1.25 0.35 0.14 0.46 3.18 2.23 6.75 3.92 3.58 1.69 9.65 5.44 13.5 8.33 6.09 4.58 7.45 5.2 10.5 4.76 1.93-0.28 4.96-1.49 6.75-2.68 2.1-1.41 3.43-3.24 3.75-5.18 0.32-1.95-0.19-4.14-1.47-6.25-1.08-1.79-2.39-4.6-2.92-6.25-0.62-1.95-0.6-4.4 0.07-7 0.71-2.8 0.69-5.13-0.08-7.75-0.61-2.06-1.5-3.75-1.99-3.75-0.5 0-1.13 1.24-1.42 2.75z"/>
		<path id="Path 8" class="s4" d="m349.47 366.25c-0.87 2.89-1.44 6.36-1.27 7.71q0.3 2.46 2.8 3.15c1.37 0.38 4.52 0.73 7 0.78 2.47 0.04 5.51-0.14 6.75-0.4 1.24-0.27 2.27-0.83 2.29-1.24 0.01-0.41-3.25-4.02-7.25-8.02-4.01-3.99-7.62-7.26-8.02-7.25-0.4 0.01-1.43 2.38-2.3 5.27zm63.53 247.47c-0.83 0.3-2.99 2.18-4.82 4.17-1.99 2.17-4.13 6.2-5.37 10.11-1.13 3.58-2.34 9.94-2.68 14.15-0.35 4.21-0.29 7.48 0.12 7.25 0.41-0.22 4.01 0.5 8 1.6 3.99 1.1 9.95 2.17 13.25 2.38 4.75 0.31 7.1-0.11 11.25-2 2.89-1.31 6.17-3.62 7.3-5.13 1.13-1.51 2.45-4.33 2.94-6.25 0.74-2.89 0.54-3.94-1.14-6-1.12-1.37-4.58-3.85-7.69-5.5-4.61-2.44-6.08-3.88-7.91-7.75-1.41-2.98-3.36-5.31-5.25-6.25-1.65-0.83-3.79-1.46-4.75-1.42-0.96 0.04-2.43 0.33-3.25 0.64z"/>
	</g>
</svg>