<svg version="1.2" xmlns="http://www.w3.org/2000/svg" viewBox="0 0 350 350" width="350" height="350">
	<style>
		.s0 { fill: #1a1a1a } 
		.s1 { fill: #cdcdcd } 
		.s2 { fill: #ffffff } 
	</style>
	<g id="Background">
		<path id="Path 0" class="s0" d="m156 9.71c-1.93 0.21-6.88 1.09-11 1.96-4.13 0.87-9.53 1.92-12 2.33-2.47 0.41-6.08 1.45-8 2.32-1.92 0.88-5.75 2.46-8.5 3.52-2.75 1.06-9.72 4.27-15.5 7.13-5.78 2.86-11.85 5.95-13.49 6.86-1.65 0.92-7.72 5.27-13.48 9.67-5.76 4.4-14.55 12.05-19.52 17-4.98 4.95-11.52 12.27-14.53 16.27-3.01 3.99-6.38 8.94-7.48 10.99-1.1 2.05-2.28 3.96-2.62 4.23-0.35 0.28-2.48 4.22-4.75 8.76-2.27 4.54-5.3 11.51-6.73 15.5-1.44 3.99-3.87 11.97-5.42 17.75-1.54 5.78-3.41 14.32-4.14 19-0.74 4.68-1.31 15.47-1.28 24 0.03 8.53 0.64 19.32 1.37 24 0.72 4.68 1.9 10.75 2.61 13.5 0.71 2.75 2.5 9.05 3.96 14 1.46 4.95 3.47 10.8 4.47 13 1 2.2 2.57 5.8 3.47 8 0.91 2.2 4.44 8.67 7.86 14.37 3.41 5.71 10.28 15.16 15.26 21 4.99 5.85 12 13.33 15.6 16.63 3.59 3.3 10.31 8.54 14.94 11.64 4.62 3.11 12.56 7.72 17.65 10.25 5.09 2.54 12.96 5.98 17.5 7.64 4.54 1.67 12.53 4.11 17.75 5.41 5.22 1.31 14 3.2 19.5 4.22 7.6 1.4 14.79 1.84 30 1.82 15.98-0.01 21.41-0.38 27-1.82 3.85-0.99 10.15-2.69 14-3.77 3.85-1.09 8.8-2.7 11-3.57 2.2-0.88 6.7-2.89 10-4.46 3.3-1.57 8.03-4.04 10.5-5.47 2.47-1.44 9.45-5.93 15.5-9.99 6.05-4.06 15.32-11.54 20.59-16.64 5.28-5.09 11.8-11.96 14.5-15.26 2.7-3.31 5.36-6.73 5.91-7.61 0.55-0.87 2.17-3.35 3.61-5.49 1.43-2.15 5.06-8.63 8.06-14.4 3-5.78 6.65-13.65 8.1-17.5 1.45-3.85 3.78-11.5 5.18-17 1.4-5.5 3.16-14.72 3.92-20.5 0.76-5.78 1.46-14.1 1.56-18.5 0.11-4.4-0.51-13.62-1.36-20.5-0.85-6.87-2.7-17.22-4.11-23-1.41-5.78-4.37-15-6.58-20.5-2.21-5.5-6.32-14.28-9.12-19.5-2.8-5.22-6.67-11.75-8.59-14.5-1.93-2.75-5.03-7.03-6.9-9.5-1.86-2.47-7.08-8.27-11.58-12.88-4.51-4.61-11.12-10.74-14.69-13.61-3.57-2.88-8.98-6.95-12-9.05-3.02-2.1-11.12-6.63-18-10.07-6.87-3.44-17.45-7.81-23.5-9.71-6.05-1.91-13.03-3.97-15.5-4.58-2.47-0.62-9.11-1.79-14.75-2.61-5.64-0.82-15.31-1.42-21.5-1.33-6.19 0.09-12.82 0.33-14.75 0.55z"/>
		<path id="Path 1" class="s1" d="m314.11 232.5c-0.07 0.55-2.62 4.15-5.68 8-3.06 3.85-8.17 9.7-11.36 13-3.19 3.3-7.99 7.9-10.68 10.23-2.69 2.33-7.37 6.18-10.39 8.56-3.02 2.38-8.88 6.37-13 8.88-4.13 2.5-11.33 6.38-16 8.61-4.68 2.23-10.64 4.99-13.25 6.13-2.61 1.15-5.65 2.09-6.75 2.09-1.1 0-2.23 0.45-2.5 1-0.28 0.55-1.63 1-3 1-1.38 0-2.73 0.45-3 1-0.28 0.55-1.96 1.17-3.75 1.39-1.79 0.21-7.08 1.12-11.75 2.03-4.68 0.91-9.85 1.84-11.5 2.07-1.65 0.23-8.63 0.7-15.5 1.04-7.02 0.35-17.1 0.14-23-0.48-5.78-0.6-15-2-20.5-3.11-5.5-1.11-14.05-3.39-19-5.06-4.95-1.68-13.05-4.95-18-7.27-4.95-2.32-13.05-6.71-18-9.76-4.95-3.04-12.6-8.24-17-11.55-4.4-3.31-12.55-10.47-18.1-15.91-5.56-5.44-9.84-9.2-9.5-8.37 0.33 0.84 2.14 4.22 4.03 7.5 1.88 3.29 5.91 9.35 8.94 13.48 3.03 4.12 9.36 11.34 14.07 16.04 4.71 4.7 11.26 10.57 14.56 13.05 3.3 2.49 9.37 6.57 13.5 9.07 4.12 2.51 9.97 5.89 13 7.51 3.02 1.63 10.9 4.82 17.5 7.09 6.6 2.28 15.37 4.8 19.5 5.6 4.12 0.81 10.87 1.79 15 2.18 4.12 0.39 11.32 0.81 16 0.94 4.67 0.13 14.57-0.57 22-1.55 7.42-0.98 15.75-2.28 18.5-2.89 2.75-0.61 7.25-1.79 10-2.63 2.75-0.83 5.79-1.94 6.75-2.46 0.96-0.52 2.2-0.95 2.75-0.95 0.55 0 2.69-0.74 4.75-1.65 2.06-0.91 6.45-2.92 9.75-4.47 3.3-1.55 6.34-2.83 6.75-2.85 0.41-0.02 2.66-1.25 5-2.75 2.34-1.5 6.95-4.74 10.25-7.21 3.3-2.47 8.64-6.99 11.86-10.03 3.23-3.05 8.66-8.92 12.07-13.04 3.42-4.13 8.7-11.32 11.74-16 3.04-4.68 7.4-12.21 9.68-16.75 2.28-4.54 3.98-9.04 3.77-10-0.22-0.96-0.44-1.3-0.51-0.75z"/>
		<path id="Path 2" class="s2" d="m158.5 22.58c-2.2 0.21-7.15 0.89-11 1.51-3.85 0.61-10.38 2.01-14.5 3.09-4.13 1.09-9.97 2.85-13 3.92-3.03 1.07-6.4 2.35-7.5 2.83-1.1 0.48-5.6 2.55-10 4.59-4.4 2.04-9.91 5.01-12.25 6.59-2.34 1.59-4.55 2.89-4.91 2.89-0.36 0-1.37 0.67-2.25 1.48-0.87 0.82-2.78 2.5-4.23 3.75-1.46 1.25-5.47 4.75-8.93 7.77-3.45 3.03-8.18 7.53-10.49 10-2.32 2.47-5.28 5.85-6.58 7.5-1.3 1.65-3.37 4.46-4.61 6.25-1.24 1.79-2.25 3.47-2.25 3.75 0 0.28-1.71 2.86-3.8 5.75-2.09 2.89-5.42 8.63-7.4 12.75-1.99 4.13-4.97 10.65-6.63 14.5-1.66 3.85-3.97 10.38-5.13 14.5-1.16 4.13-3.04 12.68-4.18 19-1.76 9.8-1.98 14.01-1.5 28.5 0.37 10.96 1.27 20.38 2.53 26.5 1.09 5.22 2.91 12.2 4.05 15.5 1.15 3.3 3.32 8.83 4.82 12.28 1.51 3.46 3.08 6.27 3.49 6.25 0.41-0.02 0.52 0.42 0.25 0.97-0.27 0.55-0.16 0.9 0.25 0.79 0.41-0.12 5.02 3.98 10.25 9.12 5.23 5.14 13.1 12.06 17.5 15.37 4.4 3.32 12.05 8.53 17 11.57 4.95 3.05 13.05 7.44 18 9.76 4.95 2.32 13.05 5.59 18 7.27 4.95 1.67 13.5 3.95 19 5.06 5.5 1.11 14.72 2.51 20.5 3.11 5.9 0.62 15.98 0.83 23 0.48 6.88-0.34 13.85-0.81 15.5-1.04 1.65-0.23 6.82-1.16 11.5-2.07 4.68-0.91 9.96-1.82 11.75-2.03 1.79-0.22 3.47-0.84 3.75-1.39 0.28-0.55 1.63-1 3-1 1.38 0 2.72-0.45 3-1 0.28-0.55 1.4-1 2.5-1 1.1 0 4.14-0.94 6.75-2.09 2.61-1.14 8.57-3.9 13.25-6.13 4.68-2.23 11.88-6.11 16-8.61 4.13-2.51 9.98-6.5 13-8.88 3.02-2.38 7.69-6.23 10.38-8.56 2.68-2.33 6.67-6.03 8.86-8.23 2.19-2.2 5.9-6.25 8.23-9 2.34-2.75 5.89-7.14 7.89-9.75 2-2.61 3.66-4.19 3.68-3.5 0.02 0.69 0.95-1.22 2.08-4.25 1.13-3.02 3.32-10 4.87-15.5 1.55-5.5 3.39-12.7 4.07-16 0.69-3.33 1.28-13.57 1.31-23 0.05-12.18-0.44-19.84-1.72-27-0.99-5.5-2.7-12.93-3.81-16.5-1.12-3.57-3.65-10.55-5.62-15.5-1.98-4.95-5.89-13.05-8.69-18-2.79-4.95-7.82-12.6-11.17-17-3.36-4.4-8.53-10.47-11.5-13.5-2.98-3.02-7.87-7.57-10.88-10.1-3.02-2.53-8.86-6.85-12.98-9.59-4.13-2.75-11.55-7.03-16.5-9.53-4.95-2.49-13.95-6.14-20-8.11-6.05-1.97-14.6-4.31-19-5.21-5.02-1.02-14.52-1.74-25.5-1.94-9.63-0.18-19.3-0.15-21.5 0.06z"/>
	</g>
</svg>