<svg version="1.2" xmlns="http://www.w3.org/2000/svg" viewBox="0 0 350 349" width="350" height="349">
	<style>
		.s0 { fill: #1a1a1a } 
		.s1 { fill: #cdcdcd } 
		.s2 { fill: #ffffff } 
		.s3 { fill: #ff5e5e } 
		.s4 { fill: #ff925e } 
	</style>
	<g id="Background">
		<path id="Path 0" class="s0" d="m157 9.71c-1.93 0.21-6.88 1.09-11 1.96-4.13 0.87-9.53 1.92-12 2.33-2.47 0.41-6.07 1.45-8 2.32-1.92 0.88-5.75 2.46-8.5 3.52-2.75 1.06-9.72 4.27-15.5 7.13-5.78 2.86-11.85 5.95-13.49 6.86-1.65 0.92-7.72 5.27-13.48 9.67-5.76 4.4-14.55 12.05-19.52 17-4.98 4.95-11.52 12.27-14.53 16.27-3.01 3.99-6.38 8.94-7.48 10.99-1.1 2.05-2.28 3.96-2.62 4.23-0.35 0.28-2.48 4.22-4.75 8.76-2.27 4.54-5.3 11.51-6.73 15.5-1.44 3.99-3.87 11.97-5.42 17.75-1.54 5.78-3.41 14.32-4.14 19-0.74 4.68-1.31 15.47-1.28 24 0.03 8.53 0.64 19.32 1.37 24 0.72 4.68 1.9 10.75 2.61 13.5 0.71 2.75 2.5 9.05 3.96 14 1.46 4.95 3.47 10.8 4.47 13 1 2.2 2.57 5.8 3.47 8 0.91 2.2 4.44 8.67 7.86 14.37 3.41 5.71 10.28 15.16 15.26 21 4.99 5.85 12 13.33 15.6 16.63 3.59 3.3 10.31 8.54 14.94 11.64 4.62 3.11 12.56 7.72 17.65 10.25 5.09 2.54 12.96 5.98 17.5 7.64 4.54 1.67 12.53 4.11 17.75 5.41 5.22 1.31 14 3.2 19.5 4.22 7.6 1.4 14.79 1.84 30 1.82 15.98-0.01 21.41-0.38 27-1.82 3.85-0.99 10.15-2.69 14-3.77 3.85-1.09 8.8-2.7 11-3.57 2.2-0.88 6.7-2.89 10-4.46 3.3-1.57 8.03-4.04 10.5-5.47 2.48-1.44 9.45-5.93 15.5-9.99 6.05-4.06 15.32-11.54 20.59-16.64 5.28-5.09 11.8-11.96 14.5-15.26 2.7-3.31 5.36-6.73 5.91-7.61 0.55-0.87 2.17-3.35 3.61-5.49 1.43-2.15 5.06-8.63 8.06-14.4 3-5.78 6.65-13.65 8.1-17.5 1.45-3.85 3.78-11.5 5.18-17 1.4-5.5 3.16-14.72 3.92-20.5 0.76-5.78 1.46-14.1 1.56-18.5 0.11-4.4-0.51-13.62-1.36-20.5-0.85-6.87-2.7-17.22-4.11-23-1.41-5.78-4.37-15-6.58-20.5-2.21-5.5-6.32-14.28-9.12-19.5-2.8-5.22-6.67-11.75-8.59-14.5-1.93-2.75-5.03-7.03-6.9-9.5-1.86-2.47-7.08-8.27-11.58-12.88-4.51-4.61-11.12-10.74-14.69-13.61-3.57-2.88-8.98-6.95-12-9.05-3.02-2.1-11.12-6.63-18-10.07-6.87-3.44-17.45-7.81-23.5-9.71-6.05-1.91-13.03-3.97-15.5-4.58-2.47-0.62-9.11-1.79-14.75-2.61-5.64-0.82-15.31-1.42-21.5-1.33-6.19 0.09-12.82 0.33-14.75 0.55z"/>
		<path id="Path 1" class="s1" d="m308.72 241.25c-3.61 4.54-8.79 10.5-11.51 13.25-2.72 2.75-7.14 6.9-9.83 9.23-2.68 2.33-7.36 6.18-10.38 8.56-3.03 2.38-9.1 6.51-13.5 9.17-4.4 2.67-12.5 6.98-18 9.59-5.5 2.6-11.8 5.29-14 5.98-2.2 0.69-4.9 1.59-6 2.01-1.1 0.42-3.35 1.2-5 1.73-1.65 0.54-5.25 1.47-8 2.07-2.75 0.61-7.7 1.56-11 2.13-3.3 0.57-6.9 1.22-8 1.44-1.1 0.22-7.85 0.7-15 1.07-7.15 0.36-17.73 0.21-23.5-0.35-5.78-0.56-15.23-1.95-21-3.11-5.78-1.15-14.55-3.47-19.5-5.14-4.95-1.68-13.05-4.95-18-7.27-4.95-2.32-13.05-6.71-18-9.76-4.95-3.04-12.6-8.26-17-11.59-4.4-3.33-11.65-9.59-16.12-13.91-4.46-4.32-8.93-8.95-9.93-10.29-1-1.34-1.96-2.13-2.13-1.75-0.18 0.38 1.57 3.95 3.88 7.94 2.31 3.99 6.67 10.62 9.69 14.75 3.02 4.12 9.34 11.34 14.05 16.04 4.71 4.7 11.26 10.57 14.56 13.05 3.3 2.49 9.37 6.57 13.5 9.07 4.12 2.51 9.97 5.89 13 7.51 3.02 1.63 10.9 4.82 17.5 7.09 6.6 2.28 15.37 4.8 19.5 5.6 4.12 0.81 10.87 1.79 15 2.18 4.12 0.39 11.32 0.81 16 0.94 4.67 0.13 14.57-0.57 22-1.55 7.42-0.98 15.75-2.28 18.5-2.89 2.75-0.61 7.25-1.79 10-2.63 2.75-0.83 5.79-1.94 6.75-2.46 0.96-0.52 2.2-0.95 2.75-0.95 0.55 0 2.69-0.74 4.75-1.65 2.06-0.91 6.45-2.92 9.75-4.47 3.3-1.55 6.34-2.83 6.75-2.85 0.41-0.02 2.66-1.25 5-2.75 2.34-1.5 6.95-4.74 10.25-7.21 3.3-2.47 8.64-6.99 11.86-10.03 3.23-3.05 8.66-8.92 12.07-13.04 3.42-4.13 8.7-11.32 11.74-16 3.04-4.68 7.55-12.66 10.01-17.75 2.46-5.09 4.17-9.25 3.79-9.25-0.37 0-3.63 3.71-7.25 8.25z"/>
		<path id="Path 2" class="s2" d="m159.5 22.58c-2.2 0.21-7.15 0.89-11 1.51-3.85 0.61-10.38 2.01-14.5 3.09-4.13 1.09-9.97 2.85-13 3.92-3.03 1.07-6.4 2.35-7.5 2.83-1.1 0.48-5.6 2.55-10 4.59-4.4 2.04-9.91 5.01-12.25 6.59-2.34 1.59-4.55 2.89-4.91 2.89-0.36 0-1.37 0.67-2.25 1.48-0.87 0.82-2.78 2.5-4.23 3.75-1.46 1.25-5.47 4.75-8.93 7.77-3.45 3.03-8.18 7.53-10.49 10-2.32 2.47-5.28 5.85-6.58 7.5-1.3 1.65-3.37 4.46-4.61 6.25-1.24 1.79-2.25 3.47-2.25 3.75 0 0.28-1.71 2.86-3.8 5.75-2.09 2.89-5.42 8.63-7.4 12.75-1.99 4.13-4.97 10.65-6.63 14.5-1.66 3.85-3.97 10.38-5.13 14.5-1.16 4.13-3.04 12.68-4.18 19-1.76 9.8-1.98 14.01-1.5 28.5 0.37 10.96 1.27 20.38 2.53 26.5 1.09 5.22 2.91 12.2 4.05 15.5 1.15 3.3 3.32 8.83 4.82 12.28 1.51 3.46 3.19 6.27 3.74 6.26 0.55-0.02 2.13 1.6 3.5 3.59 1.38 1.99 6.29 7.05 10.92 11.24 4.64 4.2 11.39 9.84 15 12.53 3.62 2.7 10.63 7.4 15.58 10.45 4.95 3.05 13.05 7.44 18 9.76 4.95 2.32 13.05 5.59 18 7.27 4.95 1.67 13.72 3.99 19.5 5.14 5.78 1.16 15.22 2.55 21 3.11 5.78 0.56 16.35 0.71 23.5 0.35 7.15-0.37 13.9-0.85 15-1.07 1.1-0.22 4.7-0.87 8-1.44 3.3-0.57 8.25-1.52 11-2.13 2.75-0.6 6.35-1.53 8-2.07 1.65-0.53 3.9-1.31 5-1.73 1.1-0.42 3.8-1.32 6-2.01 2.2-0.69 8.5-3.38 14-5.98 5.5-2.61 13.6-6.92 18-9.59 4.4-2.66 10.48-6.79 13.5-9.17 3.02-2.38 7.7-6.23 10.39-8.56 2.69-2.33 7.49-6.93 10.68-10.23 3.18-3.3 8.09-8.93 10.91-12.5 2.82-3.57 5.69-6.95 6.38-7.5 0.68-0.55 2.22-3.47 3.4-6.5 1.19-3.02 3.27-9.55 4.61-14.5 1.35-4.95 3.01-11.7 3.69-15 0.69-3.32 1.28-13.61 1.31-23 0.05-12.18-0.44-19.84-1.72-27-0.99-5.5-2.7-12.93-3.81-16.5-1.12-3.57-3.65-10.55-5.62-15.5-1.98-4.95-5.89-13.05-8.69-18-2.79-4.95-7.82-12.6-11.17-17-3.36-4.4-8.53-10.47-11.5-13.5-2.98-3.02-7.87-7.57-10.88-10.1-3.02-2.53-8.86-6.85-12.98-9.59-4.12-2.75-11.55-7.03-16.5-9.53-4.95-2.49-13.95-6.14-20-8.11-6.05-1.97-14.6-4.31-19-5.21-5.02-1.02-14.52-1.74-25.5-1.94-9.63-0.18-19.3-0.15-21.5 0.06z"/>
		<path id="Path 3" class="s0" d="m221.35 172.92c-1.18 0.43-3.08 1.86-4.22 3.18-1.15 1.32-2.52 3.98-3.06 5.9-0.74 2.63-0.62 4.31 0.47 6.75 0.8 1.79 2.92 4.15 4.71 5.25 1.79 1.09 5.05 2.01 7.25 2.03 2.41 0.02 5-0.71 6.5-1.84 1.38-1.03 3.13-3.4 3.9-5.28 1.12-2.72 1.17-4.12 0.24-6.91-0.64-1.92-1.95-4.43-2.9-5.57-0.96-1.14-2.75-2.6-3.99-3.25-1.24-0.65-3.26-1.15-4.5-1.12-1.24 0.04-3.22 0.42-4.4 0.86zm-106.25 2.33c-2.55 1.3-4.79 3.3-5.33 4.75-0.51 1.38-0.66 4.08-0.32 6 0.34 1.93 1.5 4.74 2.58 6.25 1.08 1.51 3.32 3.43 4.97 4.25 1.65 0.83 4.84 1.61 7.08 1.75 3.59 0.22 4.49-0.2 7.5-3.5 2.89-3.17 3.42-4.49 3.42-8.5-0.01-2.99-0.75-5.95-2-8-1.1-1.79-3.12-3.7-4.5-4.25-1.37-0.55-3.96-1-5.75-1-1.79 0-5.23 1.01-7.65 2.25zm53.35-1.24c-1.12 0.49-3.13 2.83-4.46 5.19-1.81 3.23-2.4 5.79-2.39 10.3 0.02 4.59 0.71 7.39 2.96 11.94 1.78 3.58 4.13 6.65 5.94 7.74 1.65 1 4 1.81 5.22 1.82 1.22 0 3.8-1.57 5.75-3.5 1.94-1.92 4.3-4.96 5.24-6.75 1.14-2.16 1.73-5.63 1.75-10.33 0.04-6.29-0.29-7.55-2.96-11.31-2.05-2.9-4.1-4.52-6.5-5.16-1.93-0.52-4.62-0.91-6-0.88-1.37 0.03-3.42 0.46-4.55 0.94zm-9.51 42.82c-4.92 0.5-7.49 1.36-10.25 3.42-2.03 1.51-3.98 3.99-4.33 5.5-0.36 1.51-0.34 5.45 0.04 8.75 0.37 3.3 1.32 7.35 2.1 9 0.78 1.65 3.01 4.69 4.96 6.75 1.95 2.06 5.23 4.6 7.29 5.65 2.06 1.04 6.45 2.42 9.75 3.07 4.15 0.81 7.85 0.88 12 0.23 3.3-0.52 7.91-2.13 10.25-3.57 2.34-1.45 5.94-4.32 8.01-6.38 2.07-2.06 4.31-5.55 4.98-7.75 0.68-2.2 1.24-6.25 1.26-9 0.02-2.75-0.42-6.46-0.98-8.25-0.73-2.33-2.22-3.86-5.27-5.43-3.71-1.9-6.1-2.21-18.75-2.42-7.97-0.13-17.45 0.07-21.06 0.43z"/>
		<path id="Path 4" class="s3" d="m193.74 227.25c0.27 1.24-0.24 4.16-1.13 6.5-1.27 3.36-2.5 4.66-5.86 6.23-2.34 1.09-6.05 1.97-8.25 1.97-2.2 0-6.03-0.46-8.5-1.03-2.48-0.56-5.97-2.02-7.78-3.22-2.15-1.45-3.86-3.83-5-6.95-0.94-2.62-2.17-4.74-2.72-4.72-0.55 0.02-2.01 0.92-3.25 2-1.92 1.68-2.15 2.6-1.61 6.22 0.35 2.34 1.48 5.94 2.5 8 1.05 2.12 3.49 4.7 5.61 5.93 2.77 1.61 5.98 2.31 12.25 2.67 5.86 0.34 9.59 0.07 12-0.87 1.93-0.75 5.62-2.74 8.2-4.42 3.31-2.16 5.16-4.24 6.24-7.06 0.85-2.2 1.55-5.69 1.55-7.75 0.01-2.75-0.52-4.02-1.99-4.75-1.1-0.55-2.17-1-2.38-1-0.21 0-0.15 1.01 0.12 2.25z"/>
		<path id="Path 5" class="s2" d="m123.33 180.93c-1.62 0.31-3.74 1.25-4.71 2.07-1.05 0.89-1.64 2.51-1.44 4 0.25 1.94 0.98 2.57 3.27 2.81 1.75 0.19 3.87-0.42 5.22-1.5 1.25-0.99 2.33-3.02 2.4-4.5 0.07-1.48-0.3-2.86-0.83-3.07-0.53-0.21-2.29-0.12-3.91 0.19zm98.74 1.57c-1.14 1.37-1.84 3.18-1.57 4 0.28 0.82 1.65 1.5 3.05 1.5 1.4 0 3.65-1.13 5-2.5 1.35-1.38 2.23-3.18 1.95-4-0.29-0.88-1.71-1.5-3.43-1.5-1.92 0-3.66 0.87-5 2.5zm-57.82 42.25c-2.11 0.16-3.25 0.78-3.25 1.75 0 0.82 1.01 2.67 2.25 4.1 1.68 1.95 3.51 2.74 7.25 3.13 2.75 0.29 6.69 0.02 8.75-0.6 2.06-0.62 4.67-2.37 5.78-3.88 1.12-1.51 1.94-3.34 1.82-4.05-0.16-0.99-2.52-1.23-9.78-1-5.26 0.16-11.03 0.41-12.82 0.55z"/>
		<path id="Path 6" class="s4" d="m176.5 180.49c-0.55 0.18-2.24 0.6-3.75 0.92-1.51 0.33-3.43 1.27-4.25 2.09-0.92 0.92-1.49 3.33-1.48 6.25 0.02 2.92 0.88 6.39 2.25 9.02 1.23 2.36 2.91 4.28 3.73 4.28 0.82 0 2.47-1.02 3.65-2.27 1.19-1.26 2.89-4.08 3.78-6.28 0.89-2.2 1.61-5.69 1.59-7.75-0.01-2.06-0.7-4.43-1.52-5.25-0.82-0.82-1.84-1.46-2.25-1.42-0.41 0.04-1.2 0.23-1.75 0.41z"/>
	</g>
</svg>