<svg version="1.2" xmlns="http://www.w3.org/2000/svg" viewBox="0 0 386 375" width="386" height="375">
	<style>
		.s0 { fill: #1a1a1a } 
		.s1 { fill: #727272 } 
		.s2 { fill: #cdcdcd } 
		.s3 { fill: #ffffff } 
	</style>
	<g id="Background">
		<path id="Path 0" class="s0" d="m249.5 17.95c-1.65 0.36-6.08 2.21-9.85 4.1-3.92 1.97-8.63 5.38-11 7.96-2.28 2.48-5.72 6.67-7.65 9.32-1.93 2.64-4.63 5.52-6 6.39-1.38 0.87-2.95 1.67-3.5 1.78-0.55 0.11-1.68 0.43-2.5 0.72-0.82 0.29-3.97 1.23-7 2.1-3.03 0.86-8.13 3.28-11.33 5.38-4.12 2.68-7.23 5.86-10.59 10.8-2.62 3.85-5.84 9.03-7.17 11.5-1.32 2.47-2.67 4.72-3 5-0.32 0.28-1.87 2.75-3.44 5.5-1.57 2.75-3.78 6.24-4.91 7.76-1.13 1.51-3.61 4.56-5.51 6.77-1.9 2.21-5.73 5.87-8.5 8.13-2.78 2.26-5.51 4.61-6.07 5.22-0.57 0.62-1.92 1.7-3 2.4-1.09 0.7-3.27 2.05-4.86 3-1.58 0.95-4.05 2.65-5.5 3.79-1.44 1.14-6.22 4.55-10.62 7.57-4.4 3.01-11.15 7.39-15 9.72-3.85 2.34-7.88 4.78-8.97 5.44-1.08 0.66-4.9 3.5-8.5 6.32-3.59 2.81-10.39 8.89-15.12 13.5-4.72 4.61-9.55 9.73-10.74 11.38-1.19 1.65-3.21 4.57-4.5 6.5-1.28 1.93-2.68 4.62-3.1 6-0.43 1.37-1.34 3.4-2.02 4.5-0.68 1.1-1.94 4.47-2.8 7.5-0.87 3.03-2.05 7.3-2.63 9.5-0.59 2.2-1.57 8.72-2.2 14.5-0.85 7.94-0.84 13.68 0.06 23.5 0.69 7.63 2.22 16.51 3.69 21.5 1.44 4.88 4.06 10.79 6.17 13.89 2.01 2.97 4.65 6.12 5.85 7 2.02 1.48 2.12 2.02 1.21 6.61-0.54 2.75-1.45 7.02-2.02 9.5-0.56 2.48-1.33 7.51-1.7 11.19l-0.68 6.69c-13.17 1.17-17.45 1.39-18 1.26-0.55-0.13-3.25 0.22-6 0.79-2.75 0.56-6.24 1.93-7.75 3.05-1.76 1.29-2.66 2.79-2.5 4.17 0.14 1.18 1.38 2.99 2.75 4.01 2.3 1.71 2.93 1.75 8 0.47 3.02-0.76 8.2-1.55 11.5-1.75 3.3-0.2 10.05-0.35 15-0.34 8.35 0.01 9.54 0.28 16.5 3.72l7.5 3.71c6.97-2.42 11.03-3.36 13.5-3.64 3.49-0.4 5.73 0.07 10 2.07 3.03 1.42 7.08 2.57 9 2.56 1.92-0.02 6.42-0.7 10-1.52 3.57-0.83 8.07-1.76 10-2.07 1.93-0.32 5.41-0.08 7.75 0.53 3.07 0.79 5.71 2.63 9.5 6.59 2.89 3.02 7.28 6.37 9.75 7.43 2.47 1.06 6.75 2.23 9.5 2.6 3.82 0.51 6.53 0.16 11.5-1.51 3.57-1.2 7.18-2.75 8-3.44 0.82-0.68 3.75-2.47 6.5-3.96 2.75-1.48 6.57-2.94 8.5-3.23 2.35-0.36 4.98 0.14 8 1.52 2.47 1.13 5.29 2.07 6.25 2.08 0.96 0.01 3.89-1.41 6.5-3.16 2.61-1.76 4.97-3.46 5.25-3.79 0.28-0.34 3.2-1.79 6.5-3.22 3.3-1.44 8.25-2.91 11-3.27 2.75-0.36 7.25-0.15 10 0.46 2.75 0.62 7.81 2.9 11.25 5.06 3.44 2.17 7.94 4.65 10 5.52 3.42 1.44 4.26 1.44 9.5 0 4.54-1.25 6.75-2.62 10.5-6.51 3.61-3.75 5.59-5.01 8.24-5.25 2.77-0.25 3.9-1.04 5.5-3.8 1.1-1.92 4.71-6.15 8.01-9.41 3.3-3.26 7.46-6.53 9.25-7.27 1.79-0.74 6.29-2 10-2.8 5.08-1.1 8.23-1.23 12.75-0.51 3.3 0.53 6.56 0.96 7.25 0.96 0.69 0.01 1.27-1.23 1.29-2.74 0.03-1.51-0.76-3.68-1.75-4.81-0.98-1.14-3.59-2.67-5.79-3.41-2.2-0.74-6.59-1.27-9.75-1.19-4.82 0.13-5.77-0.12-5.89-1.59-0.08-0.96-0.27-3.32-0.42-5.25-0.15-1.93-0.79-7.77-1.43-13-0.63-5.23-1.8-13.32-2.59-18-0.79-4.68-1.44-9.63-1.44-11 0-1.93 0.72-2.73 3.18-3.5 1.75-0.55 4.47-2.57 6.05-4.5 2.11-2.58 3.06-5.09 3.61-9.5 0.41-3.3 0.43-10.72 0.05-16.5-0.38-5.78-1.89-16.35-3.37-23.5-1.48-7.15-3.84-15.7-5.25-19-1.47-3.44-2.46-7.49-2.32-9.5 0.12-1.93 0.3-8.45 0.38-14.5 0.14-10.39-0.09-11.77-4.21-25-2.4-7.7-6.22-17.73-8.48-22.29-2.27-4.56-6.76-11.99-9.99-16.5-3.23-4.52-7-10.46-8.39-13.21-2.15-4.26-2.57-6.62-2.84-16-0.17-6.05-0.6-12.8-0.96-15-0.35-2.2-1.9-6.7-3.44-10-1.71-3.68-4.68-7.74-7.69-10.5-3.16-2.9-6.84-5.11-10.36-6.23-3.19-1.01-9.81-1.88-15.95-2.1-5.77-0.21-11.85-0.09-13.5 0.28z"/>
		<path id="Path 1" class="s1" d="m262.53 185.65c-0.47 0.38-0.79 1.28-0.7 2.02 0.1 0.73-0.84 2.84-2.08 4.69-1.24 1.84-4.13 5.55-6.42 8.25-2.3 2.69-5.82 6.69-7.82 8.89-2 2.2-4.45 5.57-5.44 7.5-1 1.93-2.54 6.43-3.43 10-0.9 3.57-1.63 7.85-1.64 9.5-0.01 1.65-0.84 5.7-1.84 9-1.01 3.3-2.46 7.12-3.24 8.5-0.78 1.37-1.69 2.73-2.02 3-0.33 0.27-0.92 5.45-1.32 11.5-0.39 6.05-1.02 15.01-1.4 19.92l-0.68 8.92c9.75 10.2 13.8 14.85 15.29 16.92 1.49 2.07 2.38 4.1 1.98 4.5-0.39 0.41-2.64-0.87-5-2.84-2.35-1.97-6.07-5.87-8.27-8.67-2.2-2.8-5.01-5.58-6.25-6.17-2.03-0.97-2.25-1.79-2.24-8.33 0-3.99 0.45-11.3 1-16.25 0.54-4.95 1.26-10.13 1.6-11.5 0.59-2.45 0.53-2.43-3 0.75-1.99 1.79-4.75 3.81-6.14 4.5-1.39 0.69-2.51 1.59-2.5 2 0.02 0.41-0.53 0.74-1.22 0.73-0.69-0.01-2.82 0.73-4.75 1.64-2.55 1.22-4.72 1.48-8 0.99-2.47-0.38-6.07-1.64-8-2.81-1.92-1.17-4.56-3.06-5.85-4.21-1.29-1.15-3.41-3.89-4.71-6.09-1.3-2.2-3.3-6.93-4.45-10.5-1.14-3.57-2.53-7.63-3.08-9-0.7-1.77-1.64-2.42-3.2-2.24-1.22 0.15-4.91 3.09-8.21 6.53-3.3 3.45-7.12 7.83-8.48 9.74-1.36 1.91-3.39 4.42-4.5 5.59-1.11 1.16-4.27 4.72-7.02 7.91-2.75 3.19-7.92 8.9-11.5 12.69-3.57 3.79-7.85 7.6-9.5 8.46-1.65 0.87-4.8 2.48-7 3.58-2.2 1.11-7.37 3.12-11.5 4.47-5.49 1.81-9.91 2.5-16.5 2.6-5.5 0.08-9.88-0.34-11.25-1.1-1.24-0.68-2.59-0.96-3-0.63-0.41 0.33-1.28 6.96-1.93 14.75-0.64 7.78-1.09 14.18-1 14.22 0.1 0.04 2.09 0.6 4.43 1.25 2.34 0.65 5.42 2.19 6.85 3.43 2.58 2.23 2.66 2.23 7.75 0.53 2.83-0.94 6.61-1.73 8.4-1.75 1.79-0.02 6.29 1.13 10 2.56 6.51 2.49 7.1 2.54 16.5 1.5 5.36-0.6 11.66-1.09 14-1.09 2.34-0.01 6.47 0.78 9.18 1.75 3.01 1.06 6.91 3.67 10 6.67 3.08 2.98 6.45 5.23 8.57 5.72 1.93 0.45 6.2 0.83 9.5 0.84 5.25 0.03 7.25-0.6 16-5.02 5.5-2.78 11.8-5.31 14-5.63 2.55-0.37 6 0.05 9.5 1.17l5.5 1.75c9.3-6.28 14.25-9.13 17-10.39 4.18-1.92 6.72-2.3 15.5-2.33l10.5-0.03c21.72 11.1 22.72 11.42 25.75 10.35 1.79-0.64 5.39-3.11 8-5.5 3.22-2.95 6.06-4.59 8.83-5.1 3.39-0.62 4.56-1.51 6.95-5.25 1.57-2.48 4.58-6.1 6.67-8.06 2.09-1.96 5.49-4.77 7.55-6.25 2.06-1.48 4.31-2.69 5-2.68 0.97 0 1.09-2.44 0.54-10.75-0.38-5.92-1.72-19.76-2.96-30.76-2.14-19.02-2.41-20.24-5.47-25-1.77-2.75-3.82-5.83-4.54-6.86-1.26-1.76-1.6-1.68-7.32 1.75-4.25 2.55-7.17 3.6-10 3.59-2.2 0-5.8-0.87-8-1.92-2.2-1.05-5.6-3.63-7.54-5.74-1.95-2.1-5.2-6.75-7.22-10.32-2.56-4.53-4.77-10.9-7.3-21-2-7.98-3.95-14.85-4.34-15.27-0.38-0.42-1.09-0.46-1.57-0.08z"/>
		<path id="Path 2" class="s2" d="m326.13 152c-0.08 0.82-1.6 3.04-3.38 4.92-1.79 1.88-4.15 4.01-5.25 4.74-1.1 0.73-3.35 1.62-5 1.97-1.65 0.36-5.25 0.61-8 0.55-2.75-0.06-5.85-0.23-6.89-0.39-1.04-0.16-2.06 0.27-2.25 0.96-0.2 0.7 0.52 1.25 1.64 1.25 1.1 0 3.69 1.59 5.75 3.54 2.85 2.69 4.59 3.52 7.25 3.49 1.93-0.02 5.07-0.82 6.98-1.78 1.91-0.96 4.52-3.32 5.8-5.25 1.27-1.93 2.77-5.3 3.34-7.5 0.56-2.2 0.83-4.9 0.59-6-0.25-1.13-0.5-1.35-0.58-0.5zm-32.45 21.29c-0.22 0.67 0.15 2.34 0.84 3.71 0.68 1.38 3.43 4.21 6.11 6.29 2.68 2.09 7.23 4.67 10.12 5.75 2.89 1.08 8.51 2.21 12.5 2.52 3.99 0.3 7.79 0.19 8.46-0.25 0.93-0.63 0.85-2.18-0.35-6.81-0.85-3.3-1.61-6.12-1.7-6.26-0.09-0.14-2.18 0.81-4.66 2.12-3.1 1.64-6.36 2.42-10.5 2.54-4.19 0.11-7.21-0.42-10-1.79-2.2-1.07-5.44-3.54-7.2-5.49-1.89-2.08-3.38-3.04-3.62-2.33zm-39.28 1.1c-1.14 0.61-3.21 2.07-4.6 3.25-1.4 1.18-2.53 2.57-2.52 3.08 0.01 0.51-1.92 2.7-4.28 4.85-2.37 2.16-6.6 6.19-9.4 8.95-2.81 2.77-6.86 7.94-9.02 11.5-2.15 3.57-5.97 8.91-8.5 11.88-2.52 2.96-6.83 6.87-9.58 8.69-2.75 1.81-6.69 3.99-8.75 4.85-2.91 1.21-4.7 1.34-8 0.59-2.34-0.54-6.72-1.92-9.75-3.08-3.02-1.15-8.2-2.37-11.5-2.7-5.28-0.53-6.72-0.26-12 2.3-3.3 1.6-7.35 3.82-9 4.93-1.65 1.11-4.46 3.26-6.25 4.77-1.79 1.51-10.11 6.09-18.5 10.17-8.39 4.08-18.62 8.41-22.75 9.62-6.46 1.9-9.03 2.13-18.5 1.65-9.54-0.48-11.8-0.95-17-3.53-3.3-1.64-7.69-4.82-9.75-7.07-2.06-2.25-3.97-4.09-4.25-4.09-0.27 0-0.5 2.81-0.51 6.25 0 3.44 0.5 8.95 1.11 12.25 0.6 3.3 1.96 7.69 3 9.75 1.05 2.06 3.36 5.38 5.15 7.38 1.79 1.99 4.6 4.34 6.25 5.23 2.18 1.17 5.59 1.59 12.5 1.54 8.64-0.06 10.36-0.41 19-3.92 5.23-2.12 11.75-5.29 14.5-7.04 2.75-1.74 8.15-6.29 12-10.11 3.85-3.82 11.73-12 17.5-18.19 5.78-6.18 12.64-12.8 15.25-14.69 3.26-2.37 5.85-3.45 8.25-3.45 1.93 0 5.13 0.79 7.12 1.75 1.99 0.96 4.4 3.1 5.37 4.75 0.97 1.65 2.94 6.6 4.38 11 1.44 4.4 3.97 9.69 5.62 11.75 1.67 2.08 3.9 3.75 5.01 3.75 1.1 0 3.8-0.9 6-2 2.2-1.1 6.81-4.06 10.25-6.58 4.11-3.01 7.45-6.55 9.75-10.31 2.39-3.92 3.92-8.08 4.82-13.17 0.73-4.09 2.01-9.91 2.86-12.94 0.85-3.03 3.07-7.86 4.93-10.75 1.87-2.89 5.46-7.39 8-10 2.53-2.61 5.78-6.32 7.21-8.25 1.43-1.93 3.3-4.25 4.14-5.18 0.85-0.92 2.53-3.28 3.75-5.25 1.67-2.69 2.9-3.58 5-3.6 1.53-0.01 4.36 1.02 6.29 2.29 1.93 1.27 4.49 4.1 5.71 6.28 1.22 2.18 3.37 9.14 4.8 15.46 1.59 7.1 3.81 13.76 5.79 17.4 1.76 3.25 4.55 7.42 6.2 9.26 1.65 1.85 4.35 3.63 6 3.96 1.94 0.39 3.53 0.1 4.5-0.82 0.82-0.79 3.75-2.71 6.5-4.26 3.86-2.19 5.68-2.67 8-2.13 1.65 0.39 4.24 1.58 5.75 2.65 1.51 1.07 4.07 4.3 5.68 7.19 1.61 2.89 3.86 6.04 5 7 1.14 0.96 2.52 1.53 3.07 1.25 0.55-0.28 1.9-2.3 3-4.5 1.59-3.17 1.99-5.92 1.94-13.25-0.03-5.09-0.37-11.03-0.75-13.21l-0.69-3.96c-3.1 6.64-4.9 8.8-6 9.09-1.1 0.28-3.57-0.27-5.5-1.25-1.93-0.97-5.69-3.82-8.38-6.34-3.77-3.54-5.58-4.56-8-4.47-1.71 0.06-6.94 0.46-11.62 0.89-8.11 0.75-8.62 0.68-11.13-1.61-1.44-1.31-4.14-6.17-6-10.8-2.4-5.98-4.45-9.37-7.12-11.75-2.06-1.84-4.65-3.79-5.75-4.34-1.1-0.55-3.69-1.16-5.76-1.36-2.08-0.19-4.7 0.15-5.84 0.75z"/>
		<path id="Path 3" class="s3" d="m256.5 29.1c-2.75 0.55-6.91 1.88-9.25 2.95-2.34 1.07-4.25 2.4-4.25 2.95 0 0.55-0.56 1-1.25 1-0.69 0-2.84 1.46-4.79 3.25-1.95 1.79-4.31 4.49-5.25 6-0.94 1.51-3.22 4.44-5.06 6.5-2.27 2.55-5.4 4.5-9.75 6.09-3.52 1.29-9.08 3.32-12.36 4.5-3.63 1.32-7.88 3.92-10.89 6.66-2.72 2.47-6.31 6.53-8 9-1.68 2.47-5.93 10.12-9.43 17-3.51 6.87-7.42 13.85-8.7 15.5-1.27 1.65-5.42 6.15-9.2 10-3.79 3.85-8 7.79-9.35 8.76-1.36 0.97-3.82 2.82-5.47 4.13-1.65 1.3-4.57 3.25-6.5 4.33-1.93 1.08-4.63 2.59-6 3.37-1.38 0.78-2.72 1.73-3 2.13-0.28 0.39-2.08 1.61-4 2.71-1.92 1.1-5.53 3.02-8 4.28-2.47 1.26-4.72 2.53-5 2.82-0.28 0.3-3.65 2.41-7.5 4.7-3.85 2.28-8.19 5.19-9.64 6.46-1.45 1.27-4.36 3.66-6.46 5.31-2.11 1.65-6.74 5.93-10.31 9.5-3.56 3.57-8.09 8.53-10.05 11-1.97 2.47-4.77 6.97-6.22 10-1.45 3.03-3.76 9.1-5.12 13.5-1.36 4.4-2.95 10.47-3.52 13.5-0.58 3.03-1.3 8.09-1.61 11.25-0.56 5.68-0.52 5.81 3.68 10.32 2.34 2.52 6.95 5.92 10.25 7.57 5.22 2.6 7.43 3.06 17 3.55 9.47 0.48 12.04 0.25 18.5-1.65 4.12-1.21 14.36-5.54 22.75-9.62 8.39-4.08 16.71-8.66 18.5-10.17 1.79-1.51 4.6-3.66 6.25-4.77 1.65-1.11 5.7-3.33 9-4.93 5.28-2.56 6.72-2.83 12-2.3 3.3 0.33 8.47 1.55 11.5 2.7 3.03 1.16 7.41 2.54 9.75 3.08 3.3 0.75 5.09 0.62 8-0.59 2.06-0.86 6-3.04 8.75-4.85 2.75-1.82 7.06-5.73 9.58-8.69 2.53-2.97 6.35-8.31 8.5-11.88 2.16-3.56 6.21-8.73 9.02-11.5 2.8-2.76 6.97-6.82 9.27-9.02 2.3-2.2 4.19-4.45 4.19-5 0.01-0.55 0.79-1.58 1.73-2.28 0.94-0.71 2.61-1.95 3.71-2.77 1.1-0.81 3.35-1.64 5-1.84 1.65-0.19 4.35 0.02 6 0.47 1.65 0.45 5.02 2.56 7.5 4.69 3.56 3.07 5.2 5.63 7.87 12.3 1.86 4.64 4.56 9.51 6 10.82 2.51 2.29 3.02 2.36 11.13 1.61 4.68-0.43 9.91-0.83 11.62-0.89 2.42-0.09 4.23 0.93 8 4.47 2.69 2.52 6.45 5.37 8.38 6.34 1.93 0.98 4.4 1.53 5.5 1.25 1.1-0.29 2.84-2.25 3.86-4.35 1.45-2.99 1.71-5.01 1.19-9.32-0.36-3.03-0.88-6.4-1.16-7.5-0.44-1.78-1.38-2.01-8.69-2.13-5.6-0.08-9.95-0.78-13.7-2.19-3.02-1.14-7.86-3.9-10.75-6.13-2.89-2.23-5.55-5.06-5.91-6.3-0.36-1.24-0.73-3.6-0.82-5.25-0.08-1.65 0.44-4.24 1.16-5.75 1.17-2.45 1.68-2.67 4.57-2.02 1.79 0.4 4.37 0.71 5.75 0.69 1.37-0.01 4.3-0.33 6.5-0.7 2.2-0.36 5.35-1.64 7-2.83 1.65-1.18 4.12-3.54 5.5-5.24 1.99-2.45 2.47-4.1 2.36-8.11-0.09-3.02-2.13-11.06-5.09-20.04-4.51-13.67-5.87-16.46-15.32-31.5-5.71-9.08-11.23-18.75-12.26-21.5-1.28-3.38-2.04-8.71-2.38-16.5-0.27-6.33-0.9-13.19-1.4-15.25-0.5-2.06-2.19-5.21-3.75-7-1.56-1.79-4.82-4.08-7.25-5.09-2.42-1-7.34-1.99-10.91-2.2-3.57-0.2-8.75 0.09-11.5 0.64z"/>
	</g>
</svg>