<svg version="1.2" xmlns="http://www.w3.org/2000/svg" viewBox="0 0 388 316" width="388" height="316">
	<style>
		.s0 { fill: #1a1a1a } 
		.s1 { fill: #727272 } 
		.s2 { fill: #cdcdcd } 
		.s3 { fill: #ffffff } 
	</style>
	<g id="Background">
		<path id="Path 0" class="s0" d="m191.5 32.18c-3.85 0.5-7.68 1.03-8.5 1.18-0.82 0.15-2.85 0.65-4.5 1.11-1.65 0.46-6.82 2.83-11.5 5.28-4.68 2.45-10.44 6.09-12.8 8.1-2.37 2.01-5.97 4.93-8 6.49-2.04 1.56-8.42 7.26-14.2 12.67-5.78 5.41-11.63 10.69-13 11.73-1.38 1.05-5.99 4.01-10.25 6.58-4.26 2.57-7.97 4.68-8.25 4.68-0.28 0-2.41 1.21-4.75 2.69-2.34 1.48-6.72 4.02-9.75 5.63-3.03 1.62-7.3 4.15-9.5 5.63-2.2 1.47-6.25 3.98-9 5.58-2.75 1.59-7.95 5.39-11.57 8.43-3.61 3.05-7.89 7.12-9.51 9.04-1.62 1.93-4.61 5.97-6.64 9-2.04 3.03-4.8 8.2-6.15 11.5-1.35 3.3-2.97 8.93-3.61 12.5-0.63 3.57-1.07 9.43-0.97 13 0.11 3.57 0.85 9.43 1.65 13 0.8 3.57 3.09 9.65 5.09 13.5 2.11 4.05 6.08 9.42 9.42 12.75 3.19 3.16 7.81 6.88 10.29 8.25 3.78 2.1 4.5 2.98 4.5 5.5 0 1.65 0.84 7.39 1.86 12.75 1.03 5.36 3.05 12.11 4.5 15 2.2 4.37 2.47 5.75 1.64 8.25-0.55 1.65-1.11 2.99-1.25 2.99-0.14-0.01-2.72-1.29-5.75-2.86-3.02-1.56-7.98-3.18-11-3.61-3.34-0.46-7.46-0.32-10.5 0.35-2.75 0.62-6.91 2.47-9.25 4.12-2.34 1.66-5.31 4.7-6.6 6.76-1.29 2.06-2.89 5.55-3.57 7.75-1.08 3.54-1.01 4.21 0.6 5.78 1 0.98 2.27 1.77 2.82 1.75 0.55-0.01 1.65-1.49 2.45-3.28 0.8-1.79 3.27-5.2 5.5-7.59 2.23-2.39 5.4-5 7.05-5.8 1.65-0.8 5.92-1.48 9.5-1.51 3.58-0.03 7.63 0.39 9 0.92 1.38 0.54 4.52 2.64 7 4.67 2.47 2.03 5.14 3.55 5.92 3.37 0.78-0.17 2.44-2.33 3.68-4.81 1.24-2.48 2.06-4.61 1.83-4.75-0.24-0.14 0.36-1.15 1.32-2.26 0.96-1.1 2.88-2.01 4.25-2.02 1.53 0 3.71 1.26 5.61 3.26 1.71 1.8 5.2 6.53 7.75 10.52 2.86 4.47 5.31 7.25 6.39 7.25 0.96 0 2.32-1.23 3.02-2.75 0.7-1.51 2.39-3.99 3.75-5.5 1.36-1.51 3.61-2.98 4.98-3.25 2.24-0.45 3.02 0.36 7.42 7.75 2.71 4.54 5.97 9.57 7.25 11.19 1.28 1.61 4.13 4.21 6.33 5.78 2.33 1.65 5.25 2.82 7 2.79 1.65-0.02 5.86-1.5 9.35-3.28l6.36-3.23c4.1 5.28 7.54 8.09 10.29 9.65 2.75 1.56 5.79 2.84 6.75 2.84 0.96 0.01 5.24-3.39 9.5-7.54 4.26-4.16 10.66-9.44 14.21-11.75 5.79-3.77 7.18-4.23 13.5-4.52l7.04-0.32c4.65 5.75 7.24 8.03 8.75 8.78 1.51 0.75 3.99 1.37 5.5 1.39 1.51 0.02 3.65-0.89 4.75-2.03 1.1-1.14 2.45-2.05 3-2.04 0.55 0.02 2.35-0.69 4-1.57 1.65-0.88 5.7-1.85 9-2.15 5.77-0.53 6.15-0.42 10 2.96 2.2 1.93 5.01 4.03 6.25 4.66 1.24 0.63 2.48 1.14 2.75 1.14 0.27 0 2.86-2.08 5.75-4.61 2.89-2.54 6.71-5.24 8.5-6 1.79-0.77 3.59-1.41 4-1.42 0.41-0.02 2.55 1.34 4.75 3.03 2.2 1.69 4.23 3.07 4.5 3.06 0.27 0 2.8-3.5 5.61-7.78 2.8-4.28 7.8-10.26 11.1-13.28 4.89-4.48 7.38-5.92 13.4-7.75 4.06-1.24 8.85-2.25 10.64-2.25 1.79 0 6.18 0.68 9.75 1.5 3.57 0.82 7.18 1.27 8 1 0.82-0.27 1.52-1.29 1.53-2.25 0.02-0.96-0.81-2.88-1.84-4.25-1.03-1.37-3.19-2.85-4.78-3.27-1.6-0.42-6.29-1.39-10.41-2.14-4.89-0.9-8.46-1.07-10.25-0.48-2.72 0.88-2.74 0.85-1.86-2.36 0.49-1.79 1.6-7.3 2.47-12.25 0.87-4.95 2.27-13.16 3.11-18.25 0.84-5.09 1.52-9.59 1.51-10-0.01-0.41 1.68-1.51 3.75-2.45 2.07-0.93 5.41-3.18 7.41-5 2-1.81 4.37-5.21 5.25-7.55 0.95-2.52 1.6-7.21 1.59-11.5-0.02-3.99-0.47-9.16-1-11.5-0.54-2.34-2.3-7.06-3.91-10.5-1.62-3.44-5.33-9.27-8.25-12.97-2.93-3.7-8.92-9.66-13.32-13.25-4.4-3.58-8.23-6.51-8.5-6.51-0.27 0.01-0.84-1.79-1.25-4-0.41-2.21-1.65-5.82-2.75-8.02-1.1-2.2-4.14-6.3-6.75-9.11-3.59-3.87-7.18-6.27-14.75-9.88-5.5-2.62-11.24-5.05-12.75-5.39-1.67-0.38-6.78-4.67-13-10.93-5.64-5.66-14.3-14.72-19.25-20.13-6.64-7.24-10.51-10.58-14.75-12.69-3.16-1.58-8.11-3.79-11-4.92-2.89-1.13-8.51-2.7-12.5-3.5-3.99-0.8-8.49-1.39-10-1.32-1.51 0.07-5.9 0.54-9.75 1.05z"/>
		<path id="Path 1" class="s1" d="m269.12 191.51c-1.77 1.19-2.35 2.44-2.23 4.8 0.11 2.14-0.83 4.59-2.86 7.44-1.74 2.44-4.63 4.93-6.78 5.85-2.37 1.01-7.7 1.75-14.5 2l-10.75 0.4c-8.38 6.59-12.09 9.47-13.66 10.66-1.56 1.2-3.79 3-4.96 4-1.16 1.01-3.59 2.97-5.41 4.34-1.81 1.38-3.78 3-4.38 3.6-0.6 0.61-2.66 2-4.59 3.1-1.93 1.09-5.75 2.58-8.5 3.32-4.01 1.06-6.54 1.09-12.75 0.15-4.26-0.64-10.34-2.33-13.5-3.74-3.16-1.41-8.68-4.73-12.25-7.37-3.57-2.65-7.96-5.54-9.75-6.43-1.79-0.9-5.39-1.71-8-1.81-2.91-0.1-6.88 0.67-10.25 2.02-3.03 1.2-8.43 2.94-12 3.87-4.49 1.17-10.52 1.69-19.5 1.69-9.24 0-14.69-0.48-18.86-1.69-3.22-0.93-5.96-1.58-6.1-1.45-0.13 0.13 0.77 5.19 2.02 11.24 1.24 6.05 2.7 12.13 3.24 13.5 0.79 2 1.56 2.43 3.85 2.14 1.57-0.2 4.65 0.54 6.85 1.63 2.2 1.1 5.83 3.96 8.06 6.36 2.24 2.4 4.64 5.5 5.34 6.87l1.27 2.5c7.43-6.9 8.79-7.5 12.46-7.5 3.52 0 5.07 0.63 8 3.25 1.99 1.79 6.02 7.3 8.94 12.25 2.93 4.95 6.13 9.79 7.12 10.76 1.73 1.69 2.14 1.61 9.31-1.74 6.51-3.04 7.96-3.37 11-2.54 2.13 0.58 5.36 2.93 8.25 5.99 2.61 2.76 5.31 5.05 6 5.07 0.69 0.02 3.27-2.13 5.75-4.79 2.47-2.66 7.87-7.31 12-10.33 4.12-3.02 8.74-6.04 10.25-6.71 1.51-0.66 5.28-1.55 8.37-1.96 5.12-0.68 5.78-1.06 7.37-4.25 0.97-1.93 4.18-6.16 7.13-9.41 2.96-3.25 9.88-9.74 15.38-14.41 5.5-4.68 11.82-10.34 14.04-12.59 2.23-2.25 5.94-5.55 8.25-7.34 2.32-1.79 4.89-3.02 5.71-2.75 0.82 0.28 1.52 1.06 1.55 1.75 0.02 0.69-1.67 2.57-3.75 4.18-2.09 1.62-6.28 5.31-9.3 8.21-3.03 2.91-7.06 6.54-8.97 8.07-1.9 1.53-7.86 6.73-13.25 11.54-5.38 4.81-9.78 9.09-9.78 9.5-0.01 0.41-1.36 2.21-3 4l-3 3.25c4.78 0.8 7.06 2.32 8.61 4.25 1.44 1.79 2.98 3.93 3.43 4.75 0.69 1.27 1.79 1 7.14-1.71 3.47-1.76 8.57-3.74 11.32-4.39 2.75-0.65 6.91-0.89 9.25-0.54 2.34 0.35 5.94 1.48 8 2.52 2.06 1.03 4.43 2.62 5.25 3.54 1.38 1.54 1.77 1.41 5-1.76 1.93-1.89 4.96-4.16 6.75-5.05 1.79-0.89 5.5-1.61 8.25-1.61 2.75 0 5.23 0.45 5.5 1 0.27 0.55 1.06 0.98 1.75 0.96 0.69-0.02 2.59-2.15 4.23-4.75 1.64-2.59 3.89-5.81 5-7.15 1.11-1.34 3.59-3.96 5.52-5.81 1.93-1.85 4.74-4.01 6.25-4.81 2.05-1.07 3.12-2.78 4.19-6.69 0.8-2.89 2.19-8.62 3.09-12.75 0.9-4.12 2.73-12.9 4.06-19.5 1.33-6.6 2.42-12.11 2.41-12.25 0-0.14-0.68-0.25-1.5-0.25-0.82 0-2.96 0.79-4.75 1.75-1.79 0.96-4.38 3.07-5.75 4.69-1.38 1.62-3.85 4.49-5.5 6.38-1.65 1.89-4.69 4.28-6.75 5.31-3.47 1.73-4.07 1.76-8 0.36-2.34-0.83-6.47-3.19-9.18-5.25-3.19-2.42-5.92-5.68-7.75-9.24-1.56-3.02-2.82-5.95-2.81-6.5 0.01-0.55-1.23-2.48-2.75-4.29-2.65-3.17-2.85-3.23-5.14-1.7z"/>
		<path id="Path 2" class="s2" d="m304.44 114.02c-1.07 1.13-4.19 3.12-6.94 4.42-2.75 1.3-6.12 2.71-7.5 3.15-1.37 0.43-2.95 0.91-3.5 1.06-0.55 0.14-3.02 0.8-5.5 1.45-2.48 0.64-4.89 1.63-5.36 2.18-0.56 0.66 2.98 0.84 10.5 0.54 8.25-0.34 12.32-0.96 14.86-2.26 1.93-0.99 4.3-2.53 5.28-3.43 0.98-0.9 1.76-2.75 1.74-4.13-0.03-1.37-0.41-3.07-0.85-3.77-0.61-0.97-1.26-0.79-2.73 0.79zm10.36 19.75c-1.81 1.53-4.61 3.45-6.2 4.26-1.81 0.92-5.57 1.44-10 1.39-3.91-0.05-8.11-0.61-9.35-1.25-1.24-0.65-2.48-0.95-2.75-0.67-0.27 0.28 1.64 1.42 4.25 2.55 2.61 1.12 7.45 2.72 10.75 3.55 4.05 1.02 7.95 1.3 12 0.85 3.3-0.36 8.48-1.34 11.5-2.19l5.5-1.53c-6.98-6.07-9.76-8.27-10.7-8.79-1.28-0.73-2.5-0.28-5 1.83zm27.96 37.23c-0.69 1.11-1.82 2.01-2.51 2-0.69 0-2.29 0.79-3.55 1.75-1.27 0.96-4.75 2.5-7.75 3.42-3 0.92-8.6 2.6-12.45 3.73-3.85 1.13-9.48 3.64-12.5 5.59-3.02 1.94-6.06 3.52-6.75 3.52-0.69-0.01-3.16-2.41-5.5-5.34-2.34-2.93-5.82-6.55-7.75-8.05-1.93-1.49-5.52-3.34-8-4.1-3.21-0.99-5.57-1.11-8.25-0.45-2.4 0.59-6 3.04-10 6.78-3.44 3.22-7.37 6.45-8.75 7.18-1.37 0.74-6.78 1.64-12 2.02-6.75 0.48-10.95 1.35-14.5 3.01-2.75 1.28-7.25 3.96-10 5.96-2.75 2-7.59 5.06-10.75 6.81-3.16 1.74-5.75 2.95-5.75 2.67 0-0.27-1.35 0.18-3 1-1.65 0.82-5.81 1.78-9.25 2.12-5.71 0.56-7.54 0.18-21.25-4.45-8.25-2.79-16.8-5.34-19-5.67-2.2-0.33-18.4-0.79-36-1.02-17.6-0.22-33.35-0.68-35-1.02-1.65-0.33-5.92-1.54-9.5-2.69-3.58-1.14-8.3-3.2-10.5-4.57-2.2-1.37-6.21-4.34-8.92-6.6l-4.92-4.1c0.8 6.2 2.56 11.1 4.44 14.89 1.87 3.78 5.2 8.54 7.4 10.56 2.2 2.02 6.92 5.08 10.5 6.79 3.58 1.72 9.65 3.66 13.5 4.33 4.34 0.75 11 0.98 17.5 0.61 8.22-0.46 12.83-1.36 21.25-4.14 6.21-2.04 12.76-3.54 15.5-3.54 2.61 0 7 0.82 9.75 1.83 2.75 1 6.57 2.56 8.5 3.45 1.93 0.9 4.63 2.68 6 3.97 1.38 1.29 4.75 3.74 7.5 5.43 2.75 1.7 6.8 3.67 9 4.38 2.2 0.72 6.93 1.28 10.5 1.26 4.42-0.02 7.62-0.64 10-1.93 1.93-1.04 6.65-4.22 10.5-7.06 3.85-2.84 9.93-7.69 13.5-10.78 3.57-3.08 8.07-6.34 10-7.24 1.93-0.9 5.07-2.07 7-2.61 1.93-0.53 6.43-1.16 10-1.39 4.66-0.3 6.71-0.05 7.23 0.89 0.56 0.99 0.74 1 0.75 0.05 0.01-0.69 0.7-1.03 1.52-0.75 0.82 0.28 2.62-0.4 4-1.5 1.37-1.1 2.97-3.69 3.54-5.75 0.59-2.11 2.67-5.24 4.75-7.17 3.25-3 4.14-3.34 7.21-2.74 1.93 0.38 4.85 1.75 6.5 3.04 1.65 1.3 4.52 5.23 6.37 8.74 1.85 3.51 4.77 7.85 6.5 9.64 1.72 1.8 4.25 3.66 5.63 4.13 1.94 0.68 3.06 0.4 5-1.26 1.37-1.18 4.3-4.32 6.5-6.99 2.31-2.81 5.9-5.74 8.5-6.93 2.87-1.32 7.13-2.18 11.75-2.39 4.26-0.19 8.73-1.04 10.83-2.07 2.55-1.24 4.29-3.2 6.01-6.75 1.34-2.75 2.43-6.69 2.42-8.75 0-2.06-0.46-3.75-1-3.75-0.55 0-1.56 0.9-2.25 2z"/>
		<path id="Path 3" fill-rule="evenodd" class="s3" d="m204 43.21c5.84-0.16 11.42 0.28 14.5 1.13 2.75 0.77 7.68 2.69 10.96 4.28 3.28 1.58 7.59 4.46 9.59 6.38 1.99 1.92 7.68 8.22 12.63 14 4.96 5.78 12.19 13.42 16.07 17 3.89 3.58 9.47 7.7 12.41 9.17 2.94 1.47 7.59 3.61 10.34 4.76 2.75 1.15 6.08 2.65 7.4 3.33 1.32 0.68 3.8 2.92 8.6 8.72l-2 2.05c-1.1 1.13-4.25 3.11-7 4.41-2.75 1.3-6.13 2.72-7.5 3.16-1.38 0.44-2.73 0.86-3 0.92-0.27 0.07-2.52 0.66-5 1.32-2.48 0.66-5.29 1.65-6.25 2.18-0.96 0.54-2.43 0.98-3.25 0.98-0.82 0-1.5 0.68-1.5 1.5 0 0.82 1.01 2.11 2.25 2.85 1.24 0.74 3.82 1.85 5.75 2.46 1.93 0.61 4.74 2.03 6.25 3.15 1.51 1.12 3.43 1.82 4.25 1.54 0.82-0.28 1.29-0.16 1.04 0.25-0.25 0.41 0.53 1.26 1.75 1.89 1.22 0.62 5.14 1.89 8.71 2.8 4.57 1.18 8.28 1.48 12.5 1.01 3.3-0.36 8.36-1.28 11.25-2.05 4.22-1.13 5.57-1.15 6.9-0.15 0.91 0.69 3.31 3.5 5.34 6.25 2.03 2.75 4.28 6.12 5.02 7.5 0.73 1.37 2.15 5.09 3.16 8.25 1.56 4.89 1.61 5.68 0.33 5.25-0.83-0.28-2.06 0.4-2.75 1.5-0.69 1.11-1.81 2.01-2.5 2-0.69 0-2.29 0.79-3.55 1.75-1.27 0.96-4.75 2.5-7.75 3.42-3 0.92-8.6 2.6-12.45 3.73-3.85 1.13-9.48 3.64-12.5 5.59-3.02 1.94-6.06 3.52-6.75 3.52-0.69-0.01-3.16-2.41-5.5-5.34-2.34-2.93-5.82-6.55-7.75-8.05-1.93-1.49-5.52-3.34-8-4.1-3.21-0.99-5.57-1.11-8.25-0.45-2.4 0.59-6 3.04-10 6.78-3.44 3.22-7.38 6.45-8.75 7.18-1.38 0.74-6.78 1.64-12 2.02-6.75 0.48-10.95 1.35-14.5 3.01-2.75 1.28-7.25 3.96-10 5.96-2.75 2-7.59 5.06-10.75 6.81-3.16 1.74-5.75 2.95-5.75 2.67 0-0.28-1.35 0.18-3 1-1.65 0.82-5.81 1.78-9.25 2.12-5.71 0.56-7.54 0.18-21.25-4.45-8.25-2.79-16.8-5.34-19-5.67-2.2-0.33-18.4-0.79-36-1.02-17.6-0.22-33.35-0.68-35-1.02-1.65-0.33-5.93-1.54-9.5-2.69-3.58-1.14-8.3-3.21-10.5-4.59-2.2-1.38-6.35-4.35-9.22-6.59-5.2-4.07-5.23-4.12-5.16-9.59 0.04-3.03 0.51-8.2 1.05-11.5 0.54-3.3 2.25-8.47 3.8-11.5 1.55-3.03 3.43-6.63 4.17-8.02 0.75-1.38 3.38-5.03 5.86-8.11 2.47-3.08 6.08-6.67 8-7.98 1.92-1.3 3.72-2.64 4-2.98 0.28-0.33 3.42-2.62 7-5.09 3.58-2.47 8.97-5.86 12-7.54 3.03-1.68 12.03-6.84 20-11.47 7.97-4.63 17.2-10.25 20.5-12.5 3.3-2.24 8.71-6.94 12.03-10.44 3.32-3.5 10.29-9.85 15.5-14.09 5.36-4.37 13.16-9.54 17.97-11.92 4.68-2.3 9.85-4.8 11.5-5.56 1.65-0.75 5.25-1.7 8-2.1 2.75-0.41 9.28-0.85 14.5-0.99zm37.75 155.81c3.51-0.01 6.25 0.42 6.25 0.98 0 0.55-0.34 1.03-0.75 1.07-0.41 0.04-2.55 0.11-4.75 0.15-2.2 0.05-5.35 0.01-7-0.08-2.33-0.13-2.67-0.39-1.5-1.14 0.82-0.53 4.31-0.98 7.75-0.98z"/>
	</g>
</svg>