<svg version="1.2" xmlns="http://www.w3.org/2000/svg" viewBox="0 0 542 339" width="542" height="339">
	<style>
		.s0 { fill: #1a1a1a } 
		.s1 { fill: #779671 } 
		.s2 { fill: #cdcdcd } 
		.s3 { fill: #ffffff } 
	</style>
	<g id="Background">
		<path id="Path 0" class="s0" d="m266.92 14.38c-0.23 0.21-2.67 0.65-5.42 0.99-2.75 0.33-6.13 1.5-7.5 2.62-1.38 1.11-4.75 3.19-7.5 4.62-4.65 2.42-6.31 2.66-23.5 3.37-13.46 0.56-19.73 1.24-23 2.47-2.48 0.94-6.3 2.96-8.5 4.49-2.2 1.53-7.38 6.53-11.5 11.11-4.13 4.58-10.43 11.18-14 14.66-4.02 3.93-7.83 6.7-10 7.28-1.93 0.51-5.53 1.22-8 1.58-2.48 0.36-6.3 1.8-8.5 3.21-2.2 1.41-7.6 6.2-12 10.66-4.4 4.45-10.03 9.72-12.5 11.7-2.48 1.98-8.55 5.62-13.5 8.09-4.95 2.47-13.05 6.42-18 8.78-6.83 3.25-10.26 5.63-14.24 9.88-2.88 3.09-6.34 7.86-7.7 10.61-1.35 2.75-3.46 9.72-4.69 15.5-1.22 5.78-2.71 11.24-3.3 12.14-0.59 0.9-2.76 3.49-4.82 5.75-2.06 2.26-3.75 4.33-3.75 4.61 0 0.28-1.3 2.41-2.89 4.75-1.58 2.34-3.68 6.5-4.64 9.25-1.03 2.91-1.81 8.17-1.87 12.59-0.09 6.65 0.28 8.32 2.99 13.5l3.09 5.91c-4.34 7.75-6.31 12.25-7.17 15-0.86 2.75-2.2 9.05-2.96 14-0.83 5.38-1.26 14.03-1.06 21.5 0.19 6.87 1.09 16.32 2 21 0.91 4.68 2.47 10.3 3.46 12.5 1.66 3.71 1.69 4.52 0.31 11-0.82 3.85-1.21 8.46-0.87 10.25 0.35 1.9 1.76 4.1 3.36 5.29 1.51 1.12 3.2 1.86 3.75 1.64 0.55-0.21 0.85-1.24 0.66-2.28-0.19-1.05 0.26-4.54 1-7.77 0.74-3.23 1.68-6.04 2.09-6.25 0.41-0.21 0.75-1.28 0.75-2.38 0-1.1 1.12-3.8 2.5-6 1.37-2.2 3.96-5.33 5.75-6.95 1.79-1.62 5.72-3.91 8.75-5.09 4.26-1.65 6.97-2.03 12-1.69 5.78 0.39 8.3 1.37 22.75 8.83 14.49 7.49 16.25 8.67 16.22 10.9-0.02 1.37 0.77 3.28 1.75 4.22 0.98 0.95 2.34 1.74 3.03 1.75 0.69 0.02 1.97-1.43 2.86-3.22 0.88-1.79 2.57-4.03 3.75-4.98 1.18-0.95 3.26-1.74 4.64-1.77 1.42-0.02 4.88 1.74 8 4.06 3.02 2.26 6.74 4.74 8.25 5.52 1.51 0.78 2.97 1.42 3.25 1.42 0.27 0 1.62-1.24 2.99-2.75l2.48-2.75c17.07 8.91 23.04 11.51 24.28 11.53 1.24 0.02 4.39-1.56 7-3.5 2.61-1.94 5.2-3.53 5.75-3.53 0.55 0 1.11-0.34 1.25-0.75 0.14-0.41 2.5-1.77 5.25-3.02 2.75-1.24 7.25-2.66 10-3.14 2.75-0.48 7.02-0.69 9.5-0.46 2.55 0.23 8.41 2.29 13.5 4.75 4.95 2.39 10.12 4.45 11.5 4.59 1.37 0.14 3.06 0.2 3.75 0.14 0.69-0.06 1.7-1.23 2.25-2.61 0.55-1.37 2.01-3.01 3.25-3.64 1.85-0.94 3.31-0.69 8.25 1.41 3.3 1.4 6.48 2.25 7.06 1.89 0.58-0.36 1.66-2.23 2.4-4.16 0.74-1.93 2.27-5.07 3.39-7 1.13-1.93 3.87-5.21 6.1-7.29 2.23-2.09 5.4-4.04 7.05-4.33 1.65-0.3 5.59-0.06 8.75 0.54 3.16 0.59 7.89 2.17 10.5 3.5 2.61 1.33 6.32 3.59 8.25 5.02 2.17 1.61 4.83 2.6 7 2.62 2.96 0.02 3.73-0.47 5-3.16 0.82-1.74 2.85-3.82 4.5-4.61 2.81-1.34 3.16-1.28 5.5 1.02 1.37 1.36 4.07 3.22 6 4.15 3.43 1.65 3.55 1.64 6-0.78 1.37-1.35 3.51-2.73 4.75-3.07 1.24-0.33 3.15-0.38 4.25-0.11 1.1 0.27 3.57 2.98 5.5 6 1.92 3.02 4.4 5.95 5.5 6.5 1.1 0.55 2.67 1 3.5 1 0.82 0 2.96-1.11 4.75-2.47 1.79-1.36 3.7-2.47 4.25-2.47 0.55 0.01 3.92 2.98 7.5 6.6 3.57 3.63 7.4 6.92 8.5 7.31 1.44 0.51 3.13-0.18 6-2.45 2.2-1.74 5.57-3.5 7.5-3.92 2.81-0.62 3.99-0.36 6 1.32 1.37 1.15 4.98 3.23 8 4.61 3.02 1.39 6.29 2.51 7.25 2.5 0.96-0.02 3.32-0.71 5.25-1.53 2.53-1.08 4.91-3.65 8.59-9.25 2.8-4.26 6.49-9.32 8.2-11.25 2.79-3.16 3.69-3.54 9.15-3.86 4.61-0.27 7.85 0.27 13.56 2.24 4.12 1.43 8.06 2.6 8.75 2.61 0.69 0 2.34-1.9 3.68-4.24 1.33-2.34 3.65-4.93 5.15-5.75 1.64-0.9 5.14-1.47 8.82-1.42 3.96 0.05 7.86 0.84 11.1 2.27 2.75 1.21 6.01 2.19 7.25 2.17 1.58-0.01 2.25-0.62 2.25-2.02 0-1.1-0.56-3.15-1.25-4.56-0.69-1.42-2.89-3.33-4.89-4.25-3.55-1.64-3.65-1.84-3.65-7.19-0.01-3.02-0.5-8.54-1.11-12.25-0.6-3.71-2.06-9.34-3.23-12.5-1.17-3.16-4.21-8.9-6.75-12.75-2.54-3.85-5.93-8.57-7.54-10.5-2.59-3.1-2.83-3.9-2.03-7 0.5-1.93 0.89-9.12 0.87-16-0.02-11.04-0.34-13.37-2.74-20-1.62-4.48-4.72-10.12-7.69-14-2.73-3.57-5.93-7.18-7.11-8-1.18-0.82-4.45-3.32-7.26-5.54-2.82-2.22-7.48-5.7-10.37-7.75-2.89-2.04-5.81-3.71-6.5-3.71-0.69-0.01-2.71-0.91-4.5-2-1.79-1.1-5.65-5.04-8.58-8.75-2.93-3.71-7.22-9.9-9.54-13.75-2.31-3.85-6.41-11.5-9.09-17-2.69-5.5-6.61-11.97-8.71-14.39-2.11-2.41-5.18-5.06-6.83-5.89-1.65-0.83-5.48-2.38-8.5-3.44-3.02-1.06-10.23-2.36-16-2.89-6.76-0.62-11.57-1.59-13.5-2.73-1.65-0.98-4.18-3.55-5.63-5.72-1.44-2.17-4.7-6.08-7.25-8.69-2.54-2.61-6.53-5.64-8.87-6.72-2.93-1.37-7.96-2.26-16.25-2.88-9.76-0.74-12.65-1.33-15.5-3.17-1.93-1.24-5.52-4.75-8-7.8-2.48-3.05-6.3-7.54-8.5-9.99-2.2-2.44-6.02-5.82-8.5-7.49-2.48-1.68-6.98-3.88-10-4.89-3.02-1.01-6.89-1.83-8.58-1.83-1.7 0.01-3.27 0.19-3.5 0.4z"/>
		<path id="Path 1" fill-rule="evenodd" class="s1" d="m222.13 140c0.57 0 1.95 3.49 3.06 7.75 1.34 5.08 2.24 12.58 2.62 21.75 0.5 11.9 0.89 14.44 2.64 16.95 1.13 1.62 3.85 4.21 6.05 5.75 2.2 1.53 6.03 3.1 8.5 3.47 3.99 0.59 5.12 0.29 10-2.73 3.02-1.88 6.4-4.2 7.5-5.16 1.1-0.97 2.09-1.65 2.19-1.52 0.11 0.13-0.57 9.83-1.5 21.55-0.93 11.71-1.57 22.06-1.43 23 0.15 0.93-0.08 2.3-0.5 3.04-0.63 1.13-1.6 1.09-5.76-0.22-2.75-0.86-7.81-3.39-11.25-5.6-3.44-2.22-8.57-6.39-11.4-9.28-2.83-2.89-6.32-6.96-7.75-9.04q-2.6-3.8-4.85-3.75c-1.64 0.03-2.26 0.65-2.29 2.29-0.02 1.24 1.89 5.15 4.25 8.68 2.36 3.54 7.67 9.53 11.79 13.31 4.33 3.97 10.25 8.21 14 10.02 3.57 1.72 7.74 3.04 9.25 2.94 2.25-0.16 2.75 0.21 2.74 2.05 0 1.24-1.15 9.22-2.54 17.75-1.4 8.52-2.97 16.96-3.5 18.75-0.72 2.45-0.58 3.86 0.55 5.75 0.96 1.6 2.4 2.5 4 2.5 1.93 0 2.87-0.85 4.12-3.75 0.89-2.06 1.97-4.43 2.39-5.25 0.41-0.82 1.69-6.23 2.82-12 1.14-5.77 2.76-14.32 3.6-19 0.84-4.68 1.88-11.11 2.3-14.31 0.7-5.24 1.14-6.06 4.64-8.5 2.12-1.48 5.95-4.97 8.5-7.75 2.54-2.79 6.2-6.99 8.13-9.34 1.93-2.35 3.98-4.8 4.57-5.44 0.58-0.64 3.39-4.54 6.23-8.66 2.85-4.13 6.72-11.1 8.61-15.5 1.89-4.4 3.24-8.56 3.01-9.25-0.28-0.83-1.35-1.02-5.92 0.1l1.77-2.42c0.97-1.34 2.25-3.56 2.84-4.93 0.6-1.38 1.82-4.07 2.71-6 0.89-1.93 2.99-4.75 4.65-6.29 1.67-1.53 4.6-3.2 6.53-3.71 2.43-0.64 4.26-0.56 5.98 0.29 1.36 0.66 4.66 4.14 7.33 7.71 2.68 3.57 6.61 8.53 8.74 11 2.13 2.47 5.13 5.79 6.66 7.36 1.54 1.58 4.93 3.94 7.54 5.25 3.49 1.76 6.8 2.48 12.5 2.71 4.26 0.18 8.76 0.86 10 1.5 1.24 0.65 4.6 5.12 7.48 9.93 2.88 4.81 7.92 12.12 11.2 16.25 3.28 4.12 8.24 9.91 11.02 12.86 2.89 3.07 7.62 6.65 11.05 8.36 4.53 2.27 6.79 2.86 9.25 2.39 1.79-0.33 3.85-1.17 4.58-1.86 0.72-0.69 2.55-3.5 4.05-6.25 1.5-2.75 3.83-6.01 7.62-9.5l7.25 6.68c3.99 3.68 9.05 7.49 11.25 8.48 2.2 0.99 5.35 1.81 7 1.84 1.65 0.02 3.9-0.63 5-1.45 1.1-0.82 2.34-1.5 2.75-1.52 0.41-0.02 3.17 3.23 6.13 7.22 2.96 3.99 6.41 9.95 7.67 13.25 1.72 4.51 2.28 7.99 2.24 14-0.03 4.4-0.33 9.01-0.67 10.25-0.54 1.95-1.29 2.25-5.62 2.25-2.75 0-6.69 0.69-8.75 1.53-2.06 0.85-5.01 3.21-9.33 8.97l-5.71-1.92c-3.31-1.11-8.67-1.95-12.75-2-4.83-0.05-7.82 0.42-9.5 1.5-1.35 0.86-4.6 4.35-7.21 7.75-2.61 3.39-5.4 7.41-6.19 8.92-0.8 1.51-2.82 4.21-4.5 6-1.87 1.98-4.03 3.25-5.56 3.25-1.39 0-4.6-1.68-7.25-3.8-2.61-2.09-6.44-4.11-8.5-4.5-2.06-0.38-5.44-0.27-7.5 0.25-2.06 0.52-4.87 1.84-8.75 4.94l-6.25-6.45c-4.27-4.39-7.28-6.64-9.5-7.07-2.62-0.52-3.98-0.08-7.05 2.25-2.08 1.58-3.77 2.54-3.75 2.13 0.03-0.41-0.2-1.31-0.51-2q-0.56-1.25 22-12.5c13.7-6.83 22.43-11.74 22.23-12.5-0.18-0.69-2.09-1.39-4.25-1.57-2.15-0.17-6.85 0.21-10.42 0.84-3.57 0.64-9.43 2.61-13 4.37-3.57 1.77-8.75 4.76-11.5 6.66-2.75 1.89-6.19 4.57-7.64 5.94-2.6 2.47-2.69 2.48-5.5 0.73-1.57-0.97-4.96-1.87-7.53-2-3.51-0.16-5.44 0.34-10.83 4.28l-2.75-2.44c-1.51-1.34-4.1-2.93-5.75-3.54-1.65-0.61-4.24-0.87-5.75-0.57-1.51 0.3-4.32 2.35-9.75 8.55l-9.02-6.5 2.76-1.11c1.52-0.61 5.24-3.04 8.26-5.4 3.02-2.36 10.9-9.82 17.5-16.58 6.6-6.75 12.56-12.99 13.25-13.85 0.89-1.11 2.18-1.38 4.5-0.94 1.79 0.35 7.75 0.07 13.25-0.6 5.8-0.72 12.81-2.34 16.69-3.88 3.68-1.45 8.74-4.33 11.25-6.39 2.51-2.06 4.56-4.43 4.56-5.25 0-0.97-0.96-1.49-2.75-1.48-1.51 0.01-6.57 0.87-11.25 1.92-4.68 1.05-10.07 2.36-12 2.9-1.93 0.54-6.09 1.7-9.25 2.57-3.16 0.88-5.98 1.59-6.25 1.59-0.27 0 0.96-2.13 2.75-4.73 1.79-2.6 4.06-5.63 5.04-6.75 0.99-1.11 2.65-3.82 3.69-6.02 1.05-2.2 2.75-5.13 3.78-6.5 1.03-1.38 2.92-5.43 4.2-9 1.29-3.57 2.38-8.97 2.44-12 0.08-4.47-0.21-5.5-1.54-5.5-0.9 0-4.05 3.15-7 7-2.96 3.85-6.25 8.35-7.31 10-1.07 1.65-6.87 9.3-12.89 17-6.02 7.7-12.99 16.47-15.5 19.5-2.5 3.03-7.61 8.65-18.16 19.5v-15.75c0-8.66-0.23-16.43-0.5-17.25-0.27-0.82-1.29-1.51-2.25-1.52-1.24-0.01-1.95 1.08-2.44 3.75-0.39 2.07-0.99 8.49-1.36 14.27-0.52 8.32-0.32 11.44 0.93 15 0.88 2.48 1.6 4.84 1.61 5.25 0 0.41-2.53 3.56-5.62 7-4.81 5.33-5.54 6.65-5 9 0.61 2.68 0.55 2.72-2.37 1.75-1.65-0.55-4.46-1.45-6.25-2-1.79-0.55-6.06-1-9.5-1-5.28 0-6.95 0.47-10.75 3-2.48 1.65-6.32 5.59-8.55 8.75-2.23 3.16-4.37 6.78-4.75 8.05-0.47 1.55-1.18 2.08-2.2 1.64-0.82-0.36-2.96-1.06-4.75-1.55-2.18-0.6-4.45-0.48-6.9 0.36-2.01 0.69-4.15 2.15-4.75 3.25-0.61 1.1-1.21 2.11-1.35 2.25-0.14 0.14-3.96-1.51-8.5-3.65-4.54-2.15-10.05-4.39-12.25-4.99-2.2-0.59-6.47-1.13-9.5-1.19-3.03-0.06-7.3 0.3-9.5 0.8-2.2 0.49-6.93 2.52-10.5 4.51-3.57 1.99-7.62 4.63-9 5.86-1.37 1.23-3.4 3.08-4.5 4.1-1.96 1.82-2.07 1.79-5.5-1.12-1.93-1.64-6.52-4.46-10.2-6.28-5.96-2.92-6.78-3.68-7.37-6.79-0.37-1.93-2.44-6.88-4.61-11-2.16-4.13-5.49-9.41-7.38-11.75-1.97-2.44-4.29-4.25-5.44-4.25-1.1 0-2.25 0.56-2.56 1.25-0.31 0.69 2.08 5.52 5.31 10.75 3.23 5.23 7.04 11.52 11.1 18.5l-3.68 0.68c-2.99 0.56-4.23 0.24-6.67-1.69-1.65-1.3-4.69-3.07-6.75-3.93-2.06-0.86-5.44-1.56-7.5-1.56-2.06 0.01-5.32 0.94-7.25 2.08-1.92 1.14-3.72 1.67-4 1.18-0.28-0.49-2.53-2.25-5-3.91-2.47-1.66-7.87-4.87-12-7.14-4.12-2.26-10.76-5.26-14.75-6.66-4.52-1.59-9.6-2.59-13.5-2.65-3.44-0.06-7.6 0.23-9.25 0.64-1.65 0.41-5.25 1.85-8 3.21-2.75 1.35-6.46 3.88-8.24 5.61-1.77 1.72-3.43 2.91-3.67 2.64-0.23-0.27-0.95-5.23-1.58-11-0.63-5.77-1.04-14.77-0.9-20 0.14-5.22 0.84-12.65 1.56-16.5 0.71-3.85 2.55-10.43 6.83-22.25l7.5 3.62c7.29 3.53 7.83 3.63 19 3.63 6.4 0 14.16-0.63 17.5-1.41 3.3-0.78 6.43-1.79 6.95-2.25 0.52-0.46 1.76-0.84 2.75-0.84 0.99 0 5.06-1.61 9.05-3.57 3.99-1.96 7.93-4.16 8.75-4.88 0.83-0.73 3.97-2.48 7-3.91 3.03-1.43 5.84-2.61 6.25-2.62 0.41-0.01 3.11-1.63 6-3.6 2.89-1.97 7.39-5.34 10-7.5 2.61-2.16 4.97-3.92 5.25-3.92 0.28 0 0.5 1.12 0.5 2.5 0 1.37 1.39 6.66 3.1 11.75 1.7 5.09 4.42 11.72 6.03 14.75 1.61 3.03 4.4 7.53 6.2 10 1.86 2.57 5.6 5.84 14.17 10.77l-5.5 0.52c-3.03 0.28-9.32-0.04-14-0.72-6.53-0.95-11.05-2.44-19.5-6.43-6.05-2.85-11.34-5.18-11.75-5.17-0.41 0.02-0.77 0.82-0.8 1.78-0.02 0.96 1.89 3.52 4.25 5.69 2.37 2.17 7.45 5.42 11.3 7.23 3.85 1.81 10.82 4.24 15.5 5.4 5.73 1.43 10.62 1.99 15 1.74 3.57-0.21 7.96-1.15 13-3.81l4.33 3.75c2.37 2.06 6.13 6.23 8.33 9.25 2.21 3.02 6 9.49 8.43 14.36 2.42 4.87 6.32 11.06 8.66 13.75 2.34 2.69 4.93 4.89 5.75 4.89 0.82 0 1.51-0.56 1.52-1.25 0.01-0.69-0.69-3.27-1.55-5.75-0.86-2.48-3.4-8.1-5.64-12.5-2.23-4.4-5.97-10.7-8.3-14-2.33-3.3-6.55-8.14-9.38-10.75-2.83-2.61-5.6-4.75-6.15-4.75-0.55 0-1.22-0.9-1.5-2-0.32-1.27-1.32-1.99-2.75-1.97-1.24 0.01-4.44-1.68-7.13-3.75-2.68-2.08-6.62-5.92-12.62-13.28l3.4-4.75c1.87-2.61 4.77-7.45 6.45-10.75 1.68-3.3 4-8.7 5.16-12 1.16-3.3 2.42-9.12 2.8-12.93 0.59-5.91 0.47-6.84-0.81-6.4-0.82 0.28-2.66 2.5-4.07 4.92-1.42 2.43-5.63 10.26-9.37 17.41-3.74 7.15-7.15 13.45-7.58 14-0.44 0.56-1.91-2.08-3.35-6-1.41-3.85-3.26-9.7-4.1-13-0.85-3.3-1.53-6.68-1.51-7.5 0.01-0.82 1.03-2.52 2.25-3.78 1.23-1.25 2.57-2.26 2.98-2.25 0.41 0.02 3.1-1.88 5.98-4.22 2.87-2.34 5.91-4.87 6.75-5.62 0.83-0.76 3.43-2.22 5.77-3.25 3.13-1.38 6.3-1.83 12-1.71 6.11 0.14 8.49-0.24 11.25-1.81 1.93-1.09 4.05-3.08 4.73-4.42 0.68-1.34 2.36-5.03 3.75-8.19 1.39-3.16 2.81-6.99 3.16-8.5 0.35-1.51 0.82-3.09 1.05-3.5 0.22-0.41 0.87-0.75 1.44-0.75zm59.51 27.98c1.02-0.02 4.9 1.56 8.61 3.5 4.81 2.51 8.05 3.52 11.25 3.52 2.48 0 5.4-0.45 6.5-1 1.1-0.55 2-0.78 2-0.5 0 0.27-4.73 6.46-10.51 13.75-5.79 7.29-11.07 13.91-11.75 14.72-0.68 0.81-3.62 4.41-6.53 8-2.91 3.59-5.29 6.3-5.3 6.03 0-0.28-0.19-5.23-0.42-11-0.23-5.78-0.91-13.88-1.52-18-0.6-4.13-1.29-8.18-1.52-9-0.24-0.82 1.31-3.41 3.45-5.75 2.13-2.34 4.72-4.26 5.74-4.27z"/>
		<path id="Path 2" class="s2" d="m213.37 125.38c-1.03 0.72-2.7 3.29-3.72 5.71-1.02 2.43-3.14 6.32-4.71 8.66-2.42 3.61-3.73 4.5-8.65 5.89-3.18 0.9-8.49 2.51-11.79 3.58-3.3 1.06-7.46 3.03-9.25 4.36-1.79 1.33-3.7 2.42-4.25 2.42-0.55 0-0.99 0.34-0.99 0.75 0.01 0.41-2.35 2.17-5.25 3.92-2.89 1.74-7.96 4.52-11.26 6.17-3.3 1.66-9.82 4.84-14.5 7.06-4.68 2.23-8.84 4.06-9.25 4.07-0.41 0.02-4.58 1.83-9.25 4.03-4.68 2.2-10.86 4.66-13.75 5.47-2.89 0.81-7.72 2.13-10.75 2.94-3.03 0.8-7.97 2-11 2.66-3.5 0.76-9.5 0.99-16.5 0.62-6.05-0.32-12.35-1.1-14-1.73-1.65-0.63-4.35-2.29-6-3.69l-3-2.55c-1.01 3.71-1.35 7.14-1.4 10.03-0.06 2.89 0.5 6.71 1.23 8.5 0.72 1.79 2.93 4.6 4.89 6.25 1.96 1.65 5.87 3.56 8.68 4.25 2.8 0.69 7.91 1.26 11.35 1.26 3.44 0.01 9.85-0.69 14.25-1.55 4.4-0.86 8.9-1.98 10-2.48 1.1-0.5 6.5-2.44 12-4.31 6.15-2.09 13.63-5.67 19.44-9.29 5.2-3.23 12.62-8.84 16.5-12.46 3.88-3.62 7.96-7.3 9.06-8.17 1.1-0.88 5.04-4.1 8.75-7.17 3.71-3.07 7.2-5.58 7.75-5.58 0.55 0 1-0.34 0.99-0.75 0-0.41 1.23-1.32 2.75-2.02 1.52-0.7 4.56-2.23 6.76-3.39 3.27-1.73 5.6-2.09 12.75-1.98 8.65 0.14 8.78 0.1 11.81-3.11 2.11-2.25 4.03-6.33 6.22-13.25 1.75-5.5 4.2-11.24 5.45-12.75 1.25-1.51 1.87-2.96 1.39-3.21-0.48-0.25-1.72 0.13-2.75 0.84zm15.74 9.37c0.47 1.51 2.04 6.8 3.48 11.75 1.93 6.61 2.74 12.05 3.07 20.5 0.24 6.32 0.64 12.51 0.89 13.75 0.25 1.24 1.57 2.93 2.95 3.75 1.9 1.14 3.21 1.26 5.5 0.5 1.65-0.55 5.04-2.69 7.53-4.75 2.49-2.06 7.89-7.69 12-12.5 4.91-5.75 8.41-8.97 10.22-9.38 1.55-0.36 5.36 0.11 8.75 1.09 3.3 0.94 7.24 2.58 8.75 3.63 1.51 1.05 3.31 1.9 4 1.89 0.69 0 2.82-1.09 4.75-2.42 2.39-1.64 4.61-4.73 7-9.71 1.93-4.01 4.85-8.6 6.5-10.2 1.65-1.59 4.57-3.52 6.5-4.3 1.93-0.77 5.64-1.39 8.25-1.37 3.35 0.01 6.13 0.83 9.42 2.77 2.92 1.72 6.62 5.38 9.85 9.75 2.85 3.85 6.83 9.59 8.83 12.75 2.01 3.16 5.11 6.66 6.9 7.77 2.81 1.75 4.26 1.94 10.75 1.38 6.56-0.56 8.18-0.34 12.9 1.73 2.98 1.31 6.79 4.01 8.5 6.02 1.71 2.01 3.82 4.71 4.71 6 0.88 1.29 1.58 2.58 1.54 2.85-0.03 0.28 1.92 3.43 4.35 7 2.43 3.57 7.32 9.88 10.86 14 3.54 4.13 7.33 8.4 8.43 9.5 1.09 1.1 1.7 1.44 1.35 0.75-0.35-0.69-0.41-1.25-0.14-1.25 0.27 0 2.03 0.79 3.91 1.75l3.4 1.75c3.97-4.65 5.14-6.34 5.16-6.75 0.02-0.41 1.83-2.55 4.03-4.75 3.14-3.14 4.75-4 7.5-4 1.93 0 4.51 0.52 5.75 1.16 1.24 0.64 5.62 4.25 9.75 8.02 4.12 3.77 8.29 6.85 9.25 6.84 0.96-0.01 2.83-1.71 4.15-3.77 1.31-2.06 2.86-5.32 3.44-7.25 0.58-1.93 1.3-6.76 1.61-10.75 0.3-3.99 0.32-7.25 0.05-7.25-0.27 0-2.41 1.3-4.75 2.88-2.34 1.59-5.6 3.17-7.25 3.53-2.03 0.44-5.6-0.21-11-2-6.87-2.28-9.98-2.69-22-2.92-9.29-0.17-15.18-0.74-17.5-1.69-1.93-0.79-5.48-3.21-7.91-5.37-2.43-2.16-5.32-5.95-6.43-8.43-1.11-2.47-3.85-6.43-6.09-8.8-2.24-2.36-5.42-4.7-7.07-5.19-1.65-0.49-7.05-1.63-12-2.54-4.95-0.91-9.96-2.17-11.14-2.81-1.18-0.64-3.81-3.18-5.85-5.66-2.03-2.47-7.6-7.76-12.36-11.74-4.76-3.98-10.11-7.92-11.9-8.75-1.79-0.83-5.95-1.51-9.25-1.51-3.94 0-7.63 0.73-10.75 2.11-2.61 1.16-5.34 2.74-6.07 3.5-0.73 0.77-1.63 1.37-2 1.35-0.37-0.02-3.49 2.45-6.93 5.5-3.44 3.05-6.93 5.54-7.75 5.54-0.82 0-3.31 1.01-5.53 2.25-4 2.24-4.06 2.24-10.75 0.52-3.69-0.96-7.73-1.74-8.97-1.75-1.35-0.01-4.34 1.98-7.5 5.01-2.89 2.76-7.5 6.42-10.25 8.12-2.75 1.7-6.66 3.38-8.69 3.72-3.48 0.6-3.72 0.46-4.3-2.37-0.35-1.65-1.08-5.02-1.64-7.5-0.56-2.47-2.58-7.87-4.5-12-1.92-4.12-4.48-8.96-5.68-10.74-1.2-1.79-2.47-3.25-2.81-3.25-0.35-0.01-0.24 1.23 0.23 2.74z"/>
		<path id="Path 3" class="s3" d="m264.36 24.73c-0.63 0.37-3.78 2.28-7 4.25-3.22 1.96-7.89 4.16-10.36 4.88-2.48 0.72-11.03 1.52-19 1.77-7.98 0.25-16.3 0.93-18.5 1.51-2.2 0.58-6.25 2.11-9 3.41-3.61 1.7-7.13 4.8-12.67 11.15-4.21 4.84-9.61 10.62-12 12.83-2.38 2.22-5.91 5.13-7.83 6.46-2.06 1.43-6.8 3.08-11.5 4.01-4.4 0.87-10.03 2.76-12.5 4.2-3.13 1.81-6.32 5.19-10.5 11.12-3.3 4.69-7.35 9.44-9 10.58-1.65 1.13-4.35 3.22-6 4.64-1.65 1.42-9.08 5.51-16.5 9.1-7.43 3.58-14.4 6.93-15.5 7.45-1.1 0.52-4.29 3.07-7.1 5.68-2.8 2.6-6.29 6.64-7.75 8.98-1.46 2.34-4.07 8.64-5.8 14-1.74 5.36-4.32 11.3-5.75 13.19-1.43 1.9-3.84 4.82-5.36 6.5-1.53 1.68-4.11 5.87-5.75 9.31l-2.99 6.25c3.49 3.18 5.96 4.76 7.75 5.55 1.8 0.81 8.26 1.73 14.5 2.08 7.35 0.42 13.16 0.22 16.75-0.56 3.02-0.66 7.97-1.86 11-2.66 3.02-0.81 7.86-2.13 10.75-2.94 2.89-0.81 9.07-3.27 13.75-5.47 4.67-2.2 8.84-4.01 9.25-4.03 0.41-0.01 4.57-1.84 9.25-4.07 4.67-2.22 11.2-5.4 14.5-7.06 3.3-1.65 8.37-4.43 11.26-6.17 2.9-1.75 5.26-3.51 5.25-3.92 0-0.41 0.44-0.75 0.99-0.75 0.55 0 2.46-1.09 4.25-2.42 1.79-1.33 5.95-3.3 9.25-4.36 3.3-1.07 8.47-2.66 11.5-3.53 4.48-1.29 6.08-2.39 8.65-5.89 1.73-2.36 3.98-6.28 5-8.71 1.02-2.42 2.75-4.97 3.85-5.66 1.44-0.9 3.12-1 6-0.32 2.81 0.65 5.3 2.33 8.37 5.66 2.41 2.6 6.32 8.78 8.69 13.73 2.38 4.95 4.77 11.03 5.32 13.5 0.55 2.47 1.28 5.85 1.63 7.5 0.58 2.83 0.82 2.97 4.3 2.37 2.03-0.34 5.94-2.02 8.69-3.72 2.75-1.7 7.36-5.36 10.25-8.12 3.16-3.03 6.15-5.02 7.5-5.01 1.24 0.01 5.28 0.79 8.97 1.75 6.69 1.72 6.75 1.72 10.75-0.52 2.22-1.24 4.7-2.25 5.53-2.25 0.82 0 4.31-2.49 7.75-5.54 3.44-3.05 6.56-5.52 6.93-5.5 0.37 0.02 1.27-0.58 2-1.35 0.73-0.76 3.46-2.34 6.07-3.5 3.12-1.38 6.81-2.11 10.75-2.11 3.3 0 7.46 0.68 9.25 1.51 1.79 0.83 7.14 4.77 11.9 8.75 4.76 3.98 10.33 9.27 12.36 11.74 2.04 2.47 4.67 5.02 5.85 5.66 1.18 0.64 6.19 1.9 11.14 2.81 4.95 0.91 10.35 2.05 12 2.54 1.65 0.49 4.83 2.83 7.07 5.19 2.24 2.37 4.98 6.33 6.09 8.8 1.11 2.47 4 6.27 6.43 8.43 2.43 2.16 5.98 4.58 7.91 5.37 2.32 0.95 8.21 1.52 17.5 1.69 11.99 0.23 15.15 0.65 22 2.91 5.16 1.7 9.07 2.43 11 2.05 1.65-0.33 4.8-1.83 7-3.35 3.77-2.6 3.98-3.02 3.69-7.18-0.17-2.43-1.4-6.45-2.74-8.92-1.34-2.47-4.24-6.41-6.44-8.75-2.21-2.34-5.92-5.43-8.26-6.87-2.34-1.45-6.5-4.3-9.25-6.35-2.75-2.04-7.93-5.3-11.5-7.24-4.28-2.32-8.55-5.81-12.5-10.23-3.3-3.68-7.42-8.81-9.14-11.38-1.73-2.57-5.95-10.08-9.37-16.68-3.42-6.6-7.18-13.53-8.35-15.4-1.18-1.87-3.94-4.43-6.14-5.69-3.01-1.72-7.34-2.68-17.5-3.87-10.41-1.22-14.42-2.12-17.5-3.93-2.2-1.3-6.5-5.45-9.55-9.23-3.06-3.79-7.11-8.13-9-9.66-3.05-2.45-4.84-2.92-15.45-4.04-8.63-0.92-13.27-1.92-16.5-3.56-2.48-1.26-6.02-3.72-7.88-5.46-1.85-1.74-5.74-6.31-8.63-10.16-2.9-3.85-6.55-8.2-8.13-9.66-1.57-1.46-4.88-3.71-7.36-4.98-3.09-1.6-6.53-2.4-11-2.56-3.58-0.14-7.01 0.06-7.64 0.43zm164.14 195.33c1.11 1.16 2.89 1.92 4 1.71 1.71-0.32 1.52-0.62-1.25-2.07-1.79-0.94-3.59-1.7-4-1.71-0.41 0 0.15 0.93 1.25 2.07z"/>
		<path id="Path 4" class="s0" d="m306.99 86.25c0 1.24 0.74 3.38 1.66 4.75 0.91 1.38 2.83 3.78 4.25 5.35 1.43 1.56 5.75 4.43 9.6 6.37 3.85 1.95 9.48 4.18 12.5 4.96 3.53 0.92 7.29 1.19 10.5 0.76 2.75-0.37 6.24-1.3 7.75-2.06 1.62-0.81 2.75-2.2 2.75-3.38 0-1.28-0.81-2.15-2.25-2.42-1.24-0.23-5.63-0.94-9.75-1.59-4.13-0.64-10.09-1.8-13.25-2.58-3.16-0.77-8.34-3.15-11.5-5.27-3.16-2.12-6.43-4.62-7.25-5.54-0.82-0.93-2.29-1.67-3.25-1.64-1.13 0.02-1.75 0.83-1.76 2.29zm-174.81 22c-0.57 0.69-2.2 3.84-3.61 7-1.41 3.16-2.57 7.1-2.57 8.75 0 2.08 1.02 3.99 3.34 6.25 1.83 1.79 4.87 3.59 6.75 4.01 1.87 0.42 5.21 0.76 7.41 0.75 2.2-0.01 5.8-0.49 8-1.06 2.2-0.57 5.8-1.79 8-2.71 2.2-0.92 6.36-3.37 9.25-5.46 2.89-2.08 5.47-4.45 5.75-5.28 0.27-0.83 1.06-1.51 1.75-1.53 0.69-0.01 2.04-0.68 3-1.5 1.56-1.31 2.27-1.21 6.5 0.91 2.61 1.3 6.32 2.69 8.25 3.08 1.97 0.4 5.69 0.19 8.5-0.49 2.75-0.67 6.28-2.4 7.85-3.84 1.57-1.45 3.26-3.64 3.75-4.88 0.5-1.24 0.67-2.92 0.4-3.75-0.28-0.83-1.4-1.5-2.5-1.5-1.1 0-5.62 1.24-10.04 2.75-7.06 2.41-8.5 2.61-11.75 1.59-2.04-0.64-5.74-1.9-8.21-2.8-2.93-1.07-5.54-1.39-7.5-0.91-1.65 0.4-5.93 3.11-9.5 6.01-3.57 2.91-8.98 6.49-12 7.95-3.03 1.47-7.98 3.13-11 3.7-3.03 0.57-6.29 0.74-7.25 0.37-1.51-0.57-1.6-1.1-0.61-3.91 0.63-1.79 1.8-4.83 2.6-6.75 1.12-2.67 1.2-4.03 0.36-5.75-0.6-1.24-1.72-2.25-2.49-2.25-0.76 0-1.86 0.56-2.43 1.25z"/>
		<path id="Path 5" class="s2" d="m317.92 101.96c0.59 1.12 3.89 3.83 7.33 6.02 3.73 2.37 8.07 4.23 10.75 4.61 2.93 0.42 6.59 0.07 10.5-1 3.86-1.06 6.51-2.44 7.45-3.87 1.34-2.07 1.31-2.16-0.5-1.34-1.07 0.48-4.2 1.31-6.95 1.84-3.58 0.7-6.56 0.61-10.5-0.3-3.02-0.69-8.57-2.78-12.33-4.63-5.98-2.95-6.7-3.12-5.75-1.33zm-139.06 15.58c-0.75 0.85-1.92 1.53-2.61 1.5-0.69-0.02-1.37 0.6-1.52 1.38-0.14 0.79-2.73 3.16-5.75 5.29-3.01 2.12-7.28 4.61-9.48 5.53-2.2 0.92-5.8 2.14-8 2.71-2.2 0.57-5.8 1.05-8 1.06-2.2 0.01-5.35-0.23-7-0.53-1.65-0.29-4.01-1.42-5.25-2.51-2.06-1.81-2.25-1.82-2.3-0.22-0.02 0.96 1.67 3.36 3.75 5.32 2.85 2.68 5.05 3.76 8.8 4.32 2.75 0.42 6.8 0.47 9 0.11 2.2-0.35 6.25-1.35 9-2.23 2.75-0.88 6.46-2.42 8.25-3.43 1.79-1.01 4.71-3.16 6.5-4.76 1.79-1.61 4.37-3.88 5.75-5.03 2.02-1.71 3.83-2.11 9.5-2.1 3.85 0 8.8-0.43 11-0.96 2.2-0.53 4.45-1.41 5-1.96 0.65-0.65-0.59-0.63-3.5 0.05-2.48 0.57-6.08 0.75-8 0.38-1.93-0.36-5.64-1.74-8.25-3.06-2.61-1.32-4.92-2.4-5.14-2.4-0.21 0-1 0.7-1.75 1.54z"/>
	</g>
</svg>