<svg version="1.2" xmlns="http://www.w3.org/2000/svg" viewBox="0 0 408 539" width="408" height="539">
	<style>
		.s0 { opacity: .5;fill: #a4d0e3 } 
		.s1 { fill: #1a1a1a } 
		.s2 { fill: #d7e9f1 } 
		.s3 { fill: #727272 } 
		.s4 { fill: #ffffff } 
	</style>
	<g id="Background">
		<path id="Path 0" class="s0" d="m366 306.62c-3.57 0.81-8.06 2.24-9.97 3.17-1.91 0.94-5.96 4.19-9 7.23-3.04 3.03-6.43 7.07-7.53 8.98-1.55 2.68-2.81 3.58-5.62 3.98-2.63 0.38-4.95 1.87-8.54 5.52-3.95 4.02-5.99 5.25-10.38 6.28-4.73 1.12-6 1.07-9.46-0.33-2.2-0.89-6.7-3.37-10-5.5-3.63-2.35-8.18-4.3-11.5-4.94-3.02-0.58-7.52-0.77-10-0.43-2.48 0.35-7.2 1.81-10.5 3.24-3.3 1.43-6.23 2.87-6.5 3.21-0.27 0.33-2.64 2.03-5.25 3.79-2.61 1.75-5.43 3.18-6.25 3.18-0.82 0-3.64-0.94-6.25-2.09q-4.75-2.09-7.75-1.49c-1.65 0.34-3.45 0.75-4 0.91-0.55 0.16-3.42 1.61-6.39 3.23-2.96 1.62-7.35 3.95-9.75 5.19-2.4 1.24-6.5 2.53-9.11 2.88-3.24 0.42-6.81 0.04-11.25-1.21-5.54-1.55-7.46-2.77-13-8.16-4.46-4.35-7.76-6.67-10.5-7.4-2.2-0.59-5.57-0.81-7.5-0.49-1.93 0.31-6.43 1.24-10 2.07-3.57 0.82-8.07 1.5-10 1.52-1.93 0.01-5.97-1.13-9-2.54-4.4-2.05-6.45-2.45-10.25-1.99-2.61 0.31-6.66 1.24-9 2.06-4.2 1.46-4.35 1.43-11.75-2.23-6.96-3.43-8.15-3.71-16.5-3.72-4.95-0.01-11.92 0.18-15.5 0.44-3.58 0.25-8.44 0.92-10.82 1.49-4.09 0.98-4.23 1.12-2.5 2.66 1 0.9 4.41 1.91 7.57 2.25 4.17 0.45 5.75 1.03 5.75 2.12 0 0.82-1.24 2.23-2.75 3.13-1.51 0.9-5.23 3.47-8.25 5.71-3.02 2.24-9.33 7.91-14.02 12.61-4.68 4.7-9.97 10.69-11.75 13.3-1.78 2.61-3.91 7.11-4.74 10-0.83 2.89-1.5 8.18-1.48 11.75 0.02 5.24 0.64 7.76 3.2 13 1.95 4 5.31 8.56 8.73 11.86 3.06 2.94 8.48 7.06 12.06 9.16 3.58 2.09 7.85 4.14 9.5 4.55 1.65 0.42 4.8 1.89 7 3.28 2.2 1.38 6.47 4.11 9.5 6.07 3.03 1.95 8.15 6.03 11.39 9.06 3.24 3.04 9.03 10.25 12.86 16.02 3.83 5.77 8.88 12.75 11.21 15.5 2.34 2.75 6.45 6.23 9.14 7.72 2.7 1.5 7.49 3.19 10.65 3.75 4.51 0.81 6.35 1.72 8.5 4.2 1.51 1.74 5 4.83 7.75 6.87 2.75 2.04 7.03 4.61 9.5 5.72 2.47 1.1 6.3 2.57 8.5 3.26 2.2 0.69 7.82 1.41 12.5 1.6 4.68 0.2 9.85-0.07 11.5-0.58 1.65-0.51 5.59-1.63 8.75-2.49 3.16-0.85 5.75-2 5.75-2.55 0-0.55 0.79-0.99 1.75-0.97 0.96 0.02 2.65-0.89 3.75-2.03 1.1-1.14 2.45-2.07 3-2.08 0.55 0 3.48-2.58 6.5-5.71 3.03-3.14 6.89-7.51 8.58-9.71 1.7-2.2 4.31-6.7 5.82-10 2.54-5.57 3.35-6.38 11.41-11.34 4.78-2.94 10.14-6.32 11.92-7.5 1.77-1.19 7.39-4.64 12.49-7.66 5.1-3.02 12-8.2 15.34-11.5 3.34-3.3 8.14-9.15 10.67-13 2.52-3.85 4.84-7.68 5.15-8.5 0.31-0.82 2.8-3.07 5.53-5 2.73-1.93 6.35-5.52 8.04-8 1.69-2.48 4.46-6.07 6.15-8 1.68-1.93 3.69-4.85 4.46-6.5 0.76-1.65 2.41-4.11 3.66-5.48 1.93-2.09 2.31-3.7 2.48-10.5 0.19-7.72 0.34-8.19 4-12.49 2.09-2.46 5.37-6.15 7.3-8.2 1.93-2.06 4.06-3.76 4.75-3.79 0.69-0.02 2.31-1.73 3.6-3.79 1.29-2.06 2.96-5.55 3.71-7.75 0.75-2.2 1.64-4.45 1.98-5 0.34-0.55 1.93-5.01 3.54-9.91 2.62-7.99 3.26-9.05 6.17-10.25 1.79-0.74 5.16-1.61 7.5-1.93 2.34-0.32 5.71-1 7.5-1.5 2.87-0.8 3.25-1.31 3.25-4.41 0-3.28-0.2-3.5-3.25-3.51-1.79-0.01-4.15-0.2-5.25-0.43-1.1-0.22-4.93 0.26-8.5 1.06z"/>
		<path id="Path 1" class="s1" d="m275.5 8.95c-1.65 0.36-6.08 2.21-9.85 4.1-3.92 1.97-8.63 5.38-11 7.96-2.28 2.48-5.72 6.67-7.65 9.32-1.93 2.64-4.63 5.52-6 6.39-1.38 0.87-2.95 1.67-3.5 1.78-0.55 0.11-1.68 0.43-2.5 0.72-0.82 0.29-3.97 1.23-7 2.1-3.03 0.86-8.13 3.28-11.33 5.38-4.12 2.68-7.23 5.86-10.59 10.8-2.62 3.85-5.84 9.03-7.17 11.5-1.32 2.47-2.67 4.72-3 5-0.32 0.28-1.87 2.75-3.44 5.5-1.57 2.75-3.78 6.24-4.91 7.76-1.13 1.51-3.61 4.56-5.51 6.77-1.9 2.21-5.73 5.87-8.5 8.13-2.78 2.26-5.51 4.61-6.07 5.22-0.57 0.62-1.92 1.7-3 2.4-1.09 0.7-3.27 2.05-4.86 3-1.58 0.95-4.05 2.65-5.5 3.79-1.44 1.14-6.22 4.55-10.62 7.57-4.4 3.01-11.15 7.39-15 9.72-3.85 2.34-7.88 4.78-8.97 5.44-1.08 0.66-4.9 3.5-8.5 6.32-3.59 2.81-10.39 8.89-15.12 13.5-4.72 4.61-9.55 9.73-10.74 11.38-1.19 1.65-3.21 4.57-4.5 6.5-1.28 1.93-2.68 4.62-3.1 6-0.43 1.37-1.34 3.4-2.02 4.5-0.68 1.1-1.94 4.47-2.8 7.5-0.87 3.03-2.05 7.3-2.63 9.5-0.59 2.2-1.57 8.72-2.2 14.5-0.85 7.94-0.84 13.68 0.06 23.5 0.69 7.63 2.22 16.51 3.69 21.5 1.44 4.88 4.06 10.79 6.17 13.89 2.01 2.97 4.65 6.12 5.85 7 2.02 1.48 2.12 2.02 1.21 6.61-0.54 2.75-1.45 7.02-2.02 9.5-0.56 2.48-1.33 7.51-1.7 11.19l-0.68 6.69c-13.17 1.17-17.45 1.39-18 1.26-0.55-0.13-3.25 0.22-6 0.79-2.75 0.56-6.24 1.93-7.75 3.05-1.76 1.29-2.66 2.79-2.5 4.17 0.14 1.18 1.38 2.99 2.75 4.01 2.29 1.7 2.97 1.75 8 0.52 3.02-0.74 8.2-1.53 11.5-1.76 3.3-0.23 10.05-0.41 15-0.39 8.34 0.02 9.55 0.3 16.5 3.73 7.4 3.66 7.55 3.69 11.75 2.23 2.34-0.82 6.39-1.75 9-2.06 3.8-0.46 5.85-0.06 10.25 1.99 3.03 1.41 7.07 2.55 9 2.54 1.93-0.02 6.43-0.7 10-1.52 3.57-0.83 8.07-1.76 10-2.07 1.93-0.32 5.3-0.1 7.5 0.49 2.74 0.73 6.04 3.05 10.5 7.4 5.54 5.39 7.46 6.61 13 8.16 4.44 1.25 8.01 1.63 11.25 1.21 2.61-0.35 6.71-1.64 9.11-2.88 2.4-1.24 6.79-3.57 9.75-5.19 2.97-1.62 5.84-3.07 6.39-3.23 0.55-0.16 2.35-0.57 4-0.91q3-0.6 7.75 1.49c2.61 1.15 5.43 2.09 6.25 2.09 0.82 0 3.64-1.43 6.25-3.18 2.61-1.76 4.98-3.46 5.25-3.79 0.27-0.34 3.2-1.78 6.5-3.21 3.3-1.43 8.02-2.89 10.5-3.24 2.48-0.34 6.98-0.15 10 0.43 3.32 0.64 7.87 2.59 11.5 4.94 3.3 2.13 7.8 4.61 10 5.5 3.46 1.4 4.73 1.45 9.46 0.33 4.39-1.03 6.43-2.26 10.38-6.28 3.59-3.65 5.91-5.14 8.54-5.52 2.81-0.4 4.07-1.3 5.62-3.98 1.1-1.91 4.49-5.95 7.53-8.98 3.04-3.04 7.09-6.28 9-7.22 1.91-0.93 6.62-2.34 10.47-3.14 4.86-1 8.68-1.19 12.5-0.63 3.02 0.46 6.29 0.86 7.25 0.9 1.25 0.05 1.76-0.71 1.79-2.68 0.03-1.51-0.76-3.68-1.75-4.81-0.98-1.14-3.59-2.67-5.79-3.41-2.2-0.74-6.59-1.27-9.75-1.19-4.82 0.13-5.77-0.12-5.89-1.59-0.08-0.96-0.27-3.32-0.42-5.25-0.15-1.93-0.79-7.77-1.43-13-0.63-5.23-1.8-13.32-2.59-18-0.79-4.68-1.44-9.63-1.44-11 0-1.93 0.72-2.73 3.18-3.5 1.75-0.55 4.47-2.57 6.05-4.5 2.11-2.58 3.06-5.09 3.61-9.5 0.41-3.3 0.43-10.72 0.05-16.5-0.38-5.78-1.89-16.35-3.37-23.5-1.48-7.15-3.84-15.7-5.25-19-1.47-3.44-2.46-7.49-2.32-9.5 0.12-1.93 0.3-8.45 0.38-14.5 0.14-10.39-0.09-11.77-4.21-25-2.4-7.7-6.22-17.73-8.48-22.29-2.27-4.56-6.76-11.99-9.99-16.5-3.23-4.52-7-10.46-8.39-13.21-2.15-4.26-2.57-6.62-2.84-16-0.17-6.05-0.6-12.8-0.96-15-0.35-2.2-1.9-6.7-3.44-10-1.71-3.68-4.68-7.74-7.69-10.5-3.16-2.9-6.84-5.11-10.36-6.23-3.19-1.01-9.81-1.88-15.95-2.1-5.77-0.21-11.85-0.09-13.5 0.28z"/>
		<path id="Path 2" class="s2" d="m352.14 142.75c-0.08 0.69-2.39 3.5-5.14 6.25-4.54 4.54-5.53 5.06-10.75 5.62-3.16 0.34-7.89 0.34-10.5 0-3.72-0.49-4.86-0.3-5.25 0.88-0.36 1.07 0.22 1.5 2 1.5 1.49 0 4.02 1.43 6.25 3.54 2.85 2.69 4.59 3.52 7.25 3.49 1.93-0.02 5.07-0.82 6.98-1.78 1.91-0.96 4.52-3.32 5.8-5.25 1.27-1.93 2.77-5.3 3.34-7.5 0.56-2.2 0.83-4.9 0.59-6-0.24-1.1-0.5-1.44-0.57-0.75zm-32.97 22.1c-0.23 0.91 0.47 2.77 1.55 4.15 1.08 1.37 4.17 4.17 6.87 6.2 2.7 2.04 7.16 4.43 9.91 5.32 2.75 0.89 8.15 1.84 12 2.11 3.85 0.27 7.54 0.12 8.21-0.32 0.93-0.63 0.85-2.18-0.35-6.81-0.85-3.3-1.61-6.13-1.7-6.28-0.09-0.16-1.73 0.63-3.66 1.75-1.93 1.12-5.98 2.31-9 2.65-3.02 0.33-7.41 0.1-9.75-0.51-2.62-0.68-6.06-2.8-8.96-5.51-3.7-3.44-4.8-4.04-5.12-2.75zm-42.07 2.24c-2.39 1.69-4.28 3.61-4.19 4.25 0.08 0.64-4.02 5.03-9.13 9.76-6.21 5.77-10.6 10.86-13.28 15.42-2.2 3.75-6.76 9.78-10.14 13.4-3.37 3.62-8.55 8.07-11.5 9.89-3.69 2.28-6.6 3.31-9.36 3.32-2.2 0.01-7.15-1.17-11-2.62-3.85-1.45-9.92-2.9-13.5-3.21-5.34-0.48-7.39-0.19-11.5 1.61-2.75 1.2-6.8 3.4-9 4.89-2.19 1.48-6.02 4.22-8.5 6.08-2.47 1.86-10.8 6.41-18.5 10.11-7.7 3.71-16.7 7.51-20 8.46-3.3 0.95-8.92 1.97-12.5 2.26-3.57 0.29-9.87 0-14-0.64-4.13-0.64-9.3-2.21-11.5-3.5-2.2-1.28-6.15-4.52-8.78-7.2l-4.78-4.87c0.04 10.85 0.55 16.7 1.16 20 0.6 3.3 1.96 7.69 3 9.75 1.05 2.06 3.36 5.38 5.15 7.38 1.79 1.99 4.6 4.35 6.25 5.24 2.22 1.19 5.59 1.59 13 1.54 8.02-0.06 10.94-0.5 14.75-2.24 2.61-1.19 5.09-2.18 5.5-2.18 0.41-0.01 2.78-1 5.25-2.2 2.48-1.19 6.75-3.73 9.5-5.64 2.75-1.91 9.5-8.19 15-13.96 5.5-5.77 13.67-14.14 18.15-18.59 4.48-4.46 9.54-9.11 11.25-10.35 1.7-1.24 4.11-2.26 5.35-2.26 1.24-0.01 3.8 0.33 5.71 0.75 1.9 0.42 4.61 1.88 6.02 3.26 1.57 1.52 3.83 6.21 5.79 12 1.77 5.22 4.57 11.19 6.22 13.25 1.67 2.08 3.9 3.75 5.01 3.75 1.1 0 3.8-0.9 6-2 2.2-1.1 6.81-4.08 10.25-6.63 3.44-2.55 6.98-5.59 7.86-6.75 0.89-1.17 2.54-3.92 3.66-6.12 1.13-2.2 2.78-8.28 3.67-13.5 1.05-6.19 2.8-11.94 5.02-16.5 1.92-3.95 5.87-9.61 9.06-13 3.11-3.3 6.85-7.56 8.32-9.47 1.46-1.9 3.34-4.22 4.16-5.15 0.83-0.92 2.47-3.3 3.65-5.28 1.66-2.77 2.81-3.61 5-3.63 1.57-0.01 4.43 1.02 6.35 2.29 1.93 1.27 4.49 4.1 5.71 6.28 1.22 2.18 3.37 9.14 4.8 15.46 1.47 6.56 3.85 13.86 5.53 17 1.62 3.03 4.3 7.19 5.96 9.25 1.89 2.37 4.1 3.93 6 4.25 2.33 0.39 4.39-0.41 9.25-3.59 5.31-3.47 6.78-4 9.75-3.47 1.93 0.34 4.74 1.51 6.25 2.59 1.51 1.08 4.07 4.33 5.68 7.22 1.61 2.89 3.86 6.04 5 7 1.14 0.96 2.52 1.53 3.07 1.25 0.55-0.28 1.9-2.3 3-4.5 1.52-3.04 2-5.99 1.99-12.25 0-4.54-0.28-10.72-0.62-13.75l-0.61-5.5c-4.1 8.38-4.87 9.04-7.83 9.29-2.92 0.25-4.41-0.54-9.93-5.26-3.57-3.06-7.4-5.82-8.5-6.13-1.1-0.32-4.36-0.09-7.25 0.51-2.89 0.6-7.05 1.09-9.25 1.09-2.2 0-5.24-0.61-6.75-1.36-2.11-1.04-3.8-3.77-7.25-11.68-3.1-7.1-5.43-11.02-7.5-12.58-1.65-1.24-4.69-2.96-6.75-3.82-2.06-0.86-5-1.56-6.52-1.56-1.52 0-4.73 1.39-7.13 3.09z"/>
		<path id="Path 3" class="s3" d="m288.53 176.65c-0.47 0.38-0.79 1.28-0.7 2.02 0.1 0.73-0.84 2.84-2.08 4.69-1.24 1.84-4.13 5.55-6.42 8.25-2.3 2.69-5.82 6.69-7.82 8.89-2 2.2-4.45 5.57-5.44 7.5-1 1.93-2.54 6.43-3.43 10-0.9 3.57-1.63 7.85-1.64 9.5-0.01 1.65-0.84 5.7-1.84 9-1.01 3.3-2.46 7.12-3.24 8.5-0.78 1.37-1.69 2.72-2.02 3-0.33 0.27-0.92 5.45-1.32 11.5-0.39 6.05-1.02 15.01-1.4 19.92l-0.68 8.92c9.75 10.2 13.8 14.85 15.29 16.92 1.49 2.07 2.38 4.1 1.98 4.5-0.39 0.41-2.64-0.87-5-2.84-2.35-1.97-6.07-5.87-8.27-8.67-2.2-2.8-5.01-5.58-6.25-6.17-2.03-0.97-2.25-1.79-2.24-8.33 0-3.99 0.45-11.3 1-16.25 0.54-4.95 1.26-10.13 1.6-11.5 0.59-2.45 0.53-2.43-3 0.75-1.99 1.79-4.75 3.81-6.14 4.5-1.39 0.69-2.51 1.59-2.5 2 0.02 0.41-0.53 0.74-1.22 0.73-0.69-0.01-2.82 0.73-4.75 1.64-2.55 1.22-4.72 1.48-8 0.99-2.47-0.38-6.07-1.64-8-2.81-1.92-1.17-4.56-3.06-5.85-4.21-1.29-1.15-3.41-3.89-4.71-6.09-1.3-2.2-3.3-6.93-4.45-10.5-1.14-3.57-2.53-7.63-3.08-9-0.7-1.77-1.64-2.42-3.2-2.24-1.22 0.15-4.91 3.09-8.21 6.53-3.3 3.45-7.12 7.83-8.48 9.74-1.36 1.91-3.39 4.42-4.5 5.59-1.11 1.16-4.27 4.72-7.02 7.91-2.75 3.19-7.92 8.9-11.5 12.69-3.57 3.79-7.85 7.6-9.5 8.46-1.65 0.87-4.8 2.48-7 3.58-2.2 1.11-7.37 3.12-11.5 4.47-5.49 1.81-9.91 2.5-16.5 2.6-5.5 0.08-9.88-0.34-11.25-1.1-1.24-0.68-2.59-0.96-3-0.63-0.41 0.33-1.28 6.96-1.93 14.75-0.64 7.78-1.09 14.18-1 14.22 0.1 0.04 2.09 0.6 4.43 1.25 2.34 0.65 5.42 2.19 6.85 3.43 2.58 2.23 2.66 2.23 7.75 0.53 2.83-0.94 6.61-1.73 8.4-1.75 1.79-0.02 6.29 1.13 10 2.56 6.51 2.49 7.1 2.54 16.5 1.5 5.36-0.6 11.66-1.09 14-1.09 2.34-0.01 6.47 0.78 9.18 1.75 3.01 1.06 6.91 3.67 10 6.67 3.08 2.98 6.45 5.23 8.57 5.72 1.93 0.45 6.2 0.83 9.5 0.84 5.25 0.03 7.25-0.6 16-5.02 5.5-2.78 11.8-5.31 14-5.63 2.55-0.37 6 0.05 9.5 1.17l5.5 1.75c9.3-6.28 14.25-9.13 17-10.39 4.18-1.92 6.72-2.3 15.5-2.33l10.5-0.03c21.72 11.1 22.72 11.42 25.75 10.35 1.79-0.64 5.39-3.11 8-5.5 3.22-2.95 6.06-4.59 8.83-5.1 3.39-0.62 4.56-1.51 6.95-5.25 1.57-2.48 4.58-6.1 6.67-8.06 2.09-1.96 5.49-4.77 7.55-6.25 2.06-1.48 4.31-2.69 5-2.68 0.97 0 1.09-2.44 0.54-10.75-0.38-5.92-1.72-19.76-2.96-30.76-2.14-19.02-2.41-20.24-5.47-25-1.77-2.75-3.82-5.83-4.54-6.86-1.26-1.76-1.6-1.68-7.32 1.75-4.25 2.55-7.17 3.6-10 3.59-2.2 0-5.8-0.87-8-1.92-2.2-1.05-5.6-3.63-7.54-5.74-1.95-2.1-5.2-6.75-7.22-10.32-2.56-4.53-4.77-10.9-7.3-21-2-7.98-3.95-14.85-4.34-15.27-0.38-0.42-1.09-0.46-1.57-0.08z"/>
		<path id="Path 4" class="s4" d="m282.5 20.08c-2.75 0.53-6.57 1.75-8.5 2.7-1.93 0.94-5.05 2.85-6.95 4.22-1.89 1.38-4.4 3.4-5.57 4.5-1.16 1.1-3.5 4.03-5.19 6.5-1.69 2.48-4.14 5.5-5.43 6.73-1.3 1.23-7.31 3.95-13.36 6.04-6.05 2.1-12.35 4.77-14 5.94-1.65 1.17-4.63 3.85-6.62 5.96-1.99 2.1-5.16 6.3-7.04 9.33-1.88 3.03-5.87 10.41-8.88 16.4-3.25 6.51-7.63 13.37-10.82 17-2.95 3.36-7.06 7.68-9.13 9.6-2.07 1.92-4.83 4.29-6.14 5.26-1.3 0.97-3.72 2.82-5.37 4.13-1.65 1.3-4.57 3.25-6.5 4.33-1.93 1.08-4.62 2.59-6 3.37-1.37 0.78-2.72 1.73-3 2.13-0.28 0.39-2.07 1.61-4 2.71-1.93 1.1-5.53 3.02-8 4.28-2.47 1.26-4.72 2.53-5 2.82-0.28 0.3-3.65 2.41-7.5 4.7-3.85 2.28-8.19 5.19-9.64 6.46-1.45 1.27-4.36 3.66-6.46 5.31-2.11 1.65-6.55 5.71-9.87 9.03-3.31 3.32-7.67 8.04-9.68 10.5-2 2.46-4.77 6.5-6.16 8.97-1.38 2.47-3.84 8.78-5.47 14-1.63 5.22-3.44 11.97-4.03 15-0.58 3.03-1.34 7.97-1.68 11l-0.62 5.5c7.45 7.55 11.41 10.79 13.61 12.07 2.2 1.29 7.37 2.86 11.5 3.5 4.13 0.64 10.42 0.93 14 0.64 3.58-0.29 9.2-1.31 12.5-2.26 3.3-0.95 12.3-4.75 20-8.46 7.7-3.7 16.03-8.25 18.5-10.11 2.48-1.86 6.31-4.6 8.5-6.08 2.2-1.49 6.25-3.69 9-4.89 4.11-1.8 6.16-2.09 11.5-1.61 3.57 0.31 9.65 1.76 13.5 3.21 3.85 1.45 8.8 2.63 11 2.62 2.76-0.01 5.67-1.04 9.36-3.32 2.95-1.82 8.13-6.27 11.5-9.89 3.38-3.62 7.94-9.65 10.14-13.4 2.68-4.56 7.07-9.65 13.28-15.42 5.11-4.73 9.27-9.16 9.25-9.85-0.02-0.69 1.88-2.61 4.22-4.27 2.34-1.65 5.49-3 7-3 1.51 0.01 4.44 0.72 6.5 1.58 2.06 0.86 5.1 2.58 6.75 3.82 2.07 1.56 4.4 5.48 7.5 12.58 3.45 7.91 5.14 10.64 7.25 11.68 1.51 0.75 4.55 1.36 6.75 1.36 2.2 0 6.36-0.49 9.25-1.09 2.89-0.6 6.15-0.83 7.25-0.51 1.1 0.31 4.93 3.06 8.5 6.1 5 4.26 7.25 5.53 9.75 5.51 2.45-0.01 3.68-0.69 5-2.76 1.07-1.69 1.73-4.68 1.72-7.75-0.01-2.75-0.36-6.57-0.76-8.5-0.73-3.48-0.77-3.5-5.47-3.13-2.61 0.2-7.44-0.18-10.74-0.86-3.3-0.67-8.02-2.18-10.5-3.35-2.48-1.17-6.61-4.16-9.19-6.64-4.39-4.23-4.67-4.81-4.4-9.02 0.17-2.47 0.59-5.51 0.94-6.75 0.59-2.05 1.07-2.19 5.4-1.63 2.61 0.34 7.34 0.34 10.5 0 5.22-0.56 6.21-1.08 10.75-5.62 2.75-2.75 5.26-6.01 5.58-7.25 0.32-1.24-0.2-5.4-1.14-9.25-0.94-3.85-3.45-12.06-5.58-18.25-2.22-6.48-5.91-14.54-8.69-19-2.65-4.26-7.14-11.35-9.97-15.75-2.83-4.4-6.1-10.47-7.27-13.5-1.55-4.02-2.26-8.6-2.62-17-0.27-6.33-0.9-13.19-1.4-15.25-0.5-2.06-2.19-5.21-3.75-7-1.56-1.79-4.82-4.08-7.25-5.09-2.42-1-7.34-1.99-10.91-2.2-3.57-0.2-8.75 0.08-11.5 0.62z"/>
	</g>
</svg>