<svg version="1.2" xmlns="http://www.w3.org/2000/svg" viewBox="0 0 391 413" width="391" height="413">
	<style>
		.s0 { opacity: .5;fill: #a4d0e3 } 
		.s1 { fill: #1a1a1a } 
		.s2 { fill: #d7e9f1 } 
		.s3 { fill: #727272 } 
		.s4 { fill: #ffffff } 
	</style>
	<g id="Background">
		<path id="Path 0" class="s0" d="m351.25 233.99c-1.79 0.43-5.17 1.54-7.53 2.48-2.35 0.93-4.37 2.11-4.5 2.61-0.12 0.51-0.85 0.92-1.61 0.92-0.77 0-3.62 2.36-6.33 5.25-2.71 2.89-6.81 8.29-9.1 12-2.3 3.71-4.41 6.75-4.68 6.75-0.27 0-1.51-0.51-2.75-1.12-1.24-0.62-3.15-2.01-4.25-3.08-1.72-1.69-2.48-1.81-5.5-0.87-1.93 0.59-6.09 3.33-9.25 6.08-3.16 2.74-5.98 4.99-6.25 4.99-0.27 0-1.51-0.51-2.75-1.14-1.24-0.63-4.05-2.73-6.25-4.66-3.85-3.38-4.22-3.49-10-2.95-3.3 0.31-7.57 1.35-9.5 2.31-1.93 0.97-4.74 2.58-6.25 3.6-1.51 1.01-3.88 1.84-5.25 1.84-1.38 0-3.74-0.61-5.25-1.36-1.51-0.75-4.1-3.03-5.75-5.06l-3-3.71c-13.21 0.66-14.74 1.17-20.5 4.87-3.57 2.29-9.88 7.55-14 11.69-4.13 4.13-8.29 7.52-9.25 7.54-0.96 0.02-3.55-0.87-5.75-1.97-2.2-1.1-5.91-3.8-8.25-5.99l-4.25-3.99c-8.91 4.63-12.85 5.98-14.5 5.98-1.65 0-4.24-0.64-5.75-1.42-1.51-0.78-4.38-3.14-6.37-5.25-1.99-2.11-5.42-6.98-7.62-10.83-2.2-3.85-4.73-7.79-5.63-8.75-0.9-0.96-2.19-1.74-2.88-1.72-0.69 0.01-3.16 2.04-5.5 4.5-2.34 2.46-4.25 5.15-4.25 5.97 0 0.95-0.8 1.41-2.19 1.25-1.47-0.17-3.59-2.4-6.41-6.75-2.31-3.57-5.71-8.21-7.55-10.3-2.39-2.7-4.14-3.78-6.1-3.75-2.38 0.04-3.18 0.94-6 6.7-1.79 3.66-3.92 6.86-4.75 7.12-0.83 0.26-2.63-0.48-4-1.64-1.38-1.16-4.3-3.24-6.5-4.62-3.15-1.98-5.37-2.52-10.5-2.58-3.67-0.04-8.02 0.57-10 1.41-1.92 0.82-4.63 2.66-6 4.1-1.77 1.85-2.06 2.6-1 2.57 0.83-0.02 3.3-0.66 5.5-1.41 2.91-1 5.63-1.14 10-0.53 3.3 0.46 7.02 1.42 8.28 2.14 1.25 0.71 2.26 1.63 2.25 2.04-0.02 0.41-0.48 0.75-1.03 0.75-0.55 0-0.99 0.56-0.98 1.25 0.01 0.69-1.36 2.6-3.04 4.25-1.84 1.8-3.27 4.4-3.58 6.5-0.37 2.55-1.38 4.04-3.71 5.48-1.75 1.09-5.67 3.01-8.69 4.27-3.02 1.26-6.17 2.91-7 3.65-0.83 0.75-2.4 1.61-3.5 1.92-1.1 0.31-4.81 3.29-8.25 6.62-3.44 3.33-6.25 6.51-6.25 7.06 0 0.55-0.6 1.56-1.33 2.25-0.73 0.69-2.14 3.73-3.12 6.75-1.28 3.95-1.58 6.77-1.07 10 0.4 2.48 1.53 6.07 2.51 8 0.99 1.93 5.1 6.91 9.15 11.09 5.68 5.85 9.53 8.74 16.86 12.63 5.23 2.77 13.33 6.65 18 8.62 4.67 1.98 11.2 4.28 14.5 5.13 3.3 0.85 6.79 1.54 7.75 1.54 0.96-0.01 7.26 3.42 14 7.62 6.74 4.19 15.42 9.26 19.29 11.25 3.87 1.99 8.37 4.2 10 4.91 1.63 0.71 7.24 2.28 12.46 3.5 8.26 1.92 12.05 2.19 29 2.06 13.67-0.11 21.74-0.64 27-1.77 4.13-0.89 9.75-2.24 12.5-3 2.75-0.75 7.47-2.33 10.5-3.51 3.03-1.18 7.07-2.91 9-3.85 1.93-0.95 3.72-1.97 4-2.27 0.28-0.31 2.28-1.66 4.46-3 2.18-1.35 4.43-2.92 5-3.5 0.57-0.58 3.07-2 5.54-3.16 2.48-1.15 6.3-2.65 8.5-3.32 2.2-0.67 4.79-1.61 5.75-2.09 0.96-0.49 2.65-0.88 3.75-0.88 1.1 0 4.48-1.13 7.5-2.5 3.02-1.38 6.06-2.5 6.75-2.5 0.69 0.01 2.94-1.12 5-2.5 2.06-1.37 5.77-4.64 8.24-7.25 2.48-2.61 4.5-5.09 4.5-5.5 0.01-0.41 0.65-1.43 1.44-2.25 0.78-0.82 2.13-1.5 3-1.5 0.86 0 1.8-0.45 2.07-1 0.27-0.55 1.18-1 2-1 0.82 0 5.32-2.25 10-5 4.68-2.75 10.01-6.46 11.85-8.25 1.84-1.79 4.99-5.39 7-8 2.01-2.61 4.13-6.66 4.72-9 0.76-3 0.76-5.58 0.02-8.75-0.64-2.73-2.26-5.68-4.13-7.5l-3.07-3c4.17-15.5 5.66-23.53 6-27.85l0.61-7.86c6.2-3.41 9.57-5.02 11.5-5.77 1.93-0.76 5.86-2.42 8.75-3.7 2.89-1.27 5.48-2.77 5.75-3.32 0.27-0.55 0.39-1.22 0.25-1.49-0.14-0.27-2.95-1.16-6.25-1.97-3.3-0.81-7.57-1.44-9.5-1.4-1.93 0.03-4.96 0.42-6.75 0.85z"/>
		<path id="Path 1" class="s1" d="m209.5 10.18c-3.85 0.5-7.68 1.03-8.5 1.18-0.82 0.15-2.85 0.65-4.5 1.11-1.65 0.46-6.82 2.83-11.5 5.28-4.68 2.45-10.44 6.09-12.8 8.1-2.37 2.01-5.97 4.93-8 6.49-2.04 1.56-8.42 7.26-14.2 12.67-5.78 5.41-11.63 10.69-13 11.73-1.38 1.05-5.99 4.01-10.25 6.58-4.26 2.57-7.97 4.68-8.25 4.68-0.28 0-2.41 1.21-4.75 2.69-2.34 1.48-6.72 4.02-9.75 5.63-3.03 1.62-7.3 4.15-9.5 5.63-2.2 1.47-6.25 3.98-9 5.58-2.75 1.59-7.95 5.39-11.57 8.43-3.61 3.05-7.89 7.12-9.51 9.04-1.62 1.92-4.61 5.97-6.64 9-2.04 3.03-4.8 8.2-6.15 11.5-1.35 3.3-2.97 8.93-3.61 12.5-0.63 3.57-1.07 9.43-0.97 13 0.11 3.57 0.85 9.43 1.65 13 0.8 3.57 3.09 9.65 5.09 13.5 2.11 4.05 6.08 9.42 9.42 12.75 3.19 3.16 7.82 6.88 10.29 8.25 3.78 2.1 4.5 2.98 4.5 5.5 0 1.65 0.84 7.39 1.86 12.75 1.03 5.36 3.05 12.11 4.5 15 2.2 4.37 2.47 5.75 1.64 8.25-0.55 1.65-1.11 2.99-1.25 2.99-0.14-0.01-2.72-1.29-5.75-2.86-3.03-1.56-7.97-3.18-11-3.61-3.34-0.46-7.46-0.32-10.5 0.35-2.75 0.62-6.91 2.47-9.25 4.12-2.34 1.66-5.31 4.7-6.6 6.76-1.29 2.06-2.89 5.55-3.57 7.75-1.08 3.54-1.01 4.21 0.6 5.78 1 0.98 2.27 1.77 2.82 1.75 0.55-0.01 1.65-1.49 2.45-3.28 0.8-1.79 3.27-5.21 5.5-7.61 2.23-2.39 5.63-5.01 7.55-5.82 1.95-0.81 6.38-1.43 10-1.39 5.13 0.06 7.35 0.6 10.5 2.58 2.2 1.38 5.13 3.46 6.5 4.62 1.38 1.16 3.17 1.9 4 1.64 0.83-0.26 2.96-3.46 4.75-7.12 2.82-5.76 3.62-6.66 6-6.7 1.96-0.03 3.71 1.05 6.1 3.75 1.84 2.09 5.24 6.73 7.55 10.3 2.82 4.35 4.94 6.58 6.41 6.75 1.39 0.16 2.19-0.3 2.19-1.25 0-0.82 1.91-3.51 4.25-5.97 2.34-2.46 4.81-4.49 5.5-4.5 0.69-0.02 1.98 0.76 2.88 1.72 0.9 0.96 3.43 4.9 5.63 8.75 2.2 3.85 5.63 8.72 7.62 10.83 1.99 2.11 4.86 4.47 6.37 5.25 1.51 0.78 4.1 1.42 5.75 1.42 1.65 0 5.59-1.35 8.75-2.99l5.75-2.99c6.59 6.18 10.3 8.88 12.5 9.98 2.2 1.1 4.79 1.99 5.75 1.97 0.96-0.02 5.13-3.41 9.25-7.54 4.13-4.14 10.43-9.4 14-11.69 5.76-3.7 7.29-4.21 13.5-4.52l7-0.35c4.65 5.74 7.24 8.02 8.75 8.77 1.51 0.75 3.88 1.36 5.25 1.36 1.38 0 3.74-0.83 5.25-1.84 1.51-1.02 4.32-2.63 6.25-3.6 1.93-0.96 6.2-2 9.5-2.31 5.78-0.54 6.15-0.43 10 2.95 2.2 1.93 5.01 4.03 6.25 4.66 1.24 0.63 2.48 1.14 2.75 1.14 0.27 0 3.09-2.25 6.25-4.99 3.16-2.75 7.32-5.49 9.25-6.08 3.02-0.94 3.78-0.82 5.5 0.87 1.1 1.07 3.01 2.46 4.25 3.08 1.24 0.61 2.48 1.12 2.75 1.12 0.27 0 2.38-3.04 4.68-6.75 2.29-3.71 6.46-9.13 9.25-12.04 2.79-2.9 5.63-5.27 6.32-5.25 0.69 0.02 1.25-0.41 1.25-0.96 0-0.55 2.48-1.9 5.5-3 3.02-1.1 7.86-2.26 10.75-2.58 3.06-0.34 7.75 0 11.25 0.8 3.3 0.76 6.56 1.25 7.25 1.08 0.69-0.16 1.7-0.3 2.25-0.3 0.55 0 1.02-0.79 1.03-1.75 0.02-0.96-0.81-2.88-1.84-4.25-1.03-1.38-3.19-2.85-4.78-3.27-1.6-0.42-6.28-1.39-10.41-2.14-4.89-0.9-8.46-1.07-10.25-0.48-2.72 0.88-2.74 0.85-1.86-2.36 0.49-1.79 1.6-7.3 2.47-12.25 0.87-4.95 2.27-13.16 3.11-18.25 0.84-5.09 1.52-9.59 1.51-10-0.01-0.41 1.68-1.51 3.75-2.45 2.07-0.93 5.41-3.18 7.41-5 2-1.81 4.37-5.21 5.25-7.55 0.95-2.52 1.6-7.21 1.59-11.5-0.02-3.99-0.47-9.16-1-11.5-0.54-2.34-2.3-7.06-3.91-10.5-1.62-3.44-5.33-9.27-8.25-12.97-2.93-3.7-8.92-9.66-13.32-13.25-4.4-3.58-8.23-6.51-8.5-6.51-0.27 0.01-0.84-1.79-1.25-4-0.41-2.21-1.65-5.82-2.75-8.02-1.1-2.2-4.14-6.3-6.75-9.11-3.59-3.87-7.18-6.27-14.75-9.88-5.5-2.62-11.24-5.05-12.75-5.39-1.67-0.38-6.78-4.67-13-10.93-5.64-5.66-14.3-14.72-19.25-20.13-6.64-7.24-10.51-10.58-14.75-12.69-3.16-1.58-8.11-3.79-11-4.92-2.89-1.13-8.51-2.7-12.5-3.5-3.99-0.8-8.49-1.39-10-1.32-1.51 0.07-5.9 0.54-9.75 1.05z"/>
		<path id="Path 2" class="s2" d="m319.36 93.76c-2.67 1.85-9.13 4.72-14.36 6.38-5.23 1.66-10.18 3.46-11 3.99-0.99 0.64 2.38 0.84 10 0.59 8.54-0.27 12.4-0.83 15-2.16 1.92-0.99 4.3-2.53 5.28-3.43 0.98-0.9 1.76-2.76 1.74-4.13-0.03-1.38-0.44-2.97-0.92-3.54q-0.89-1.04-5.74 2.3zm13.44 18.05c-1.81 1.55-4.65 3.32-6.3 3.93-1.65 0.6-4.24 1.36-5.75 1.68-1.51 0.32-5.34 0.09-8.5-0.51-3.16-0.61-8.45-2.2-11.75-3.55-3.3-1.34-6.12-2.31-6.27-2.15-0.15 0.16 0.3 0.78 1 1.39 0.7 0.6 5.54 2.73 10.77 4.73 5.23 2 13.32 4.4 18 5.32 7.24 1.43 9.61 1.5 16 0.48 4.12-0.66 7.95-1.67 8.5-2.25 0.68-0.72-0.59-2.48-4-5.54-2.75-2.46-5.76-4.9-6.7-5.42-1.28-0.71-2.51-0.24-5 1.89zm28.06 36.81c-0.75 0.89-4.51 3.11-8.36 4.92-3.85 1.81-10.6 4.17-15 5.24-4.4 1.08-9.91 2.91-12.25 4.09-2.34 1.17-4.25 2.47-4.26 2.88 0 0.41-1.24 1.31-2.75 2-2.66 1.22-2.97 1.02-10.24-6.53-6.19-6.43-8.46-8.1-13-9.55-3.57-1.15-6.55-1.51-8.5-1.04-1.65 0.4-4.13 1.33-5.5 2.07-1.38 0.74-4.52 3.52-7 6.18-2.48 2.66-6.08 5.51-8 6.33-1.93 0.81-7.77 1.75-13 2.08-5.23 0.33-9.93 1.07-10.45 1.65-0.52 0.58-1.54 1.06-2.25 1.06-0.72 0-5.69 2.83-11.05 6.3-5.36 3.46-12.45 7.49-15.75 8.95-3.3 1.46-8.48 2.93-11.5 3.26-3.59 0.4-7.24 0.1-10.5-0.86-2.75-0.82-9.5-3.13-15-5.16-9.53-3.5-10.87-3.72-28.5-4.66-10.18-0.54-22.33-0.79-27-0.54-4.68 0.24-14.13 0.1-21-0.31-10.53-0.63-13.76-1.24-20.5-3.87-4.75-1.85-11.05-5.43-15.5-8.79l-7.5-5.66c0.92 6.08 2.72 10.94 4.6 14.73 1.87 3.78 5.2 8.54 7.4 10.56 2.2 2.02 6.92 5.08 10.5 6.79 3.57 1.72 9.65 3.66 13.5 4.33 4.3 0.75 11.05 0.99 17.5 0.63 8.01-0.45 12.63-1.31 19.5-3.66 4.95-1.69 11.7-3.35 15-3.68 4.26-0.43 7.37-0.14 10.75 1.02 2.61 0.89 6.66 2.5 9 3.57 2.34 1.08 5.37 3 6.75 4.28 1.37 1.27 4.3 3.53 6.5 5 2.2 1.48 6.02 3.41 8.5 4.28 2.47 0.88 7.42 1.71 11 1.85 4.88 0.19 7.5-0.24 10.5-1.74 2.2-1.09 7.15-4.35 11-7.22 3.85-2.88 9.92-7.76 13.5-10.85 3.57-3.08 8.07-6.38 10-7.32 2.49-1.22 6.24-1.74 13-1.82 5.23-0.05 11.19-0.62 13.25-1.25 2.06-0.64 4.66-2.4 5.77-3.91 1.11-1.51 2.22-3.88 2.47-5.25 0.25-1.38 2.16-4 4.23-5.83 3.23-2.85 4.29-3.25 7.28-2.74 1.92 0.33 4.85 1.66 6.5 2.95 1.65 1.3 4.52 5.23 6.37 8.74 1.85 3.51 4.77 7.85 6.5 9.64 1.72 1.8 4.25 3.66 5.63 4.13 1.94 0.67 3.08 0.39 5.07-1.26 1.41-1.17 4.33-4.32 6.5-6.99 2.31-2.86 5.78-5.71 8.43-6.93 2.99-1.37 7.11-2.18 12.25-2.39 5.05-0.21 8.81-0.93 10.79-2.07 1.77-1.02 4.07-3.84 5.51-6.75 1.36-2.75 2.47-6.69 2.46-8.75 0-2.06-0.41-3.75-0.9-3.75-0.49 0-1.5 0.73-2.25 1.62z"/>
		<path id="Path 3" class="s3" d="m287.12 169.51c-1.77 1.19-2.35 2.44-2.23 4.8 0.11 2.14-0.83 4.59-2.86 7.44-1.74 2.44-4.63 4.93-6.78 5.85-2.37 1.01-7.7 1.75-14.5 2l-10.75 0.4c-8.38 6.59-12.09 9.47-13.66 10.66-1.56 1.2-3.79 3-4.96 4-1.16 1.01-3.59 2.97-5.41 4.34-1.81 1.38-3.78 3-4.38 3.6-0.6 0.61-2.66 2-4.59 3.1-1.93 1.09-5.75 2.58-8.5 3.32-4.01 1.06-6.54 1.09-12.75 0.15-4.26-0.64-10.34-2.33-13.5-3.74-3.16-1.41-8.68-4.73-12.25-7.37-3.57-2.65-7.96-5.54-9.75-6.43-1.79-0.9-5.39-1.71-8-1.81-2.91-0.1-6.88 0.67-10.25 2.02-3.03 1.2-8.43 2.94-12 3.87-4.49 1.17-10.52 1.69-19.5 1.69-9.24 0-14.69-0.48-18.86-1.69-3.22-0.93-5.96-1.58-6.1-1.45-0.13 0.13 0.77 5.19 2.02 11.24 1.24 6.05 2.7 12.13 3.24 13.5 0.79 2 1.56 2.43 3.85 2.14 1.57-0.2 4.65 0.54 6.85 1.63 2.2 1.1 5.83 3.96 8.06 6.36 2.24 2.4 4.64 5.5 5.34 6.87l1.27 2.5c7.43-6.9 8.79-7.5 12.46-7.5 3.52 0 5.07 0.63 8 3.25 1.99 1.79 6.02 7.3 8.94 12.25 2.93 4.95 6.13 9.79 7.12 10.76 1.73 1.69 2.14 1.61 9.31-1.74 6.51-3.04 7.96-3.37 11-2.54 2.13 0.58 5.36 2.93 8.25 5.99 2.61 2.76 5.31 5.05 6 5.07 0.69 0.02 3.27-2.13 5.75-4.79 2.47-2.66 7.87-7.31 12-10.33 4.12-3.02 8.74-6.04 10.25-6.71 1.51-0.66 5.28-1.55 8.37-1.96 5.12-0.68 5.78-1.06 7.37-4.25 0.97-1.93 4.18-6.16 7.13-9.41 2.96-3.25 9.88-9.74 15.38-14.41 5.5-4.68 11.82-10.34 14.04-12.59 2.23-2.25 5.94-5.55 8.25-7.34 2.32-1.79 4.89-3.02 5.71-2.75 0.82 0.28 1.52 1.06 1.55 1.75 0.02 0.69-1.67 2.57-3.75 4.18-2.09 1.62-6.28 5.31-9.3 8.21-3.02 2.91-7.06 6.54-8.97 8.07-1.9 1.53-7.86 6.73-13.25 11.54-5.38 4.81-9.78 9.09-9.78 9.5-0.01 0.41-1.36 2.21-3 4l-3 3.25c4.78 0.8 7.06 2.32 8.61 4.25 1.44 1.79 2.98 3.93 3.43 4.75 0.69 1.27 1.79 1 7.14-1.71 3.47-1.76 8.57-3.74 11.32-4.39 2.75-0.65 6.91-0.89 9.25-0.54 2.34 0.35 5.94 1.48 8 2.52 2.06 1.03 4.43 2.62 5.25 3.54 1.38 1.54 1.77 1.41 5-1.76 1.93-1.89 4.96-4.16 6.75-5.05 1.79-0.89 5.5-1.61 8.25-1.61 2.75 0 5.23 0.45 5.5 1 0.27 0.55 1.06 0.98 1.75 0.96 0.69-0.02 2.59-2.15 4.23-4.75 1.64-2.59 3.89-5.81 5-7.15 1.11-1.34 3.59-3.96 5.52-5.81 1.93-1.85 4.74-4.01 6.25-4.81 2.05-1.07 3.12-2.78 4.19-6.69 0.8-2.89 2.19-8.62 3.09-12.75 0.9-4.12 2.73-12.9 4.06-19.5 1.33-6.6 2.42-12.11 2.41-12.25 0-0.14-0.68-0.25-1.5-0.25-0.82 0-2.96 0.79-4.75 1.75-1.79 0.96-4.38 3.07-5.75 4.69-1.38 1.62-3.85 4.49-5.5 6.38-1.65 1.89-4.69 4.28-6.75 5.31-3.47 1.73-4.07 1.76-8 0.36-2.34-0.83-6.47-3.19-9.18-5.25-3.19-2.42-5.92-5.68-7.75-9.24-1.56-3.02-2.82-5.95-2.81-6.5 0.01-0.55-1.23-2.48-2.75-4.29-2.65-3.17-2.85-3.23-5.14-1.7z"/>
		<path id="Path 4" class="s4" d="m207.5 22.2c-2.75 0.39-5.9 1.12-7 1.61-1.1 0.5-6.28 2.99-11.5 5.55-5.96 2.91-13.03 7.53-18.97 12.39-5.21 4.26-12.18 10.62-15.5 14.12-3.32 3.5-8.73 8.2-12.03 10.44-3.3 2.25-12.53 7.87-20.5 12.5-7.97 4.63-16.97 9.79-20 11.47-3.03 1.68-8.42 5.07-12 7.55-3.58 2.48-8.3 5.87-10.5 7.54-2.2 1.66-6.07 5.52-8.6 8.58-2.53 3.05-6.43 9.15-8.67 13.55-2.24 4.4-4.56 10.7-5.16 14-0.59 3.3-1.07 8.47-1.06 11.5l0.02 5.5c12.18 9.02 18.88 12.8 23.47 14.6 6.75 2.64 9.95 3.25 20.5 3.88 6.87 0.41 16.33 0.55 21 0.31 4.67-0.25 16.82 0 27 0.54 17.63 0.94 18.97 1.16 28.5 4.66 5.5 2.03 12.25 4.34 15 5.16 3.26 0.96 6.91 1.26 10.5 0.86 3.03-0.33 8.2-1.8 11.5-3.26 3.3-1.46 10.39-5.49 15.75-8.95 5.36-3.47 10.33-6.3 11.05-6.3 0.71 0 1.73-0.48 2.25-1.06 0.52-0.58 5.23-1.32 10.45-1.65 5.23-0.33 11.07-1.27 13-2.08 1.93-0.82 5.52-3.67 8-6.33 2.48-2.66 5.62-5.44 7-6.18 1.37-0.74 3.85-1.67 5.5-2.07 1.95-0.47 4.93-0.11 8.5 1.04 4.54 1.45 6.81 3.12 13 9.55 7.27 7.55 7.58 7.75 10.24 6.53 1.51-0.69 2.75-1.59 2.75-2 0.01-0.41 1.92-1.71 4.26-2.88 2.34-1.18 7.85-3.01 12.25-4.09 4.4-1.07 11.15-3.47 15-5.34 3.85-1.87 8.01-4.3 9.25-5.42 2.18-1.95 2.2-2.19 0.82-7.27-0.79-2.89-3.1-7.72-5.14-10.75-2.03-3.03-4.65-6.51-5.81-7.74-1.35-1.42-2.48-1.9-3.12-1.3-0.55 0.52-4.38 1.49-8.5 2.16-6.41 1.04-8.74 0.97-16-0.47-4.68-0.92-12.77-3.3-18-5.29-5.23-1.98-10.18-4.37-11-5.3-0.82-0.94-2.51-2.23-3.75-2.88-1.24-0.65-2.25-1.74-2.25-2.43 0-0.69 1.46-1.74 3.25-2.35 1.79-0.6 7.52-2.5 12.75-4.21 5.23-1.72 11.64-4.49 14.25-6.16 2.61-1.66 4.75-3.48 4.75-4.03 0-0.55-1.53-2.69-3.4-4.75-2.12-2.34-5.98-4.84-10.25-6.64-3.77-1.58-9.28-4.06-12.24-5.5-2.97-1.43-8.77-5.76-12.89-9.61-4.13-3.85-12.28-12.56-18.11-19.36-5.84-6.79-12.18-13.32-14.11-14.49-1.93-1.18-5.53-3.08-8-4.23-2.47-1.16-6.75-2.65-9.5-3.32-2.75-0.68-9.05-1.09-14-0.93-4.95 0.17-11.25 0.63-14 1.03z"/>
	</g>
</svg>